<svg xmlns="http://www.w3.org/2000/svg" width="24.806" height="25" viewBox="0 0 24.806 25"><g transform="translate(-367.771 -278.771)"><path d="M380.4,278.771a12.18,12.18,0,0,0-10.43,18.466l-2.2,6.534,6.742-2.159a12.179,12.179,0,1,0,5.886-22.841Zm0,22.316a10.082,10.082,0,0,1-5.577-1.676l-3.9,1.247,1.266-3.765a10.134,10.134,0,1,1,8.207,4.194Zm5.71-7.371c-.305-.167-1.8-.977-2.086-1.091s-.486-.174-.705.13-.841.981-1.03,1.181-.372.219-.677.052a8.492,8.492,0,0,1-2.442-1.636,9.386,9.386,0,0,1-1.649-2.217c-.17-.318,0-.48.16-.629.145-.134.325-.352.487-.527a2.128,2.128,0,0,0,.33-.507.572.572,0,0,0-.006-.546c-.072-.158-.636-1.711-.872-2.343s-.5-.538-.68-.545-.387-.04-.595-.048a1.143,1.143,0,0,0-.843.358,3.487,3.487,0,0,0-1.185,2.552,6.048,6.048,0,0,0,1.149,3.262,12.758,12.758,0,0,0,5.134,4.892c3.114,1.363,3.13.948,3.7.917a3.144,3.144,0,0,0,2.154-1.4,2.6,2.6,0,0,0,.236-1.471C386.618,293.969,386.414,293.883,386.109,293.716Z" fill="#424242" fill-rule="evenodd"/></g></svg>