<svg xmlns="http://www.w3.org/2000/svg" width="20" height="20" viewBox="0 0 20 20">
  <g id="Gruppe_25504" data-name="Gruppe 25504" transform="translate(-35 -531)">
    <rect id="Rechteck_4016" data-name="Rechteck 4016" width="20" height="20" transform="translate(35 531)" fill="none"/>
    <g id="Gruppe_25323" data-name="Gruppe 25323" transform="translate(34.999 531.001)">
      <path id="Pfad_12944" data-name="Pfad 12944" d="M3.316,19.341A11.334,11.334,0,0,1,19.344,3.313l-.754.754A10.267,10.267,0,0,0,4.07,18.587Z" transform="translate(0 0)" fill="#ffbc00"/>
      <path id="Pfad_12945" data-name="Pfad 12945" d="M8.669,17.338a8.669,8.669,0,1,1,8.669-8.668A8.679,8.679,0,0,1,8.669,17.338Zm.338-7.7h0L9,9.662a2.443,2.443,0,0,0,.674,1.74A2.566,2.566,0,0,0,11.5,12a2.683,2.683,0,0,0,1.954-.739,2.583,2.583,0,0,0,.752-1.919V7.993a2.638,2.638,0,0,0-.724-1.917A2.518,2.518,0,0,0,11.6,5.334a2.629,2.629,0,0,0-1.878.62A2.6,2.6,0,0,0,8.99,7.711L9,7.739h1.465a1.6,1.6,0,0,1,.282-.94,1.057,1.057,0,0,1,.857-.307.942.942,0,0,1,.806.412A1.831,1.831,0,0,1,12.7,7.983V9.346a1.734,1.734,0,0,1-.32,1.086,1.059,1.059,0,0,1-.881.414.926.926,0,0,1-.77-.289,1.64,1.64,0,0,1-.259-.922H9.008Zm-3.272-4.3a2.521,2.521,0,0,0-1.881.742,2.638,2.638,0,0,0-.724,1.917V9.346a2.583,2.583,0,0,0,.752,1.919A2.681,2.681,0,0,0,5.838,12a2.564,2.564,0,0,0,1.828-.6,2.443,2.443,0,0,0,.674-1.74l-.009-.027H6.866a1.636,1.636,0,0,1-.259.922.925.925,0,0,1-.769.289,1.06,1.06,0,0,1-.882-.414,1.734,1.734,0,0,1-.319-1.086V7.983A1.832,1.832,0,0,1,4.93,6.9a.942.942,0,0,1,.806-.412,1.057,1.057,0,0,1,.857.307,1.6,1.6,0,0,1,.282.94H8.34l.009-.027a2.6,2.6,0,0,0-.735-1.758A2.629,2.629,0,0,0,5.736,5.334Z" transform="translate(2.661 2.661)" fill="#ffbc00"/>
    </g>
  </g>
</svg>
