<svg xmlns="http://www.w3.org/2000/svg" width="14" height="14" viewBox="0 0 14 14">
  <g id="Gruppe_25505" data-name="Gruppe 25505" transform="translate(-205 -246.5)">
    <g id="Gruppe_25507" data-name="Gruppe 25507">
      <rect id="Rechteck_4017" data-name="Rechteck 4017" width="14" height="14" transform="translate(205 246.5)" fill="none"/>
      <g id="Gruppe_25506" data-name="Gruppe 25506" transform="translate(664.673 734.629)">
        <g id="Gruppe_13914" data-name="Gruppe 13914" transform="translate(-459.673 -488.129)">
          <path id="Pfad_12944" data-name="Pfad 12944" d="M-457.352-474.588a7.942,7.942,0,0,1,0-11.221,7.943,7.943,0,0,1,11.22,0l-.528.528a7.2,7.2,0,0,0-10.165,0,7.2,7.2,0,0,0,0,10.165Z" transform="translate(459.673 488.129)" fill="#ffbc00"/>
        </g>
        <g id="Gruppe_13915" data-name="Gruppe 13915" transform="translate(-457.81 -486.266)">
          <path id="Pfad_12945" data-name="Pfad 12945" d="M-448.615-483.139a6.068,6.068,0,0,0-6.068,6.068A6.068,6.068,0,0,0-448.615-471a6.068,6.068,0,0,0,6.068-6.067A6.068,6.068,0,0,0-448.615-483.139Zm-.231,5.417h-1.025a1.114,1.114,0,0,0-.2-.657.736.736,0,0,0-.6-.215.656.656,0,0,0-.564.289,1.273,1.273,0,0,0-.205.755v.953a1.209,1.209,0,0,0,.224.76.738.738,0,0,0,.617.29.645.645,0,0,0,.539-.2,1.139,1.139,0,0,0,.181-.645h1.025l.006.019a1.7,1.7,0,0,1-.472,1.219,1.785,1.785,0,0,1-1.279.42,1.869,1.869,0,0,1-1.368-.517,1.8,1.8,0,0,1-.527-1.343v-.947a1.838,1.838,0,0,1,.507-1.341,1.756,1.756,0,0,1,1.316-.519,1.836,1.836,0,0,1,1.315.433,1.816,1.816,0,0,1,.514,1.231Zm4.107,1.125a1.8,1.8,0,0,1-.527,1.343,1.869,1.869,0,0,1-1.367.517,1.786,1.786,0,0,1-1.279-.42,1.7,1.7,0,0,1-.472-1.219l.006-.019h1.025a1.141,1.141,0,0,0,.181.645.646.646,0,0,0,.539.2.738.738,0,0,0,.617-.29,1.209,1.209,0,0,0,.224-.76v-.953a1.272,1.272,0,0,0-.206-.755.656.656,0,0,0-.564-.289.736.736,0,0,0-.6.215,1.114,1.114,0,0,0-.2.657h-1.025l-.006-.019a1.816,1.816,0,0,1,.514-1.231,1.836,1.836,0,0,1,1.315-.433,1.756,1.756,0,0,1,1.316.519,1.838,1.838,0,0,1,.507,1.341Z" transform="translate(454.683 483.139)" fill="#ffbc00"/>
        </g>
      </g>
    </g>
  </g>
</svg>
