<svg xmlns="http://www.w3.org/2000/svg" width="260" height="260" viewBox="0 0 260 260">
  <g id="Gruppe_26032" data-name="Gruppe 26032" transform="translate(-2805 -1648)">
    <rect id="Rechteck_2905" width="260" height="260" transform="translate(2805 1648)" fill="#404040"/>
    <g id="Gruppe_26025" data-name="Gruppe 26025" transform="translate(-351.384 96)" opacity="0.16">
      <g id="Gruppe_20332-2" transform="matrix(0.985, -0.174, 0.174, 0.985, 3268.905, 1764.74)">
        <rect id="Rechteck_2909-2" width="44.118" height="44.118" fill="none" stroke="#838383" stroke-linecap="round" stroke-linejoin="round" stroke-miterlimit="10" stroke-width="2"/>
        <path id="Pfad_20537-2" d="M14.329,0C8.3,0,1.76,2.385,0,7.918l5.153,6.662H23.5l5.153-6.662C27.024,2.385,20.362,0,14.329,0Z" transform="translate(7.667 5.782)" fill="none" stroke="#838383" stroke-linecap="round" stroke-linejoin="round" stroke-miterlimit="10" stroke-width="2"/>
        <line id="Linie_4726-2" y1="7.29" x2="2.64" transform="translate(20.739 12.191)" fill="none" stroke="#838383" stroke-linecap="round" stroke-linejoin="round" stroke-miterlimit="10" stroke-width="2"/>
      </g>
      <g id="Gruppe_20338-2" transform="translate(3179.6 1664.728)">
        <ellipse id="Ellipse_2433-2" cx="5.684" cy="5.684" rx="5.684" ry="5.684" transform="translate(37.952 32.269)" fill="none" stroke="#838383" stroke-linecap="round" stroke-linejoin="round" stroke-width="2"/>
        <g id="Gruppe_14065-2" transform="translate(0)">
          <path id="Pfad_13228-2" d="M-611.725,22913.309v13.037a17.482,17.482,0,0,1-17.388,17.389h0a17.482,17.482,0,0,1-17.388-17.389v-13.037" transform="translate(646.5 -22909.465)" fill="none" stroke="#838383" stroke-linecap="round" stroke-linejoin="round" stroke-width="2"/>
          <path id="Rechteck_2246-2" d="M-643.156,22911h1a3.355,3.355,0,0,1,3.344,3.348v6.518a3.362,3.362,0,0,1-3.344,3.35h-1a3.362,3.362,0,0,1-3.344-3.35v-6.518A3.355,3.355,0,0,1-643.156,22911Z" transform="translate(646.5 -22911.002)" fill="none" stroke="#838383" stroke-linecap="round" stroke-linejoin="round" stroke-width="2"/>
          <path id="Rechteck_2247-2" d="M-626.956,22911h1a3.355,3.355,0,0,1,3.344,3.348v6.518a3.362,3.362,0,0,1-3.344,3.35h-1a3.362,3.362,0,0,1-3.344-3.35v-6.518A3.355,3.355,0,0,1-626.956,22911Z" transform="translate(657.385 -22911.002)" fill="none" stroke="#838383" stroke-linecap="round" stroke-linejoin="round" stroke-width="2"/>
        </g>
        <path id="Pfad_13229-2" d="M-609.919,22941.7a13.063,13.063,0,0,1-13.041,13.051h0A13.063,13.063,0,0,1-636,22941.7V22932" transform="translate(653.555 -22896.889)" fill="none" stroke="#838383" stroke-linecap="round" stroke-linejoin="round" stroke-width="2"/>
      </g>
      <g id="Gruppe_20339-2" transform="translate(3162.384 1744.724)">
        <g id="Gruppe_19277-2" transform="translate(5.4)">
          <path id="Pfad_19477-2" d="M-608.846,22915.91l1.862,9.814a4.633,4.633,0,0,1-3.554,5.418l-.846.162a4.622,4.622,0,0,1-5.416-3.553" transform="translate(667.232 -22907.686)" fill="none" stroke="#838383" stroke-linecap="round" stroke-miterlimit="10" stroke-width="2"/>
          <path id="Pfad_19478-2" d="M-615.1,22958.855v-17.266a6.636,6.636,0,0,0,2.539-4.732l2.031-7.951" transform="translate(668.409 -22898.682)" fill="none" stroke="#838383" stroke-linecap="round" stroke-miterlimit="10" stroke-width="2"/>
          <path id="Pfad_19479-2" d="M-640.631,22955.434l-.169-7.951,9.478-12.859c8.123-3.051,11.846,3.887,23.862,4.734l.169,15.9" transform="translate(650.616 -22895.258)" fill="none" stroke="#838383" stroke-linecap="round" stroke-miterlimit="10" stroke-width="2"/>
          <path id="Pfad_19480-2" d="M-579.075,22929.926c4.908,1.02,6.431-4.053,8.292-7.607.508-.844,0-1.531-1.354-2.031-1.862-.852-4.4-1.7-7.277-2.875a8.349,8.349,0,0,0-6.938-6.09c-5.247-1.191-8.462,1.686-11,5.414-.847,1.184-3.216,8.8-5.077,10.828l-3.385,2.7-31.817,1.531a8.987,8.987,0,0,0-5.923,2.869,12.028,12.028,0,0,0-2.539,5.086c-.846,2.877.339,8.125,3.384,14.045l-3.892,6.6.508,10.664" transform="translate(646.6 -22911.049)" fill="none" stroke="#838383" stroke-linecap="round" stroke-miterlimit="10" stroke-width="2"/>
        </g>
        <path id="Pfad_19481-2" d="M-632.426,22929.043s-16.246-.33-13.877-14.039" transform="translate(646.54 -22908.307)" fill="none" stroke="#838383" stroke-linecap="round" stroke-miterlimit="10" stroke-width="2"/>
      </g>
      <g id="Gruppe_20340-2" transform="translate(3169.996 1564.895)">
        <g id="Gruppe_10169-2" transform="translate(0.694)">
          <path id="Pfad_9861-2" d="M-620.358,22930.318l-6.681,6.68-19.462-19.316,6.681-6.68Z" transform="translate(646.5 -22911.002)" fill="none" stroke="#838383" stroke-linecap="round" stroke-linejoin="round" stroke-width="2"/>
          <line id="Linie_2640-2" x2="6.681" y2="6.681" transform="translate(23.238 23.093)" fill="none" stroke="#838383" stroke-linecap="round" stroke-linejoin="round" stroke-width="2"/>
        </g>
        <path id="Pfad_9862-2" d="M-611.268,22950.8a20.563,20.563,0,0,1-12.2,4.063h0a20.358,20.358,0,0,1-20.333-20.182v-3.775a15.93,15.93,0,0,1,.581-4.5" transform="translate(647.721 -22904.041)" fill="none" stroke="#838383" stroke-linecap="round" stroke-linejoin="round" stroke-width="2"/>
        <line id="Linie_2641-2" x2="19.752" transform="translate(29.483 38.487)" fill="none" stroke="#838383" stroke-linecap="round" stroke-linejoin="round" stroke-width="2"/>
        <line id="Linie_2642-2" x2="50.832" transform="translate(0 50.977)" fill="none" stroke="#838383" stroke-linecap="round" stroke-linejoin="round" stroke-width="2"/>
        <ellipse id="Ellipse_2106-2" cx="4.212" cy="4.067" rx="4.212" ry="4.067" transform="translate(1.598 13.797)" fill="none" stroke="#838383" stroke-linecap="round" stroke-linejoin="round" stroke-width="2"/>
        <ellipse id="Ellipse_2107-2" cx="4.648" cy="4.647" rx="4.648" ry="4.647" transform="translate(35.873 38.776)" fill="none" stroke="#838383" stroke-linecap="round" stroke-linejoin="round" stroke-width="2"/>
      </g>
      <g id="Gruppe_20336-2" transform="translate(3307.578 1562.537)">
        <path id="Pfad_20545-2" d="M-575.045,22950.951H-646.5l7.552-25.85h56.641Z" transform="translate(646.5 -22904.768)" fill="none" stroke="#838383" stroke-linecap="round" stroke-linejoin="round" stroke-miterlimit="10" stroke-width="2"/>
        <path id="Pfad_20546-2" d="M-591.5,22930.7a7.017,7.017,0,0,0,1.452-4.209,6.817,6.817,0,0,0-6.826-6.824h0a7.933,7.933,0,0,0-4.212,1.6,8.232,8.232,0,0,0,.436-2.615,7.5,7.5,0,0,0-7.552-7.551,7.655,7.655,0,0,0-7.552,6.389,7.34,7.34,0,0,0-7.262-6.094,7.284,7.284,0,0,0-7.262,7.268h0a9.938,9.938,0,0,0,.726,3.473,4.309,4.309,0,0,0-3.486-1.158,5.869,5.869,0,0,0-5.664,5.662,5.57,5.57,0,0,0,2.324,4.5" transform="translate(650.028 -22911.1)" fill="none" stroke="#838383" stroke-linecap="round" stroke-linejoin="round" stroke-miterlimit="10" stroke-width="2"/>
      </g>
      <g id="Gruppe_20337-2" transform="translate(3342.045 1737.487)">
        <path id="Icon-32-2" d="M-590.44,22921.314A13.984,13.984,0,0,0-603.656,22911h-.581a15.735,15.735,0,0,0-14.088,9.436,15.735,15.735,0,0,0-14.088-9.436,13.824,13.824,0,0,0-14.088,13.645h0v.586c0,11.037,11.909,19.75,28.176,36.014,7.7-7.687,14.523-13.793,19.462-19.166" transform="translate(646.5 -22911.002)" fill="none" stroke="#838383" stroke-linecap="round" stroke-linejoin="round" stroke-width="2"/>
        <path id="Pfad_13547-2" d="M-631.7,22927.947h6.971l4.5,11.037,7.7-20.482,2.034,9.445h16.266" transform="translate(653.195 -22907.609)" fill="none" stroke="#838383" stroke-linecap="round" stroke-linejoin="round" stroke-width="2"/>
      </g>
      <g id="Gruppe_22027" transform="matrix(0.978, 0.208, -0.208, 0.978, 3268.597, 1656.09)">
        <path id="Pfad_25937" d="M47.5,48.318H0s5.443-2.462,5.443-28.193C5.443,8.9,12.7,0,23.75,0h0C34.965,0,42.057,9.072,42.057,20.125,42.057,46.34,47.5,48.318,47.5,48.318Z" transform="translate(0 5.94)" fill="none" stroke="#838383" stroke-linecap="round" stroke-linejoin="round" stroke-width="2"/>
        <line id="Linie_5781" y1="5.937" transform="translate(23.75 0)" fill="none" stroke="#838383" stroke-linecap="round" stroke-linejoin="round" stroke-width="2"/>
        <path id="Pfad_25938" d="M0,0C1.979,1.976,7.422,1.976,9.4,0" transform="translate(19.132 61.188)" fill="none" stroke="#838383" stroke-linecap="round" stroke-linejoin="round" stroke-width="2"/>
      </g>
      <g id="Gruppe_25703" data-name="Gruppe 25703" transform="translate(3237.583 1606.412) rotate(-40)">
        <path id="Pfad_28491" data-name="Pfad 28491" d="M19.731,18.489c-3.093,1.837-6.863-1.74-9.86-2.707S1.557,15.685.2,12.3C-1.633,7.565,9.388-1.522,14.8.218,20.118,1.862,24.081,15.975,19.731,18.489Z" transform="translate(4.424 16.8)" fill="none" stroke="#838383" stroke-linecap="round" stroke-linejoin="round" stroke-miterlimit="10" stroke-width="2"/>
        <g id="Gruppe_25701" data-name="Gruppe 25701" transform="translate(0 8.119)">
          <ellipse id="Ellipse_2872" data-name="Ellipse 2872" cx="4.93" cy="3.577" rx="4.93" ry="3.577" transform="translate(0 9.401) rotate(-72.44)" fill="none" stroke="#838383" stroke-linecap="round" stroke-linejoin="round" stroke-miterlimit="10" stroke-width="2"/>
          <ellipse id="Ellipse_2873" data-name="Ellipse 2873" cx="4.93" cy="3.577" rx="4.93" ry="3.577" transform="translate(27.75 18.164) rotate(-72.44)" fill="none" stroke="#838383" stroke-linecap="round" stroke-linejoin="round" stroke-miterlimit="10" stroke-width="2"/>
        </g>
        <g id="Gruppe_25702" data-name="Gruppe 25702" transform="translate(9.653 0)">
          <ellipse id="Ellipse_2874" data-name="Ellipse 2874" cx="6.477" cy="4.447" rx="6.477" ry="4.447" transform="translate(0 12.35) rotate(-72.44)" fill="none" stroke="#838383" stroke-linecap="round" stroke-linejoin="round" stroke-miterlimit="10" stroke-width="2"/>
          <ellipse id="Ellipse_2875" data-name="Ellipse 2875" cx="6.477" cy="4.447" rx="6.477" ry="4.447" transform="translate(11.544 16.028) rotate(-72.44)" fill="none" stroke="#838383" stroke-linecap="round" stroke-linejoin="round" stroke-miterlimit="10" stroke-width="2"/>
        </g>
      </g>
      <g id="Ellipse_5533" data-name="Ellipse 5533" transform="translate(3374 1553)" fill="none" stroke="#838383" stroke-width="2">
        <circle cx="5.5" cy="5.5" r="5.5" stroke="none"/>
        <circle cx="5.5" cy="5.5" r="4.5" fill="none"/>
      </g>
      <g id="Ellipse_5535" data-name="Ellipse 5535" transform="translate(3202 1630)" fill="none" stroke="#838383" stroke-width="2">
        <circle cx="5.5" cy="5.5" r="5.5" stroke="none"/>
        <circle cx="5.5" cy="5.5" r="4.5" fill="none"/>
      </g>
      <g id="Ellipse_5549" data-name="Ellipse 5549" transform="translate(3166 1646)" fill="none" stroke="#838383" stroke-width="2">
        <circle cx="4" cy="4" r="4" stroke="none"/>
        <circle cx="4" cy="4" r="3" fill="none"/>
      </g>
      <g id="Ellipse_5534" data-name="Ellipse 5534" transform="translate(3389 1791)" fill="none" stroke="#838383" stroke-width="2">
        <circle cx="9" cy="9" r="9" stroke="none"/>
        <circle cx="9" cy="9" r="8" fill="none"/>
      </g>
      <g id="Ellipse_5537" data-name="Ellipse 5537" transform="translate(3160 1720)" fill="none" stroke="#838383" stroke-width="2">
        <circle cx="8.5" cy="8.5" r="8.5" stroke="none"/>
        <circle cx="8.5" cy="8.5" r="7.5" fill="none"/>
      </g>
      <g id="Ellipse_5536" data-name="Ellipse 5536" transform="translate(3230 1645)" fill="none" stroke="#838383" stroke-width="2">
        <circle cx="9" cy="9" r="9" stroke="none"/>
        <circle cx="9" cy="9" r="8" fill="none"/>
      </g>
      <g id="Gruppe_26024" data-name="Gruppe 26024" transform="translate(3352.287 1640.053)">
        <g id="Gruppe_26023" data-name="Gruppe 26023" transform="translate(0 2.809)">
          <g id="Gruppe_26022" data-name="Gruppe 26022" transform="translate(8.919 24.641)">
            <path id="Pfad_28643" data-name="Pfad 28643" d="M-114.6,460.917V446.751c3.214-3.544,3.218-4.872,4.4-11.972" transform="translate(150.261 -434.779)" fill="none" stroke="#838383" stroke-linecap="round" stroke-miterlimit="10" stroke-width="2"/>
            <path id="Pfad_28644" data-name="Pfad 28644" d="M-179.256,469.97l-1.21-6.451,6.183-8.338c5.85-1.63,11.423.18,21.255.953L-153,469.97" transform="translate(180.466 -443.832)" fill="none" stroke="#838383" stroke-linecap="round" stroke-miterlimit="10" stroke-width="2"/>
          </g>
          <path id="Pfad_28645" data-name="Pfad 28645" d="M-193.364,410.111c3.59-9.12-8.874-12.485-.8-20.844" transform="translate(196.94 -389.267)" fill="none" stroke="#838383" stroke-linecap="round" stroke-miterlimit="10" stroke-width="2"/>
        </g>
        <path id="Pfad_28646" data-name="Pfad 28646" d="M-146.805,405.386a9.4,9.4,0,0,0,8.28-.975c1.386-.964,3.394-4.718,2.958-4.914l-2.271-2.019s.11-4.1-1.583-5.642c-2.084-1.894-5.714-2.213-5.714-2.213l-.832-5.544a12.92,12.92,0,0,0-5.266,3.035,9.78,9.78,0,0,0-2.011,4.105l-7,11.925-27.439,2.2a6.661,6.661,0,0,0-4.806,2.384,11,11,0,0,0-2.145,4.184c-.665,2.4.338,6.646,2.784,11.512l-3.179,5.467,1.465,8.773" transform="translate(196.062 -384.079)" fill="none" stroke="#838383" stroke-linecap="round" stroke-linejoin="round" stroke-width="2"/>
      </g>
      <g id="Ellipse_5538" data-name="Ellipse 5538" transform="translate(3315 1719)" fill="none" stroke="#838383" stroke-width="2">
        <circle cx="9" cy="9" r="9" stroke="none"/>
        <circle cx="9" cy="9" r="8" fill="none"/>
      </g>
      <g id="Ellipse_5539" data-name="Ellipse 5539" transform="translate(3353 1710)" fill="none" stroke="#838383" stroke-width="2">
        <circle cx="5.5" cy="5.5" r="5.5" stroke="none"/>
        <circle cx="5.5" cy="5.5" r="4.5" fill="none"/>
      </g>
      <g id="Ellipse_5540" data-name="Ellipse 5540" transform="translate(3315 1645)" fill="none" stroke="#838383" stroke-width="2">
        <circle cx="5.5" cy="5.5" r="5.5" stroke="none"/>
        <circle cx="5.5" cy="5.5" r="4.5" fill="none"/>
      </g>
      <g id="Ellipse_5550" data-name="Ellipse 5550" transform="translate(3287 1626)" fill="none" stroke="#838383" stroke-width="2">
        <circle cx="4.5" cy="4.5" r="4.5" stroke="none"/>
        <circle cx="4.5" cy="4.5" r="3.5" fill="none"/>
      </g>
      <g id="Ellipse_5551" data-name="Ellipse 5551" transform="translate(3287 1736)" fill="none" stroke="#838383" stroke-width="2">
        <circle cx="4.5" cy="4.5" r="4.5" stroke="none"/>
        <circle cx="4.5" cy="4.5" r="3.5" fill="none"/>
      </g>
      <g id="Ellipse_5541" data-name="Ellipse 5541" transform="translate(3243 1729)" fill="none" stroke="#838383" stroke-width="2">
        <circle cx="5.5" cy="5.5" r="5.5" stroke="none"/>
        <circle cx="5.5" cy="5.5" r="4.5" fill="none"/>
      </g>
      <g id="Ellipse_5548" data-name="Ellipse 5548" transform="translate(3333 1779)" fill="none" stroke="#838383" stroke-width="2">
        <circle cx="5.5" cy="5.5" r="5.5" stroke="none"/>
        <circle cx="5.5" cy="5.5" r="4.5" fill="none"/>
      </g>
      <g id="Ellipse_5542" data-name="Ellipse 5542" transform="translate(3230 1579)" fill="none" stroke="#838383" stroke-width="2">
        <circle cx="4" cy="4" r="4" stroke="none"/>
        <circle cx="4" cy="4" r="3" fill="none"/>
      </g>
      <g id="Ellipse_5543" data-name="Ellipse 5543" transform="translate(3269 1560)" fill="none" stroke="#838383" stroke-width="2">
        <circle cx="9" cy="9" r="9" stroke="none"/>
        <circle cx="9" cy="9" r="8" fill="none"/>
      </g>
      <g id="Ellipse_5544" data-name="Ellipse 5544" transform="translate(3240 1801)" fill="none" stroke="#838383" stroke-width="2">
        <circle cx="5" cy="5" r="5" stroke="none"/>
        <circle cx="5" cy="5" r="4" fill="none"/>
      </g>
      <g id="Ellipse_5545" data-name="Ellipse 5545" transform="translate(3396 1598)" fill="none" stroke="#838383" stroke-width="2">
        <circle cx="9.5" cy="9.5" r="9.5" stroke="none"/>
        <circle cx="9.5" cy="9.5" r="8.5" fill="none"/>
      </g>
      <g id="Ellipse_5546" data-name="Ellipse 5546" transform="translate(3347 1619)" fill="none" stroke="#838383" stroke-width="2">
        <circle cx="6" cy="6" r="6" stroke="none"/>
        <circle cx="6" cy="6" r="5" fill="none"/>
      </g>
      <g id="Ellipse_5547" data-name="Ellipse 5547" transform="translate(3192 1740)" fill="none" stroke="#838383" stroke-width="2">
        <circle cx="4" cy="4" r="4" stroke="none"/>
        <circle cx="4" cy="4" r="3" fill="none"/>
      </g>
    </g>
  </g>
</svg>
