<?xml version="1.0" encoding="utf-8"?>
<!-- Generator: Adobe Illustrator 24.3.0, SVG Export Plug-In . SVG Version: 6.00 Build 0)  -->
<svg version="1.1" id="Ebene_1" xmlns="http://www.w3.org/2000/svg" xmlns:xlink="http://www.w3.org/1999/xlink" x="0px" y="0px"
	 viewBox="0 0 360 91" style="enable-background:new 0 0 360 91;" xml:space="preserve">
<style type="text/css">
	.st0{fill:#FFBC00;}
	.st1{fill:#FCBA00;}
</style>
<path class="st0" d="M-122.5-18.1c0,0,0.1,0,0.1,0v0C-122.4-18.1-122.5-18.1-122.5-18.1z"/>
<polygon class="st0" points="-99.4,-92.6 -99.4,-92.5 -99.4,-92.6 "/>
<polygon class="st0" points="-154.9,-8.8 -154.9,-8.8 -154.9,-8.8 "/>
<polygon class="st0" points="-172.3,-20 -172.4,-20 -172.3,-20 -172.3,-20.1 "/>
<polygon class="st0" points="-149.4,-94.1 -149.3,-94.1 -149.3,-94.1 "/>
<g>
	<path class="st1" d="M35.5,88c-0.5,0.3-0.2,0.5,0.2,0.7c0.4,0.2,1.2,0.4,1.4,0.1c0.5-0.9,1.8-0.3,2.6-0.5c0.4-0.1,0.8,0,0.9,0.3
		c0,0.3-0.3,0.4-0.8,0.4c-1.8-0.1-1.1,0.3-0.7,0.7c0.4,0.4-0.1,0.8-0.7,0.7c-1.1-0.1-2.4,0.1-3.1-0.6l-0.5-0.2l-0.9,0
		c-0.5-0.5,0.2-1.1,0-1.6c-1-0.6-0.7-1.1,0.8-1.4C36.6,86.8,36.6,87.3,35.5,88z"/>
	<path class="st1" d="M109.8,86.8c0.6,0,1.2-0.2,1.7-0.6c0.2-0.1,0.5-0.1,0.8-0.1c0.3,0,0.3,0.2,0.3,0.3c-0.1,0.9-1.6,1.7-3.2,1.8
		c-0.3-0.2-1.4,0.5-1.3-0.2C108.1,87.5,107.8,86.7,109.8,86.8z"/>
	<path class="st1" d="M42.8,88.4c0.9,0.2,2.3,0.2,2.1,1.1c-0.8-0.1-1.5-0.2-2.2-0.3c-0.5-0.1-0.7-0.2-0.6-0.5
		C42.2,88.5,42.5,88.3,42.8,88.4z"/>
	<path class="st1" d="M43.3,87.1c0-0.3,0.1-0.5,0.7-0.6c0.4,0,0.7,0.2,0.6,0.4c-0.1,0.4-0.5,0.7-0.9,0.6
		C43.3,87.5,43.3,87.2,43.3,87.1z"/>
	<path class="st1" d="M32.5,88.6c0.2-0.1,0.5,0,0.7,0.1c0.4,0.3-0.1,0.5-0.6,0.7c-0.1,0-0.3,0-0.4,0C32.3,89.1,32,88.8,32.5,88.6z"
		/>
	<path class="st1" d="M252.2,85.7c0.8-0.2,1.7-0.3,2.6-0.3c2.3,0.2,4.6,0.1,6.9-0.3c0.5-0.1,1,0,1.4,0.2c1.5,0.5,2.9,1.3,4.8,1.4
		c0.6,0.1,1.2,0,1.8-0.2c1.4-0.8,3.1-0.8,4.5,0c1.6,0.9,3.5,1,5.1,0c1.9-1,4.1-1.3,6.3-0.9c0.7,0.1,1.6,0,1.7,0.7
		c0.5,0.1,0.6,0.8,1.5,0.4c0.1-0.7,1.7-0.3,1.9-0.9c0.1-0.2,0.4-0.3,0.7-0.2c0.4,0.2,0.2,0.5,0,0.6c-0.9,0.3-1.1,0.9-1.7,1.2
		c-0.2,0.1-0.4,0.4-0.2,0.5c0.3,0.1,0.6,0.1,1,0.1c0.4,0,0.5-0.3,0.8-0.4c0.3-0.2,0.6-0.2,0.9-0.1c0.2,0.1,0.3,0.3,0.2,0.5l0,0.1
		c-0.2,0.5-0.9,0.5-1.6,0.6c-1.3,0.1-2.1-0.5-3.3-0.6c-2.1,0-4.1,0.8-6.3,0.5c-1.5,0.1-3,0.1-4.5-0.1c-2.2-0.3-4.7,0.2-6.7-0.7
		l-0.2,0c-2.5,0.3-4.9,0.2-7.4,0c-1-0.1-1.7-0.8-2.9-0.5c-0.7,0.2-1.5,0-2-0.5c-0.6-0.6-1.2-0.5-1.6,0.2c-0.1,0.2-0.4,0.3-0.7,0.3
		c-0.9,0-1.8,0.1-2.6,0c-0.4,0-1.2,0.1-1.2-0.4C251.4,86.5,251.3,86,252.2,85.7z"/>
	<path class="st1" d="M223,85.3c3-0.1,5.9-0.9,8.9-0.4c1.8,0.3,3.9-0.3,5.3,0.4c0.9-0.1,1.5-0.2,1.9,0.2c0.2,0.2,0,0.3-0.3,0.5
		c-1.5,0.9-3,1.7-5.2,0.9c-0.4-0.1-0.8-0.1-1.2,0c-3.2,0.2-6.3-0.3-9.5-0.1c-0.6,0-1.5,0-1.5-0.5C221.5,85.7,222.4,85.3,223,85.3z"
		/>
	<path class="st1" d="M157.7,84.6c0.4,0,1.5-0.1,1.5,0.4c0,0.5-1,0.9-1.8,1c-0.6,0.1-1.2-0.1-1.1-0.6
		C156.3,84.9,156.5,84.5,157.7,84.6z"/>
	<path class="st1" d="M243.9,85.4c0.5-0.1,1.3,0.1,1.2,0.5c0,0.6-0.9,0.3-1.4,0.4c-0.5-0.2-1.5,0.3-1.5-0.3
		C242.2,85.5,243.3,85.5,243.9,85.4z"/>
	<path class="st1" d="M322.4,82.9c-0.1,0.4-0.7,0.3-1.1,0.3c-0.3,0-0.7,0-0.7-0.3c0.2-0.3,0.7-0.4,1.1-0.3
		C322,82.5,322.5,82.6,322.4,82.9z"/>
	<path class="st0" d="M9.8,88c-1,0.2-0.5-0.5-1.1-0.6c0-0.2,0.4-0.4,0.7-0.5c0.9-0.2,1.1-0.6,0.6-0.8c-0.7-0.3-1.5-0.4-2.2-0.2
		c-0.2,0.1-0.3,0.1-0.5,0.2c-0.7-0.4-1-1.1-2.6-1.2c-0.8-0.1-1.6,0-2.3,0.3c-0.4-0.7,1.2-1.3,1.1-2c0-0.2,0.1-0.4-0.3-0.6
		C2.5,82.5,2.4,82.9,2,83c-0.7-0.4-1.6,0.6-2,0.5v5.9c2-0.1,0.8-1.5,2.7-1.9c0.2,0,0.4,0,0.6,0.1c0.7,0.2,1-0.3,1.5-0.4
		C5.4,88,3.6,87.6,3.6,88c-0.7,0.6-1.8,1.3,1,0.9c0.5,0,1,0.1,1.5,0.2c0.3,0.1,0.6,0,0.8-0.3c0.1-0.2-0.3-0.3-0.6-0.4
		c0-0.2,0-0.3,0.3-0.5c1.6-0.3,2.5,0.5,3.8,0.6c1,0.2,2,0.2,3,0C12.8,87.9,11.8,87.4,9.8,88z"/>
	<g>
		<path class="st0" d="M0,0v81.5c0.4,0.1,1.7-1.2,2.4-1.3c0.4,0,0.7-0.7,1-0.3c0.5,0.7,4,0.2,2.2,1.7C6.1,81.4,8.2,82.2,7,81l0,0
			c1,0,1.8,0.9,2.9,0c0.4-0.4,0.6-0.9,1.8-0.5c0.6,0.2,1.2,0.1,1.7-0.2c0.5-0.2,1.1-0.2,1.6,0c0.8,0.3,1.7,0.5,2.6,0.5l0.1,0.2
			l0,0.4c0.5,0.8,2.1,0.5,3,0.8c0.9-0.1,1.7,0.1,2.5,0.3c-0.1-0.1-0.1-0.3,0-0.4c0,0.1,0,0.3,0,0.4c1.9,0.1,3.1-0.9,4.9-0.8
			c0.5,0,1.1,0,1.1-0.2c-0.1-1.1,1.1-0.6,2-0.5c-0.3,0.2-0.8,0.4-0.4,0.7c-0.1,0.2-0.1,0.7-0.7,0.5c-1.9-0.6-0.4,0.5-1,0.5L28.6,83
			c-0.3,0-0.6,0.1-0.8,0.3c-1.2,0.1-2.2,0.3-1.2,1c0.7,0.5-0.9,0.6-0.8,1l-0.3,0.1c-2.8-0.4-2.6,0.9-3.4,1.7c-0.8,0-1.3-0.1-1.1-0.6
			c0.2-0.9-0.7-1.2-2.3-1c-1.4-0.6-3.2,0.1-4.7-0.3c-0.3-0.1-0.6,0.1-0.7,0.3c-0.1,0.3,0.2,0.4,0.7,0.5c1,0.2,2.1,0.2,3.1,0
			c0.1,0.7,0.3,1.5-1.9,1.2c-0.4-0.1-0.9,0-0.8,0.3l0,0.1c0.2,0.7,1,1,1.6,0.8c1-0.2,0.8,0,0.8,0.3c-0.6,0.1-1.4,0.6-1,0.6
			c0.8,0.1,1.6,0.7,2.7,0.2c1.8-0.9,1.8-1-0.5-1.7c2.4,0,4,0.2,5.1,1.3c0.5-1.1,2.5-0.4,3.5-0.9c-0.6-0.5-0.4-1.1-1-1.5
			c-0.3-0.2,0.3-0.3,0.6-0.5c1.1,0.2,2.2,0.2,3.3-0.1c0.8,0,0.9,0.3,0.9,0.6c-0.3,0.2-1.1,0.2-1,0.5s0.8,0.2,1.2,0.2
			c0.4,0,0.8-0.1,1.1,0.1c0,0.1,0.2,0.2,0.4,0.2c0.5,0,1.1-0.1,0.7-0.3c-0.6-0.3-0.5-0.9-1.6-1c1.2-0.6,2.4-1,3.6-1.3l0.1,0.3
			c0.7,0.2,0.5,0.9,1.7,0.6c0.1,0,0.2,0,0.4,0c-0.3,0.6,0.1,1,1.3,1.1c0.3,0.1,0.5,0.2,0.8,0.3c0.3,0.2,0.4,0.5,1,0.4
			c0.8-0.1,0.6-0.6,0.8-0.8c0.3-0.4-0.4-0.4-0.9-0.4c-0.5,0-0.8-0.1-0.9-0.4c1.5-0.3,3-0.4,4.5-0.4c1.7,0.1,2.6,0.7,3,1.5
			c0.5,0.8,1.2,1.5,2,2c0.2,0,0.4,0,0.6,0c0.3,0,0.8,0,0.8,0s3.7,0,5.5-0.2c0.1,0,0.2-0.1,0.3-0.1c1.9-0.6,0.8-1.6,1.3-2.4
			c0.6-0.3,1.3-0.5,2-0.4c0.3,0.1,1.3-0.1,1.1,0.2c-0.5,1.2,1,0.7,2,0.7l0.3,0c0.6,0,1.2,0,1.8,0l1.7,0.4c0.4,0.8-0.8,0.4-1.3,0.5
			c-1-0.1-1.9,0.6-2.9,0c-0.4-0.2-0.9-0.2-1.2,0.1c-0.2,0.3,0.2,0.5,0.7,0.6c0.7,0.1,1.4,0.2,2,0.5c0.9,0.4,1.9,0,2-0.8l1.9-0.1
			c1.5-0.1,1.3-0.4,0.3-0.9c1.5,0.1,1.8,0.5,1.3,1S68.6,89,69.7,89c1.7,0.1,3.3,0.3,5,0.2c0.7,0,1.4,0.1,1.9-0.3
			c0.5-0.2,1.1-0.3,1.6-0.5c0.7-0.7,1.8-0.9,2.8-0.6c0.4,0.1,0.7,0,1-0.2c1.3-0.5,2.2-1.2,4-1.3c0.5,0,0.7-0.3,0.6-0.6
			c0.7-0.5,0.9,0.2,1.4,0.1c1.3,0.4,2.8,0.4,4.1,0.1c0.3,0,0.5,0,0.8-0.1l2.2-0.1c-0.2,0.4-0.3,0.8-0.4,1.2c0,0.4-0.3,0.9,1,0.8
			c0.7,0,1.3-0.3,1.8-0.8c0.8-0.9,2.1-1.3,3.3-0.9c0.6,0,1.3-0.1,1.9-0.3c0.8-0.3,1.4-0.8,2.1,0.1c0.4,0.5,1.5,0,1.6-0.6l0.1-0.5
			c0.4,0.2,0.9,0.2,1.3,0.1c2.2,0.8,4.6,0.6,6.6-0.6c0.2,0,0.3,0,0.5,0l0.9,0.1c0.4,0.3,1.1,0,1.6,0.1l3.3-0.1c0.5,0,1,0,1.5,0
			c-1,0.9-3,1.2-3.8,2.1c-0.3,0.4-1.1-0.1-1.7-0.1c-0.9-0.7-1.8,0.1-2.7,0.1c-0.4,0-0.7,0.3-0.8,0.7c-0.1,0.4,0.5,0.5,1,0.6
			c1.4,0.4,1.3-0.6,2.2-0.7l3-0.1c0.6,0.7,1.6,0.9,2.4,0.5c0.5-0.2,1-0.2,1.5-0.1c1.3,0.3,1.6,0,1.5-0.8c0.6,0.5,0.4,1.2,1.7,1.2
			c1.1,0,2.1-0.4,2.8-1.2l0.1,0.2c0.9,0.5,1.8,0.2,2-0.3c0.5-1.2,2-1.2,3.8-1.2c-0.1,0.2-0.2,0.5-0.3,0.7c0,0.4,0.2,0.9,1.1,0.8
			c0.9-0.1,0.9-0.7,0.5-1.1c0.3-0.2,0.5-0.4,0.6-0.8c1.2,0.2,2.5,0.2,3.6-0.3c0.3-0.1,0.6-0.1,0.8,0.1c0.2,0.2,0.3,0.3,0.5,0.4
			l0,0.1c-0.3,0.3-0.9,0.5-0.8,0.9c-0.9,0.5-1.1,1-0.1,1.4c1.3,0.6,2.7,0.6,4,0.1c0.9-0.6,2.1-0.6,3-0.2c1.1,0.2,2.3,0.1,3.4-0.2
			c0.5-0.1,0.6-0.7,0.9-1c-0.9,0-1.6-0.6-2.6-0.2c-0.3,0.2-0.7,0.2-1.1,0.1c-0.4-0.2,0.1-0.4,0.2-0.6l0.1-0.2c0.3,0.3,1,0.1,1.3-0.1
			c2-0.8,4-1.2,6.2-1.3l0.1,0c0.3,0,0.7-0.1,1-0.1c0.5,0,1-0.1,1.5-0.2c0.2,0.3,0.6,0.7,0.8,1c0.2,0.4,1.2,0.2,1.8,0
			c0.6-0.2,0.8-0.2,1,0.1c0.2,0,0.5,0.1,0.7,0.1l0.1,0c-0.2,0.2-0.4,0.5-0.5,0.7c-0.3,0.5,0.5,0.5,1,0.5c0.8,0,1.6-0.3,2.3-0.9
			c0.8,0.1,1.6,0,2.4-0.1c0.1,0,0.2-0.1,0.4,0c2,0.1,3-0.8,3-0.8h0.1c2,1.5,2.9,0,4.3-0.4l0.2,0l0,0c0.8,0.2,0.6,0.7-0.4,1.1
			c-0.5,0.2-0.8,0.4-0.7,0.7c-0.5,0-0.9,0.1-1.3,0.4c-0.4-0.1-0.8-0.2-1.2-0.2c-0.5-0.4-1.2-0.5-1.9-0.4c-0.6,0.1-1.1,0.2-1.6,0.4
			c-0.4,0.1-1.3-0.1-1.2,0.5c0.1,0.4,0.6,0.7,1.5,0.6c0.2,0,0.4,0,0.7,0c0.5,0,1.1,0,1.5-0.2c0.2-0.1,0.5-0.2,0.7-0.2
			c0.7,0.1,1.4,0.1,2.1,0.1c0.5,0,1.1,0,1.6-0.2c0.4,0.4,0.8,0.9,2,0.3c0.5-0.2,1.1-0.4,1.7-0.4c1.3-0.3,1.5-0.7,0.5-1.2
			c-0.3-0.2-0.8-0.4-0.5-0.5l0.1,0c0.9,0.2,1.9,0.1,2.8-0.3c1.7-0.2,3.5-0.2,5.3-0.1c0.3,0.1,0.6,0.2,1,0.2c0.2,0.1,0.3,0.3-0.1,0.7
			c-0.1,0.1-0.2,0.2-0.3,0.3c-0.6-0.1-1.1-0.2-1.7-0.1c-1.1,0-2.1,0.1-3.2,0.1c-0.5,0-1,0-1,0.4c0,0.3,0.3,0.4,0.7,0.4
			c-0.3,0.1-0.5,0.2-0.5,0.5c0,0.3,0.1,0.5,0.7,0.6c0.6-0.3,1.1-0.7,1.6-1.1c0.4,0,0.7,0.1,1.1,0.2c-0.1,0.3-1.2,0.3-1.2,0.7
			c0.5,0.2,1.1,0.2,1.7,0.2c0.9,0,2.2,0.3,2.6-0.4c0.3,0.1,0.7,0,1,0c0.7-0.1,0.4-0.4,0.4-0.7c-0.3-1.7,0.1-1.9,3.1-1.8
			c1.9,0.1,3.9,0.1,5.8,0c-0.1,0.1-0.2,0.1-0.2,0.2c0.1,0.3,0.7,0.2,1.2,0.2c0.2,0,0.4,0,0.6,0c1.9,1.5,5,0.6,7.5,0.7
			c1.3,0.1,2.6,0,3.9,0.1c-0.3,0.1-0.5,0.2-0.7,0.4c-0.5,0.1-0.9,0.3-0.8,0.6c0.1,0.2,0.7,0.2,1.1,0.2c0.5-0.1,1-0.1,1.5-0.2
			c0.4-0.2,0.8-0.2,1.2-0.1l0.1,0c0.4,0.1,0.7-0.1,0.8-0.4c0.1-0.1,0-0.3-0.2-0.4c0.4,0,0.8,0,1.2,0c1.1,0.1,2.3-0.2,3.3-0.6
			c0.9-0.5,2-0.1,2.9-0.2c2.6-0.3,5.2-0.2,7.7-0.3c1.7,0,3.4,0.1,5.1,0.3c0.8,0.1,1.7,0.1,2.4-0.2c0.6-0.2,1.2-0.4,1.8-0.5
			c2.9,0,6-0.4,8.8,0.4l0.2,0c2.2-0.6,4.4-0.1,6.6-0.3c0.8,0,1.5,0,2.3,0c2.7,0.2,5.5,0.2,8.2,0.4c5.2,0.4,10.5,0.1,15.8,0.5
			c2.7,0.2,5.4,0.3,8,0c0.9,0.1,1.7,0.4,2.5,0.7l0.1,0.3c0.8,0.4,0,1.4,1.7,1.5c0,0.3,1.2,0.1,0.6,0.6c-0.3,0.3-1.2,0.6-0.5,1
			c0.7,0.4,1.5,0.4,2.2,0.2c1.8-0.7,3.5-0.2,5.2-0.2c0.3,0,0.6,0,0.9,0c1.6-0.2,3.2-0.3,4.9-0.1c1.6,0.3,3.1-0.4,4.8-0.4
			c0.9-0.2,1.9-0.5,2.8-0.8c1.7-0.5-0.1-0.7-0.7-1.1c0.8-0.1,1.4-0.1,2-0.2c0.7-0.1,1.4,0,1.6-0.6c0.2-0.4,1-0.3,1.5-0.3
			c1-0.1,2-0.1,3-0.1c0.7-0.1,1.4,0.2,2-0.1c0.4,0,0.7,0.2,1.1,0l0.2,0l0.2,0l0.1,0.1c-1.2,0.9-1.2,0.9,0.6,1.1
			c0.4,0.2,0.7,0.6-0.3,0.5c-1-0.1-1.9,0.1-2.8-0.1c-1.2,0.1-2.4,0.9-3.7,0.3c-0.3-0.1-0.5,0-0.7,0.2c-0.1,0.2,0.1,0.3,0.4,0.4
			c0.4,0.1,0.8,0.1,1.1,0.2c0.2,0.3-0.3,0.3-0.6,0.4c-0.7,0.3-1.3,0.6-0.5,1c0.5,0.3,0.7,0.9,2,0.3c1.3-0.6,3.1-0.3,4.6-0.3
			c1.4,0,2.8-0.5,4.3,0c0.5,0.2,0.9-0.5,1.4-0.8c0.7-0.4,1.1-1.3,2.2-0.1c1,0.8,2.4,1.1,3.7,1c1.9-0.1,3.8-0.1,5.7,0
			c2.5,0.3,5,0.4,7.6,0.1c2.2-0.2,4.4-0.2,6.6-0.4c0.6,0,1.3,0,1.9,0v-5.9c-1.7-1.2-4-1.2-6.3-1.1c-0.6,0-1.3,0.2-1.8,0.5
			c-0.1,0-0.3,0-0.5,0c-0.7-0.3-1.5-0.3-2.2,0l-0.2,0.1c-0.3,0-0.6,0-0.9-0.1c-0.1,0-0.3-0.1-0.4-0.1c-0.7-0.2-1.5-0.3-2.2-0.2
			l-0.1,0c-0.3,0-0.5,0.1-0.8,0.2c-1.2,0.3-2.5,0.3-3.7-0.1c-1.6-0.1-1,0.4-0.6,0.9c-0.3,0.3-1.3,0.3-1.1,0.9
			c-0.3,0.1-0.7,0.1-1-0.1c-0.3-0.2-0.6-0.3-0.9-0.2c-1.4,0.1-2.7,0.2-2.6-1c-1.3,0.7-2.8,0.6-4-0.1l1.2,0c1.1,0.3,2.1,0.4,2.5-0.6
			l-0.4-0.4c0.9-0.2,1.8-0.3,2.7-0.4c0.7,0,1.4,0,2.1,0c0.8,0,1.6,0,2.3-0.1l0.4,0c0.2,0,0.4,0,0.7-0.1c0.4,0,0.8-0.1,1.1-0.3
			c0.1,0,0.2-0.1,0.3-0.1c1.3-0.6,2.7-1.1,4.1-1.5c0.7-0.2,1.4-0.2,2,0c0.3,0.2,0.5,0.4,0.8,0.5c0.1,0.1,0.1,0.2,0.2,0.3
			c0.3,0.6,0.5,0.7,1.3,0.1l0.2-0.1c0.3,0,0.5-0.1,0.8-0.2c0.2-0.1,0.5,0,0.6,0.1c0.1,0.1,0.2,0.3,0.2,0.5c0,0.3,0.2,0.5,0.6,0.6
			c0.5,0.1,1-0.1,1.3-0.4c0.1-0.1,0.3-0.3,0.4-0.4c0.2-0.1,0.5-0.2,0.7-0.2c0.2,0.2,0.4,0.4,0.5,0.7c0.2,0.5,0.7,0.9,1.3,0.7
			c0.6-0.1,0.3-0.6,0.2-0.9c-0.1-0.2-0.1-0.4,0-0.6c0.2,0,0.3,0.1,0.5,0.1c0.3,0.5,0.5,0.8,0.7,1V0 M5.1,76.8L5.1,76.8L5.1,76.8
			L5.1,76.8z M31.6,82.2c0.1,0,0.2,0,0.3,0l0,0c0,0.1,0.2,0.1,0.3,0.2C31.8,82.5,31.7,82.4,31.6,82.2z M36.2,80.4L36.2,80.4
			L36.2,80.4l0.1,0L36.2,80.4z M36.3,80.2L36.3,80.2L36.3,80.2L36.3,80.2z M38,80.3l0.1-0.1l0.1,0L38,80.3z M39.6,84.2L39.6,84.2
			l-0.2,0.1L39.6,84.2L39.6,84.2z M48.8,87.7L48.8,87.7L48.8,87.7L48.8,87.7z M53.3,85.4c0-0.1,0-0.3,0.1-0.4
			C53.6,85.1,53.6,85.3,53.3,85.4z M73.5,86.5L73.5,86.5L73.5,86.5L73.5,86.5z M73.3,87.6c0.2-0.3,0.5-0.6,0.4-0.9
			C73.8,87,73.7,87.3,73.3,87.6z M90.7,84c0.2,0.1,0.3,0.2,0.5,0.2l0,0C90.9,84.2,90.7,84.1,90.7,84z M143.4,84.4
			c0.1-0.3,0.2-0.7,0.8-0.8l0,0c0.1,0,0.2,0,0.3,0C144.2,83.9,143.8,84.2,143.4,84.4z M202.8,83.2c0.3-0.1,0.6-0.1,0.9-0.2
			c0.6-0.2,1.3-0.2,1.9-0.1l0.1,0.1l0,0C204.8,83.1,203.8,83.2,202.8,83.2z M294.2,81.7L294.2,81.7c-0.1-0.1-0.1-0.2,0.1-0.3
			C294.3,81.5,294.2,81.6,294.2,81.7z M296.5,87.8l0-0.1l0.1,0L296.5,87.8z M338.7,86.1l-0.1,0.1l-0.1,0L338.7,86.1z M337.7,89.4
			L337.7,89.4l-0.1,0L337.7,89.4z M311,87.2c-0.1,0-0.2-0.1-0.3-0.1c-0.8-0.2-1.5-0.4-2.3-0.5c-0.8,0-1.6,0-2.4,0.1l0,0
			c-0.8-0.1-1.1-0.4-0.5-1c0.3-0.2,0.2-0.5,0.3-0.7l0.1,0c0.3,0,0.5,0,0.8,0c0.3,0,0.7,0,1,0c0.5,0.1,1,0.1,1.5,0.1
			c0.3,0,0.5,0.1,0.8,0.1c0.3,0,0.6,0.1,0.8,0.3l-0.1,0.1c0,0.5,0.1,0.9,0.3,1.4C311.3,87.2,311.2,87.2,311,87.2z M328.6,83.6
			c-0.1,0-0.2,0-0.3,0c0.1,0,0.2-0.1,0.4-0.1C328.7,83.5,328.7,83.5,328.6,83.6z M330.6,86.2l0.2-0.1c1.1,0,1.2-0.3,0.9-0.7l0.3,0.1
			c0.9,0,1.7,0,2.6-0.1l0.1,0c-0.1,0.6,0.3,1.1,0.7,1.6c-0.1,0-0.2,0-0.3,0l-0.1,0c-1.1-0.7-2.5-0.3-3.9-0.3l0,0
			c-0.2,0-0.4,0-0.7,0.1c0.3,0,0.5-0.3,0.5-0.6C330.8,86.3,330.7,86.3,330.6,86.2z M329.5,83l-0.5,0l0,0c-1.6-0.5-2.4-0.2-3.1,1.2
			l0,0.1c-1.7,0-3.3-0.2-5-0.2l-0.1,0c-0.1,0-0.3,0-0.4,0l0,0c-1.5-0.1-2.9,0.1-4.3,0.6c-0.9,0.1-1.8,0.1-2.7-0.1
			c0.2-0.7,1.3-0.7,2-1c0.1-0.1,0.3-0.1,0.5-0.2l0.2-0.1l1.3-0.1c0.4,0,1.1,0.2,1.1-0.3c0-0.3-0.6-0.4-1-0.5c-0.6-0.1-1.2-0.1-1.8,0
			c-0.3,0-0.6-0.1-0.9-0.2h0c-0.8-0.2-1.6-0.2-2.4-0.1c2.7-0.8,5.6-1,8.4-0.7c1.2,0.1,2.3,0,3.5-0.3c2.3-0.8,4.8-0.4,7.4-0.9
			c-0.6,0.9-0.6,1.6,0.7,2l0.3,0c0.3,0.1,0.8,0,1,0.2C332.4,82.7,330.7,82.1,329.5,83z"/>
	</g>
</g>
</svg>
