<svg xmlns="http://www.w3.org/2000/svg" width="21.601" height="21.6" viewBox="0 0 21.601 21.6">
  <g id="Gruppe_20870" data-name="Gruppe 20870" transform="translate(-141.4 -242)">
    <g id="Gruppe_14383" data-name="Gruppe 14383" transform="translate(601.073 730.129)">
      <g id="Gruppe_13914" data-name="Gruppe 13914" transform="translate(-459.673 -488.129)">
        <path id="Pfad_12944" data-name="Pfad 12944" d="M-456.092-467.235a12.256,12.256,0,0,1,0-17.314,12.256,12.256,0,0,1,17.314,0l-.815.815a11.1,11.1,0,0,0-15.685,0,11.1,11.1,0,0,0,0,15.685Z" transform="translate(459.673 488.129)" fill="#ffbc00"/>
      </g>
      <g id="Gruppe_13915" data-name="Gruppe 13915" transform="translate(-456.799 -485.254)">
        <path id="Pfad_12945" data-name="Pfad 12945" d="M-445.32-483.139a9.363,9.363,0,0,0-9.363,9.363,9.363,9.363,0,0,0,9.363,9.363,9.363,9.363,0,0,0,9.363-9.363A9.363,9.363,0,0,0-445.32-483.139Zm-.356,8.358h-1.582a1.719,1.719,0,0,0-.305-1.014,1.136,1.136,0,0,0-.925-.332,1.012,1.012,0,0,0-.87.445,1.963,1.963,0,0,0-.317,1.165v1.471a1.866,1.866,0,0,0,.346,1.173,1.139,1.139,0,0,0,.952.447,1,1,0,0,0,.831-.312,1.759,1.759,0,0,0,.279-1h1.582l.009.029a2.628,2.628,0,0,1-.728,1.88,2.754,2.754,0,0,1-1.974.649,2.884,2.884,0,0,1-2.111-.8,2.776,2.776,0,0,1-.813-2.073v-1.461a2.836,2.836,0,0,1,.782-2.07,2.71,2.71,0,0,1,2.031-.8,2.834,2.834,0,0,1,2.029.668,2.8,2.8,0,0,1,.793,1.9Zm6.337,1.736a2.776,2.776,0,0,1-.813,2.073,2.884,2.884,0,0,1-2.11.8,2.756,2.756,0,0,1-1.974-.649,2.63,2.63,0,0,1-.728-1.88l.009-.029h1.582a1.761,1.761,0,0,0,.279,1,1,1,0,0,0,.832.312,1.139,1.139,0,0,0,.952-.447,1.866,1.866,0,0,0,.346-1.173v-1.471a1.963,1.963,0,0,0-.317-1.165,1.012,1.012,0,0,0-.87-.445,1.136,1.136,0,0,0-.925.332,1.719,1.719,0,0,0-.305,1.014h-1.582l-.01-.029a2.8,2.8,0,0,1,.793-1.9,2.834,2.834,0,0,1,2.029-.668,2.709,2.709,0,0,1,2.031.8,2.836,2.836,0,0,1,.782,2.07Z" transform="translate(454.683 483.139)" fill="#ffbc00"/>
      </g>
    </g>
  </g>
</svg>
