<svg xmlns="http://www.w3.org/2000/svg" width="33.354" height="32.046" viewBox="0 0 33.354 32.046">
  <g id="Gruppe_20665" data-name="Gruppe 20665" transform="translate(-514.831 544.109)">
    <path id="Pfad_20644" data-name="Pfad 20644" d="M532.4-524.108l-.019-.125c4.678-1.914,9.452-11.193,9.452-18.877H519.571c0,7.7,4.793,17,9.478,18.886l-.02.115c.546.908-.111,4.286-1.238,6.234h-5.743v4.81h17.31v-4.81h-5.723C532.511-519.815,531.858-523.2,532.4-524.108Z" transform="translate(0.842)" fill="none" stroke="#ffbc00" stroke-linejoin="round" stroke-width="2"/>
    <g id="Gruppe_20664" data-name="Gruppe 20664" transform="translate(519.854 -539.592)">
      <path id="Pfad_20645" data-name="Pfad 20645" d="M526.939-530.492c7.381,5.461,13.78-4.136,4.73-8.874" transform="translate(-508.808 540.366)" fill="none" stroke="#ffbc00" stroke-miterlimit="10" stroke-width="2"/>
      <path id="Pfad_20646" data-name="Pfad 20646" d="M529.114-530.492c-7.381,5.461-13.78-4.136-4.73-8.874" transform="translate(-523.939 540.366)" fill="none" stroke="#ffbc00" stroke-miterlimit="10" stroke-width="2"/>
    </g>
  </g>
</svg>
