<?xml version="1.0" encoding="utf-8"?>
<!-- Generator: Adobe Illustrator 24.0.1, SVG Export Plug-In . SVG Version: 6.00 Build 0)  -->
<svg version="1.1" id="Ebene_1" xmlns="http://www.w3.org/2000/svg" xmlns:xlink="http://www.w3.org/1999/xlink" x="0px" y="0px"
	 viewBox="0 0 509.6 140.6" style="enable-background:new 0 0 509.6 140.6;" xml:space="preserve">
<style type="text/css">
	.st0{fill:#FFBC00;}
	.st1{fill:#424242;}
</style>
<g>
	<path class="st0" d="M117.9,86.2h-14.4V47.8c0-2.4-1.9-4.3-4.3-4.3s-4.3,1.9-4.3,4.3v7H83.5c-4.3,0-8.3,1.4-11.6,3.7
		c0-0.2-0.1-0.3-0.1-0.5c0.1-0.4,0.2-0.8,0.2-1.2V44.2c0-6.3,5.1-11.4,11.4-11.4c3.6,0,7,1.7,9.2,4.6c1.4,1.9,4.1,2.3,6,0.9
		c1.9-1.4,2.3-4.1,0.9-6c-3.8-5-9.8-8.1-16-8.1c-11,0-20,9-20,20v10.7H52.8c-11,0-20,9-20,20s9,20,20,20h10.7v17.3
		c0,2.4,1.9,4.3,4.3,4.3s4.3-1.9,4.3-4.3V94.8h45.8c2.4,0,4.3-1.9,4.3-4.3S120.3,86.2,117.9,86.2z M52.8,86.2
		c-6.3,0-11.4-5.1-11.4-11.4s5.1-11.4,11.4-11.4h14.3c-2.3,3.2-3.6,7.2-3.6,11.4v11.4H52.8z M72.1,74.8c0-6.3,5.1-11.4,11.4-11.4
		h11.3v22.8H72.1V74.8z"/>
	<g>
		<g>
			<path class="st1" d="M162.3,94.9c-11.1,0-20.6-5.9-20.6-19.3s9.5-19.3,20.6-19.3c5.2,0,10.5,1.3,14.2,4.9
				c0.6,0.8,1.1,1.5,1.1,2.6c0,2-1.5,3.4-3.4,3.4c-1.7,0-3.2-1.3-4.4-1.9c-2.2-1.4-4.8-1.8-7.5-1.8c-6.8,0-12.2,4-12.2,12.1
				c0,8.1,5.4,12.2,12.3,12.2c3.5,0,6.8-0.7,9.7-2.5c0.7-0.4,1.4-0.6,2.1-0.6c2.1,0,3.6,1.9,3.6,3.8c0,0.9-0.4,1.9-1.3,2.6
				C172.4,94,167.4,94.9,162.3,94.9z"/>
		</g>
		<g>
			<path class="st1" d="M217.9,94.9c-12.1,0-20.6-6.8-20.6-19.2c0-12.4,8.5-19.3,20.6-19.3c12.1,0,20.6,7,20.6,19.3
				C238.5,88,229.9,94.9,217.9,94.9z M217.9,63.1c-7,0-12.1,4.3-12.1,12.6s5.1,12.5,12.1,12.5S230,83.8,230,75.7
				C230,67.5,224.9,63.1,217.9,63.1z"/>
		</g>
		<g>
			<path class="st1" d="M284.7,74.3c0-8-4.3-10.7-9.5-10.7c-5.2,0-9.5,2.7-9.5,10.7v16.5c0,2.6-1.5,3.6-3.8,3.6
				c-2.3,0-3.8-1-3.8-3.6V74.3c0-11.2,6-17.9,17.1-17.9c11.1,0,17.1,6.6,17.1,17.9v16.5c0,2.6-1.5,3.6-3.8,3.6s-3.8-1-3.8-3.6
				L284.7,74.3L284.7,74.3z"/>
		</g>
		<g>
			<path class="st1" d="M319.5,80.3V91c0,2.2-1.9,3.4-3.8,3.4c-1.9,0-3.8-1.1-3.8-3.4V60.4c0.1-3.5,11.4-3.9,15.2-3.9
				c5.4,0,9.5,0.3,12.3,1.2c1.5,0.5,2.2,1.8,2.2,3.1c0,2-1.6,4-3.8,3.6c-2.4-0.5-6.2-0.8-9-0.8c-3.5,0-6.8,0.2-9.4,0.7v8.8h10.7
				c2.4,0,3.9,1.4,3.9,3.6c0,2-1.5,3.5-3.9,3.5L319.5,80.3L319.5,80.3z"/>
		</g>
		<g>
			<path class="st1" d="M361.2,60.5c0-2.2,1.6-3.6,3.8-3.6c2.1,0,3.8,1.5,3.8,3.6v30.2c0,2.2-1.9,3.6-3.8,3.6
				c-1.9,0-3.8-1.4-3.8-3.6V60.5z"/>
		</g>
		<g>
			<path class="st1" d="M388.4,60.5c0-3.4,10.2-4.1,14.5-4.1c13.8,0,20.2,6.1,20.2,19c0,13.7-7.2,19.2-20.4,19.2
				c-4.3,0-14.2-0.6-14.2-4.1L388.4,60.5L388.4,60.5z M395.8,87.5c1.2,0.3,3.2,0.8,6.4,0.8c8.4,0,12.6-3.3,12.6-12.8
				c0-10.7-5.2-12.8-12.3-12.8c-2.9,0-4.7,0.3-6.7,0.9V87.5z"/>
		</g>
		<g>
			<path class="st1" d="M469.2,60.4c0-2.2,1.6-3.6,3.8-3.6c2.2,0,3.8,1.3,3.8,3.6v18.1c0,10.4-6,16.4-17.1,16.4
				c-11.1,0-17.1-6-17.1-16.4V60.4c0-2.2,1.6-3.6,3.8-3.6c2.2,0,3.8,1.3,3.8,3.6v18.1c0,7.2,4.5,9.7,9.5,9.7c5,0,9.5-2.4,9.5-9.7
				L469.2,60.4L469.2,60.4z"/>
		</g>
	</g>
</g>
</svg>
