<svg xmlns="http://www.w3.org/2000/svg" xmlns:xlink="http://www.w3.org/1999/xlink" width="172" height="172" viewBox="0 0 172 172">
  <defs>
    <clipPath id="clip-path">
      <rect id="Rechteck_2905" width="172" height="172" transform="translate(-2815.5 -3473.1)" fill="#404040" stroke="#707070" stroke-width="1"/>
    </clipPath>
  </defs>
  <g id="Gruppe_25651" data-name="Gruppe 25651" transform="translate(2815.5 3473.1)">
    <rect id="Rechteck_2905-2" data-name="Rechteck_2905" width="172" height="172" transform="translate(-2815.5 -3473.1)" fill="#404040"/>
    <g id="Gruppe_maskieren_202" data-name="Gruppe maskieren 202" opacity="0.16" clip-path="url(#clip-path)">
      <g id="Gruppe_25650" data-name="Gruppe 25650">
        <g id="Gruppe_25595" data-name="Gruppe 25595" transform="translate(0 11.835)">
          <g id="Gruppe_20332-2" transform="translate(-2754.154 -3363.835)">
            <rect id="Rechteck_2909-2" width="28.365" height="28.365" fill="none" stroke="#838383" stroke-linecap="round" stroke-linejoin="round" stroke-miterlimit="10" stroke-width="1.5"/>
            <path id="Pfad_20537-2" d="M-631.188,22915.6c-3.879,0-8.081,1.533-9.212,5.092l3.313,4.283h11.8l3.313-4.283C-623.025,22917.133-627.309,22915.6-631.188,22915.6Z" transform="translate(645.329 -22911.881)" fill="none" stroke="#838383" stroke-linecap="round" stroke-linejoin="round" stroke-miterlimit="10" stroke-width="1.5"/>
            <line id="Linie_4726-2" y1="4.687" x2="1.697" transform="translate(13.334 7.838)" fill="none" stroke="#838383" stroke-linecap="round" stroke-linejoin="round" stroke-miterlimit="10" stroke-width="1.5"/>
          </g>
          <g id="Gruppe_20338-2" transform="translate(-2712.004 -3363.04)">
            <ellipse id="Ellipse_2433-2" cx="2.748" cy="2.748" rx="2.748" ry="2.748" transform="translate(18.344 15.597)" fill="none" stroke="#838383" stroke-linecap="round" stroke-linejoin="round" stroke-width="1.5"/>
            <g id="Gruppe_14065-2" transform="translate(0)">
              <path id="Pfad_13228-2" d="M-629.691,22913.3v6.3a8.449,8.449,0,0,1-8.4,8.4h0a8.449,8.449,0,0,1-8.4-8.4v-6.3" transform="translate(646.5 -22911.443)" fill="none" stroke="#838383" stroke-linecap="round" stroke-linejoin="round" stroke-width="1.5"/>
              <path id="Rechteck_2246-2" d="M-644.884,22911h.485a1.621,1.621,0,0,1,1.616,1.617v3.15a1.622,1.622,0,0,1-1.616,1.617h-.485a1.622,1.622,0,0,1-1.616-1.617v-3.15A1.621,1.621,0,0,1-644.884,22911Z" transform="translate(646.5 -22911)" fill="none" stroke="#838383" stroke-linecap="round" stroke-linejoin="round" stroke-width="1.5"/>
              <path id="Rechteck_2247-2" d="M-628.684,22911h.485a1.621,1.621,0,0,1,1.616,1.617v3.15a1.622,1.622,0,0,1-1.616,1.617h-.485a1.622,1.622,0,0,1-1.616-1.617v-3.15A1.621,1.621,0,0,1-628.684,22911Z" transform="translate(643.392 -22911)" fill="none" stroke="#838383" stroke-linecap="round" stroke-linejoin="round" stroke-width="1.5"/>
            </g>
            <path id="Pfad_13229-2" d="M-623.393,22936.688a6.313,6.313,0,0,1-6.3,6.3h0a6.313,6.313,0,0,1-6.3-6.3V22932" transform="translate(644.485 -22915.027)" fill="none" stroke="#838383" stroke-linecap="round" stroke-linejoin="round" stroke-width="1.5"/>
          </g>
          <g id="Gruppe_20339-2" transform="translate(-2847.992 -3363.802)">
            <g id="Gruppe_19277-2" transform="translate(2.578)">
              <path id="Pfad_19477-2" d="M-613,22915.9l.889,4.688a2.211,2.211,0,0,1-1.7,2.586l-.4.078a2.209,2.209,0,0,1-2.586-1.7" transform="translate(640.882 -22911.975)" fill="none" stroke="#838383" stroke-linecap="round" stroke-miterlimit="10" stroke-width="1.5"/>
              <path id="Pfad_19478-2" d="M-615.1,22943.205v-8.244a3.168,3.168,0,0,0,1.212-2.262l.97-3.8" transform="translate(640.556 -22914.471)" fill="none" stroke="#838383" stroke-linecap="round" stroke-miterlimit="10" stroke-width="1.5"/>
              <path id="Pfad_19479-2" d="M-640.719,22944.152l-.081-3.795,4.526-6.143c3.879-1.455,5.657,1.857,11.394,2.264l.081,7.594" transform="translate(645.487 -22915.418)" fill="none" stroke="#838383" stroke-linecap="round" stroke-miterlimit="10" stroke-width="1.5"/>
              <path id="Pfad_19480-2" d="M-614.356,22920.057c2.344.486,3.071-1.937,3.96-3.635.242-.4,0-.729-.646-.969-.889-.406-2.1-.811-3.475-1.373a3.988,3.988,0,0,0-3.313-2.91c-2.505-.564-4.041.807-5.253,2.586-.4.566-1.535,4.2-2.424,5.172l-1.616,1.293-15.193.729a4.286,4.286,0,0,0-2.828,1.373,5.723,5.723,0,0,0-1.212,2.424c-.4,1.375.162,3.881,1.616,6.707l-1.859,3.15.242,5.094" transform="translate(646.6 -22911.041)" fill="none" stroke="#838383" stroke-linecap="round" stroke-miterlimit="10" stroke-width="1.5"/>
            </g>
            <path id="Pfad_19481-2" d="M-639.8,22921.707s-7.758-.16-6.627-6.705" transform="translate(646.54 -22911.805)" fill="none" stroke="#838383" stroke-linecap="round" stroke-miterlimit="10" stroke-width="1.5"/>
          </g>
          <g id="Gruppe_20339-2-2" data-name="Gruppe_20339-2" transform="translate(-2675.992 -3363.802)">
            <g id="Gruppe_19277-2-2" data-name="Gruppe_19277-2" transform="translate(2.578)">
              <path id="Pfad_19477-2-2" data-name="Pfad_19477-2" d="M-613,22915.9l.889,4.688a2.211,2.211,0,0,1-1.7,2.586l-.4.078a2.209,2.209,0,0,1-2.586-1.7" transform="translate(640.882 -22911.975)" fill="none" stroke="#838383" stroke-linecap="round" stroke-miterlimit="10" stroke-width="1.5"/>
              <path id="Pfad_19478-2-2" data-name="Pfad_19478-2" d="M-615.1,22943.205v-8.244a3.168,3.168,0,0,0,1.212-2.262l.97-3.8" transform="translate(640.556 -22914.471)" fill="none" stroke="#838383" stroke-linecap="round" stroke-miterlimit="10" stroke-width="1.5"/>
              <path id="Pfad_19479-2-2" data-name="Pfad_19479-2" d="M-640.719,22944.152l-.081-3.795,4.526-6.143c3.879-1.455,5.657,1.857,11.394,2.264l.081,7.594" transform="translate(645.487 -22915.418)" fill="none" stroke="#838383" stroke-linecap="round" stroke-miterlimit="10" stroke-width="1.5"/>
              <path id="Pfad_19480-2-2" data-name="Pfad_19480-2" d="M-614.356,22920.057c2.344.486,3.071-1.937,3.96-3.635.242-.4,0-.729-.646-.969-.889-.406-2.1-.811-3.475-1.373a3.988,3.988,0,0,0-3.313-2.91c-2.505-.564-4.041.807-5.253,2.586-.4.566-1.535,4.2-2.424,5.172l-1.616,1.293-15.193.729a4.286,4.286,0,0,0-2.828,1.373,5.723,5.723,0,0,0-1.212,2.424c-.4,1.375.162,3.881,1.616,6.707l-1.859,3.15.242,5.094" transform="translate(646.6 -22911.041)" fill="none" stroke="#838383" stroke-linecap="round" stroke-miterlimit="10" stroke-width="1.5"/>
            </g>
            <path id="Pfad_19481-2-2" data-name="Pfad_19481-2" d="M-639.8,22921.707s-7.758-.16-6.627-6.705" transform="translate(646.54 -22911.805)" fill="none" stroke="#838383" stroke-linecap="round" stroke-miterlimit="10" stroke-width="1.5"/>
          </g>
          <g id="Gruppe_20340-2" transform="translate(-2796.577 -3363.835)">
            <g id="Gruppe_10169-2" transform="translate(0.386)">
              <path id="Pfad_9861-2" d="M-631.954,22921.748l-3.717,3.717-10.829-10.748,3.717-3.717Z" transform="translate(646.5 -22911)" fill="none" stroke="#838383" stroke-linecap="round" stroke-linejoin="round" stroke-width="1.5"/>
              <line id="Linie_2640-2" x2="3.717" y2="3.717" transform="translate(12.93 12.849)" fill="none" stroke="#838383" stroke-linecap="round" stroke-linejoin="round" stroke-width="1.5"/>
            </g>
            <path id="Pfad_9862-2" d="M-625.7,22939.979a11.427,11.427,0,0,1-6.788,2.262h0a11.329,11.329,0,0,1-11.314-11.232v-2.1a8.861,8.861,0,0,1,.323-2.5" transform="translate(645.982 -22913.957)" fill="none" stroke="#838383" stroke-linecap="round" stroke-linejoin="round" stroke-width="1.5"/>
            <line id="Linie_2641-2" x2="10.99" transform="translate(16.405 21.415)" fill="none" stroke="#838383" stroke-linecap="round" stroke-linejoin="round" stroke-width="1.5"/>
            <line id="Linie_2642-2" x2="28.284" transform="translate(0 28.365)" fill="none" stroke="#838383" stroke-linecap="round" stroke-linejoin="round" stroke-width="1.5"/>
            <ellipse id="Ellipse_2106-2" cx="2.344" cy="2.263" rx="2.344" ry="2.263" transform="translate(0.889 7.677)" fill="none" stroke="#838383" stroke-linecap="round" stroke-linejoin="round" stroke-width="1.5"/>
            <ellipse id="Ellipse_2107-2" cx="2.586" cy="2.586" rx="2.586" ry="2.586" transform="translate(19.961 21.576)" fill="none" stroke="#838383" stroke-linecap="round" stroke-linejoin="round" stroke-width="1.5"/>
          </g>
        </g>
        <g id="Gruppe_25597" data-name="Gruppe 25597" transform="translate(0 3.835)">
          <g id="Gruppe_20332-2-2" data-name="Gruppe_20332-2" transform="translate(-2754.154 -3441.835)">
            <rect id="Rechteck_2909-2-2" data-name="Rechteck_2909-2" width="28.365" height="28.365" fill="none" stroke="#838383" stroke-linecap="round" stroke-linejoin="round" stroke-miterlimit="10" stroke-width="1.5"/>
            <path id="Pfad_20537-2-2" data-name="Pfad_20537-2" d="M-631.188,22915.6c-3.879,0-8.081,1.533-9.212,5.092l3.313,4.283h11.8l3.313-4.283C-623.025,22917.133-627.309,22915.6-631.188,22915.6Z" transform="translate(645.329 -22911.881)" fill="none" stroke="#838383" stroke-linecap="round" stroke-linejoin="round" stroke-miterlimit="10" stroke-width="1.5"/>
            <line id="Linie_4726-2-2" data-name="Linie_4726-2" y1="4.687" x2="1.697" transform="translate(13.334 7.838)" fill="none" stroke="#838383" stroke-linecap="round" stroke-linejoin="round" stroke-miterlimit="10" stroke-width="1.5"/>
          </g>
          <g id="Gruppe_20338-2-2" data-name="Gruppe_20338-2" transform="translate(-2712.004 -3441.04)">
            <ellipse id="Ellipse_2433-2-2" data-name="Ellipse_2433-2" cx="2.748" cy="2.748" rx="2.748" ry="2.748" transform="translate(18.344 15.597)" fill="none" stroke="#838383" stroke-linecap="round" stroke-linejoin="round" stroke-width="1.5"/>
            <g id="Gruppe_14065-2-2" data-name="Gruppe_14065-2" transform="translate(0)">
              <path id="Pfad_13228-2-2" data-name="Pfad_13228-2" d="M-629.691,22913.3v6.3a8.449,8.449,0,0,1-8.4,8.4h0a8.449,8.449,0,0,1-8.4-8.4v-6.3" transform="translate(646.5 -22911.443)" fill="none" stroke="#838383" stroke-linecap="round" stroke-linejoin="round" stroke-width="1.5"/>
              <path id="Rechteck_2246-2-2" data-name="Rechteck_2246-2" d="M-644.884,22911h.485a1.621,1.621,0,0,1,1.616,1.617v3.15a1.622,1.622,0,0,1-1.616,1.617h-.485a1.622,1.622,0,0,1-1.616-1.617v-3.15A1.621,1.621,0,0,1-644.884,22911Z" transform="translate(646.5 -22911)" fill="none" stroke="#838383" stroke-linecap="round" stroke-linejoin="round" stroke-width="1.5"/>
              <path id="Rechteck_2247-2-2" data-name="Rechteck_2247-2" d="M-628.684,22911h.485a1.621,1.621,0,0,1,1.616,1.617v3.15a1.622,1.622,0,0,1-1.616,1.617h-.485a1.622,1.622,0,0,1-1.616-1.617v-3.15A1.621,1.621,0,0,1-628.684,22911Z" transform="translate(643.392 -22911)" fill="none" stroke="#838383" stroke-linecap="round" stroke-linejoin="round" stroke-width="1.5"/>
            </g>
            <path id="Pfad_13229-2-2" data-name="Pfad_13229-2" d="M-623.393,22936.688a6.313,6.313,0,0,1-6.3,6.3h0a6.313,6.313,0,0,1-6.3-6.3V22932" transform="translate(644.485 -22915.027)" fill="none" stroke="#838383" stroke-linecap="round" stroke-linejoin="round" stroke-width="1.5"/>
          </g>
          <g id="Gruppe_20339-2-3" data-name="Gruppe_20339-2" transform="translate(-2847.992 -3441.802)">
            <g id="Gruppe_19277-2-3" data-name="Gruppe_19277-2" transform="translate(2.578)">
              <path id="Pfad_19477-2-3" data-name="Pfad_19477-2" d="M-613,22915.9l.889,4.688a2.211,2.211,0,0,1-1.7,2.586l-.4.078a2.209,2.209,0,0,1-2.586-1.7" transform="translate(640.882 -22911.975)" fill="none" stroke="#838383" stroke-linecap="round" stroke-miterlimit="10" stroke-width="1.5"/>
              <path id="Pfad_19478-2-3" data-name="Pfad_19478-2" d="M-615.1,22943.205v-8.244a3.168,3.168,0,0,0,1.212-2.262l.97-3.8" transform="translate(640.556 -22914.471)" fill="none" stroke="#838383" stroke-linecap="round" stroke-miterlimit="10" stroke-width="1.5"/>
              <path id="Pfad_19479-2-3" data-name="Pfad_19479-2" d="M-640.719,22944.152l-.081-3.795,4.526-6.143c3.879-1.455,5.657,1.857,11.394,2.264l.081,7.594" transform="translate(645.487 -22915.418)" fill="none" stroke="#838383" stroke-linecap="round" stroke-miterlimit="10" stroke-width="1.5"/>
              <path id="Pfad_19480-2-3" data-name="Pfad_19480-2" d="M-614.356,22920.057c2.344.486,3.071-1.937,3.96-3.635.242-.4,0-.729-.646-.969-.889-.406-2.1-.811-3.475-1.373a3.988,3.988,0,0,0-3.313-2.91c-2.505-.564-4.041.807-5.253,2.586-.4.566-1.535,4.2-2.424,5.172l-1.616,1.293-15.193.729a4.286,4.286,0,0,0-2.828,1.373,5.723,5.723,0,0,0-1.212,2.424c-.4,1.375.162,3.881,1.616,6.707l-1.859,3.15.242,5.094" transform="translate(646.6 -22911.041)" fill="none" stroke="#838383" stroke-linecap="round" stroke-miterlimit="10" stroke-width="1.5"/>
            </g>
            <path id="Pfad_19481-2-3" data-name="Pfad_19481-2" d="M-639.8,22921.707s-7.758-.16-6.627-6.705" transform="translate(646.54 -22911.805)" fill="none" stroke="#838383" stroke-linecap="round" stroke-miterlimit="10" stroke-width="1.5"/>
          </g>
          <g id="Gruppe_20339-2-4" data-name="Gruppe_20339-2" transform="translate(-2675.992 -3441.802)">
            <g id="Gruppe_19277-2-4" data-name="Gruppe_19277-2" transform="translate(2.578)">
              <path id="Pfad_19477-2-4" data-name="Pfad_19477-2" d="M-613,22915.9l.889,4.688a2.211,2.211,0,0,1-1.7,2.586l-.4.078a2.209,2.209,0,0,1-2.586-1.7" transform="translate(640.882 -22911.975)" fill="none" stroke="#838383" stroke-linecap="round" stroke-miterlimit="10" stroke-width="1.5"/>
              <path id="Pfad_19478-2-4" data-name="Pfad_19478-2" d="M-615.1,22943.205v-8.244a3.168,3.168,0,0,0,1.212-2.262l.97-3.8" transform="translate(640.556 -22914.471)" fill="none" stroke="#838383" stroke-linecap="round" stroke-miterlimit="10" stroke-width="1.5"/>
              <path id="Pfad_19479-2-4" data-name="Pfad_19479-2" d="M-640.719,22944.152l-.081-3.795,4.526-6.143c3.879-1.455,5.657,1.857,11.394,2.264l.081,7.594" transform="translate(645.487 -22915.418)" fill="none" stroke="#838383" stroke-linecap="round" stroke-miterlimit="10" stroke-width="1.5"/>
              <path id="Pfad_19480-2-4" data-name="Pfad_19480-2" d="M-614.356,22920.057c2.344.486,3.071-1.937,3.96-3.635.242-.4,0-.729-.646-.969-.889-.406-2.1-.811-3.475-1.373a3.988,3.988,0,0,0-3.313-2.91c-2.505-.564-4.041.807-5.253,2.586-.4.566-1.535,4.2-2.424,5.172l-1.616,1.293-15.193.729a4.286,4.286,0,0,0-2.828,1.373,5.723,5.723,0,0,0-1.212,2.424c-.4,1.375.162,3.881,1.616,6.707l-1.859,3.15.242,5.094" transform="translate(646.6 -22911.041)" fill="none" stroke="#838383" stroke-linecap="round" stroke-miterlimit="10" stroke-width="1.5"/>
            </g>
            <path id="Pfad_19481-2-4" data-name="Pfad_19481-2" d="M-639.8,22921.707s-7.758-.16-6.627-6.705" transform="translate(646.54 -22911.805)" fill="none" stroke="#838383" stroke-linecap="round" stroke-miterlimit="10" stroke-width="1.5"/>
          </g>
          <g id="Gruppe_20340-2-2" data-name="Gruppe_20340-2" transform="translate(-2796.577 -3441.835)">
            <g id="Gruppe_10169-2-2" data-name="Gruppe_10169-2" transform="translate(0.386)">
              <path id="Pfad_9861-2-2" data-name="Pfad_9861-2" d="M-631.954,22921.748l-3.717,3.717-10.829-10.748,3.717-3.717Z" transform="translate(646.5 -22911)" fill="none" stroke="#838383" stroke-linecap="round" stroke-linejoin="round" stroke-width="1.5"/>
              <line id="Linie_2640-2-2" data-name="Linie_2640-2" x2="3.717" y2="3.717" transform="translate(12.93 12.849)" fill="none" stroke="#838383" stroke-linecap="round" stroke-linejoin="round" stroke-width="1.5"/>
            </g>
            <path id="Pfad_9862-2-2" data-name="Pfad_9862-2" d="M-625.7,22939.979a11.427,11.427,0,0,1-6.788,2.262h0a11.329,11.329,0,0,1-11.314-11.232v-2.1a8.861,8.861,0,0,1,.323-2.5" transform="translate(645.982 -22913.957)" fill="none" stroke="#838383" stroke-linecap="round" stroke-linejoin="round" stroke-width="1.5"/>
            <line id="Linie_2641-2-2" data-name="Linie_2641-2" x2="10.99" transform="translate(16.405 21.415)" fill="none" stroke="#838383" stroke-linecap="round" stroke-linejoin="round" stroke-width="1.5"/>
            <line id="Linie_2642-2-2" data-name="Linie_2642-2" x2="28.284" transform="translate(0 28.365)" fill="none" stroke="#838383" stroke-linecap="round" stroke-linejoin="round" stroke-width="1.5"/>
            <ellipse id="Ellipse_2106-2-2" data-name="Ellipse_2106-2" cx="2.344" cy="2.263" rx="2.344" ry="2.263" transform="translate(0.889 7.677)" fill="none" stroke="#838383" stroke-linecap="round" stroke-linejoin="round" stroke-width="1.5"/>
            <ellipse id="Ellipse_2107-2-2" data-name="Ellipse_2107-2" cx="2.586" cy="2.586" rx="2.586" ry="2.586" transform="translate(19.961 21.576)" fill="none" stroke="#838383" stroke-linecap="round" stroke-linejoin="round" stroke-width="1.5"/>
          </g>
        </g>
        <g id="Gruppe_20336-2" transform="translate(-2828.717 -3305.545)">
          <path id="Pfad_20545-2" d="M-606.741,22939.484H-646.5l4.2-14.385h31.517Z" transform="translate(646.5 -22913.787)" fill="none" stroke="#838383" stroke-linecap="round" stroke-linejoin="round" stroke-miterlimit="10" stroke-width="1.5"/>
          <path id="Pfad_20546-2" d="M-612.436,22922.008a3.907,3.907,0,0,0,.808-2.342,3.791,3.791,0,0,0-3.8-3.8h0a4.417,4.417,0,0,0-2.344.887,4.564,4.564,0,0,0,.242-1.453,4.172,4.172,0,0,0-4.2-4.2,4.256,4.256,0,0,0-4.2,3.553,4.086,4.086,0,0,0-4.041-3.393,4.054,4.054,0,0,0-4.041,4.045h0a5.552,5.552,0,0,0,.4,1.936,2.39,2.39,0,0,0-1.94-.646,3.264,3.264,0,0,0-3.152,3.152,3.1,3.1,0,0,0,1.293,2.5" transform="translate(645.003 -22911.102)" fill="none" stroke="#838383" stroke-linecap="round" stroke-linejoin="round" stroke-miterlimit="10" stroke-width="1.5"/>
        </g>
        <g id="Gruppe_20336-2-2" data-name="Gruppe_20336-2" transform="translate(-2656.8 -3305.545)">
          <path id="Pfad_20545-2-2" data-name="Pfad_20545-2" d="M-606.741,22939.484H-646.5l4.2-14.385h31.517Z" transform="translate(646.5 -22913.787)" fill="none" stroke="#838383" stroke-linecap="round" stroke-linejoin="round" stroke-miterlimit="10" stroke-width="1.5"/>
          <path id="Pfad_20546-2-2" data-name="Pfad_20546-2" d="M-612.436,22922.008a3.907,3.907,0,0,0,.808-2.342,3.791,3.791,0,0,0-3.8-3.8h0a4.417,4.417,0,0,0-2.344.887,4.564,4.564,0,0,0,.242-1.453,4.172,4.172,0,0,0-4.2-4.2,4.256,4.256,0,0,0-4.2,3.553,4.086,4.086,0,0,0-4.041-3.393,4.054,4.054,0,0,0-4.041,4.045h0a5.552,5.552,0,0,0,.4,1.936,2.39,2.39,0,0,0-1.94-.646,3.264,3.264,0,0,0-3.152,3.152,3.1,3.1,0,0,0,1.293,2.5" transform="translate(645.003 -22911.102)" fill="none" stroke="#838383" stroke-linecap="round" stroke-linejoin="round" stroke-miterlimit="10" stroke-width="1.5"/>
        </g>
        <g id="Gruppe_20337-2" transform="translate(-2779.191 -3306.422)">
          <path id="Icon-32-2" d="M-615.307,22916.736a7.779,7.779,0,0,0-7.354-5.736h-.323a8.759,8.759,0,0,0-7.839,5.25,8.759,8.759,0,0,0-7.839-5.25,7.69,7.69,0,0,0-7.839,7.594h0v.324c0,6.145,6.627,10.99,15.677,20.041,4.283-4.281,8.081-7.676,10.829-10.666" transform="translate(646.5 -22910.998)" fill="none" stroke="#838383" stroke-linecap="round" stroke-linejoin="round" stroke-width="1.5"/>
          <path id="Pfad_13547-2" d="M-631.7,22923.754h3.879l2.505,6.141,4.283-11.4,1.131,5.256h9.051" transform="translate(643.66 -22912.436)" fill="none" stroke="#838383" stroke-linecap="round" stroke-linejoin="round" stroke-width="1.5"/>
        </g>
        <g id="Gruppe_22027" transform="translate(-2734.396 -3309.23)">
          <path id="Pfad_25937" d="M-820.677,24064.23H-844s2.672-1.211,2.672-13.844c0-5.51,3.563-9.883,8.989-9.883h0c5.507,0,8.989,4.455,8.989,9.883C-823.349,24063.26-820.677,24064.23-820.677,24064.23Z" transform="translate(844 -24037.588)" fill="none" stroke="#838383" stroke-linecap="round" stroke-linejoin="round" stroke-width="1.5"/>
          <line id="Linie_5781" y1="2.915" transform="translate(11.662 0)" fill="none" stroke="#838383" stroke-linecap="round" stroke-linejoin="round" stroke-width="1.5"/>
          <path id="Pfad_25938" d="M-832.4,24074a4.029,4.029,0,0,0,4.616,0" transform="translate(841.794 -24043.955)" fill="none" stroke="#838383" stroke-linecap="round" stroke-linejoin="round" stroke-width="1.5"/>
        </g>
        <g id="Gruppe_25644" data-name="Gruppe 25644" transform="translate(-3043 -3614.395)">
          <path id="Pfad_28487" data-name="Pfad 28487" d="M364.935,337.4c-2.782,1.652-6.173-1.565-8.868-2.434s-7.477-.087-8.695-3.13c-1.652-4.26,8.26-12.433,13.129-10.868C365.283,322.449,368.848,335.143,364.935,337.4Z" transform="translate(-0.597 -2.269)" fill="none" stroke="#838383" stroke-linecap="round" stroke-linejoin="round" stroke-miterlimit="10" stroke-width="1.5"/>
          <g id="Gruppe_25621" data-name="Gruppe 25621" transform="translate(342.613 310.698)">
            <ellipse id="Ellipse_2860" data-name="Ellipse 2860" cx="4.434" cy="3.217" rx="4.434" ry="3.217" transform="translate(0 8.455) rotate(-72.44)" fill="none" stroke="#838383" stroke-linecap="round" stroke-linejoin="round" stroke-miterlimit="10" stroke-width="1.5"/>
            <ellipse id="Ellipse_2861" data-name="Ellipse 2861" cx="4.434" cy="3.217" rx="4.434" ry="3.217" transform="translate(24.959 16.337) rotate(-72.44)" fill="none" stroke="#838383" stroke-linecap="round" stroke-linejoin="round" stroke-miterlimit="10" stroke-width="1.5"/>
          </g>
          <g id="Gruppe_25622" data-name="Gruppe 25622" transform="translate(351.295 303.395)">
            <ellipse id="Ellipse_2862" data-name="Ellipse 2862" cx="5.825" cy="3.999" rx="5.825" ry="3.999" transform="translate(0 11.108) rotate(-72.44)" fill="none" stroke="#838383" stroke-linecap="round" stroke-linejoin="round" stroke-miterlimit="10" stroke-width="1.5"/>
            <ellipse id="Ellipse_2863" data-name="Ellipse 2863" cx="5.825" cy="3.999" rx="5.825" ry="3.999" transform="translate(10.383 14.416) rotate(-72.44)" fill="none" stroke="#838383" stroke-linecap="round" stroke-linejoin="round" stroke-miterlimit="10" stroke-width="1.5"/>
          </g>
        </g>
        <g id="Gruppe_20336-2-3" data-name="Gruppe_20336-2" transform="translate(-2828.717 -3391.545)">
          <path id="Pfad_20545-2-3" data-name="Pfad_20545-2" d="M-606.741,22939.484H-646.5l4.2-14.385h31.517Z" transform="translate(646.5 -22913.787)" fill="none" stroke="#838383" stroke-linecap="round" stroke-linejoin="round" stroke-miterlimit="10" stroke-width="1.5"/>
          <path id="Pfad_20546-2-3" data-name="Pfad_20546-2" d="M-612.436,22922.008a3.907,3.907,0,0,0,.808-2.342,3.791,3.791,0,0,0-3.8-3.8h0a4.417,4.417,0,0,0-2.344.887,4.564,4.564,0,0,0,.242-1.453,4.172,4.172,0,0,0-4.2-4.2,4.256,4.256,0,0,0-4.2,3.553,4.086,4.086,0,0,0-4.041-3.393,4.054,4.054,0,0,0-4.041,4.045h0a5.552,5.552,0,0,0,.4,1.936,2.39,2.39,0,0,0-1.94-.646,3.264,3.264,0,0,0-3.152,3.152,3.1,3.1,0,0,0,1.293,2.5" transform="translate(645.003 -22911.102)" fill="none" stroke="#838383" stroke-linecap="round" stroke-linejoin="round" stroke-miterlimit="10" stroke-width="1.5"/>
        </g>
        <g id="Gruppe_20336-2-4" data-name="Gruppe_20336-2" transform="translate(-2656.8 -3391.545)">
          <path id="Pfad_20545-2-4" data-name="Pfad_20545-2" d="M-606.741,22939.484H-646.5l4.2-14.385h31.517Z" transform="translate(646.5 -22913.787)" fill="none" stroke="#838383" stroke-linecap="round" stroke-linejoin="round" stroke-miterlimit="10" stroke-width="1.5"/>
          <path id="Pfad_20546-2-4" data-name="Pfad_20546-2" d="M-612.436,22922.008a3.907,3.907,0,0,0,.808-2.342,3.791,3.791,0,0,0-3.8-3.8h0a4.417,4.417,0,0,0-2.344.887,4.564,4.564,0,0,0,.242-1.453,4.172,4.172,0,0,0-4.2-4.2,4.256,4.256,0,0,0-4.2,3.553,4.086,4.086,0,0,0-4.041-3.393,4.054,4.054,0,0,0-4.041,4.045h0a5.552,5.552,0,0,0,.4,1.936,2.39,2.39,0,0,0-1.94-.646,3.264,3.264,0,0,0-3.152,3.152,3.1,3.1,0,0,0,1.293,2.5" transform="translate(645.003 -22911.102)" fill="none" stroke="#838383" stroke-linecap="round" stroke-linejoin="round" stroke-miterlimit="10" stroke-width="1.5"/>
        </g>
        <g id="Gruppe_20337-2-2" data-name="Gruppe_20337-2" transform="translate(-2779.191 -3392.422)">
          <path id="Icon-32-2-2" data-name="Icon-32-2" d="M-615.307,22916.736a7.779,7.779,0,0,0-7.354-5.736h-.323a8.759,8.759,0,0,0-7.839,5.25,8.759,8.759,0,0,0-7.839-5.25,7.69,7.69,0,0,0-7.839,7.594h0v.324c0,6.145,6.627,10.99,15.677,20.041,4.283-4.281,8.081-7.676,10.829-10.666" transform="translate(646.5 -22910.998)" fill="none" stroke="#838383" stroke-linecap="round" stroke-linejoin="round" stroke-width="1.5"/>
          <path id="Pfad_13547-2-2" data-name="Pfad_13547-2" d="M-631.7,22923.754h3.879l2.505,6.141,4.283-11.4,1.131,5.256h9.051" transform="translate(643.66 -22912.436)" fill="none" stroke="#838383" stroke-linecap="round" stroke-linejoin="round" stroke-width="1.5"/>
        </g>
        <g id="Gruppe_22027-2" data-name="Gruppe_22027" transform="translate(-2734.396 -3395.23)">
          <path id="Pfad_25937-2" data-name="Pfad_25937" d="M-820.677,24064.23H-844s2.672-1.211,2.672-13.844c0-5.51,3.563-9.883,8.989-9.883h0c5.507,0,8.989,4.455,8.989,9.883C-823.349,24063.26-820.677,24064.23-820.677,24064.23Z" transform="translate(844 -24037.588)" fill="none" stroke="#838383" stroke-linecap="round" stroke-linejoin="round" stroke-width="1.5"/>
          <line id="Linie_5781-2" data-name="Linie_5781" y1="2.915" transform="translate(11.662 0)" fill="none" stroke="#838383" stroke-linecap="round" stroke-linejoin="round" stroke-width="1.5"/>
          <path id="Pfad_25938-2" data-name="Pfad_25938" d="M-832.4,24074a4.029,4.029,0,0,0,4.616,0" transform="translate(841.794 -24043.955)" fill="none" stroke="#838383" stroke-linecap="round" stroke-linejoin="round" stroke-width="1.5"/>
        </g>
        <g id="Gruppe_25646" data-name="Gruppe 25646" transform="translate(-3043 -3700.395)">
          <path id="Pfad_28487-2" data-name="Pfad 28487" d="M364.935,337.4c-2.782,1.652-6.173-1.565-8.868-2.434s-7.477-.087-8.695-3.13c-1.652-4.26,8.26-12.433,13.129-10.868C365.283,322.449,368.848,335.143,364.935,337.4Z" transform="translate(-0.597 -2.269)" fill="none" stroke="#838383" stroke-linecap="round" stroke-linejoin="round" stroke-miterlimit="10" stroke-width="1.5"/>
          <g id="Gruppe_25621-2" data-name="Gruppe 25621" transform="translate(342.613 310.698)">
            <ellipse id="Ellipse_2860-2" data-name="Ellipse 2860" cx="4.434" cy="3.217" rx="4.434" ry="3.217" transform="translate(0 8.455) rotate(-72.44)" fill="none" stroke="#838383" stroke-linecap="round" stroke-linejoin="round" stroke-miterlimit="10" stroke-width="1.5"/>
            <ellipse id="Ellipse_2861-2" data-name="Ellipse 2861" cx="4.434" cy="3.217" rx="4.434" ry="3.217" transform="translate(24.959 16.337) rotate(-72.44)" fill="none" stroke="#838383" stroke-linecap="round" stroke-linejoin="round" stroke-miterlimit="10" stroke-width="1.5"/>
          </g>
          <g id="Gruppe_25622-2" data-name="Gruppe 25622" transform="translate(351.295 303.395)">
            <ellipse id="Ellipse_2862-2" data-name="Ellipse 2862" cx="5.825" cy="3.999" rx="5.825" ry="3.999" transform="translate(0 11.108) rotate(-72.44)" fill="none" stroke="#838383" stroke-linecap="round" stroke-linejoin="round" stroke-miterlimit="10" stroke-width="1.5"/>
            <ellipse id="Ellipse_2863-2" data-name="Ellipse 2863" cx="5.825" cy="3.999" rx="5.825" ry="3.999" transform="translate(10.383 14.416) rotate(-72.44)" fill="none" stroke="#838383" stroke-linecap="round" stroke-linejoin="round" stroke-miterlimit="10" stroke-width="1.5"/>
          </g>
        </g>
        <g id="Gruppe_20336-2-5" data-name="Gruppe_20336-2" transform="translate(-2828.717 -3477.545)">
          <path id="Pfad_20545-2-5" data-name="Pfad_20545-2" d="M-606.741,22939.484H-646.5l4.2-14.385h31.517Z" transform="translate(646.5 -22913.787)" fill="none" stroke="#838383" stroke-linecap="round" stroke-linejoin="round" stroke-miterlimit="10" stroke-width="1.5"/>
          <path id="Pfad_20546-2-5" data-name="Pfad_20546-2" d="M-612.436,22922.008a3.907,3.907,0,0,0,.808-2.342,3.791,3.791,0,0,0-3.8-3.8h0a4.417,4.417,0,0,0-2.344.887,4.564,4.564,0,0,0,.242-1.453,4.172,4.172,0,0,0-4.2-4.2,4.256,4.256,0,0,0-4.2,3.553,4.086,4.086,0,0,0-4.041-3.393,4.054,4.054,0,0,0-4.041,4.045h0a5.552,5.552,0,0,0,.4,1.936,2.39,2.39,0,0,0-1.94-.646,3.264,3.264,0,0,0-3.152,3.152,3.1,3.1,0,0,0,1.293,2.5" transform="translate(645.003 -22911.102)" fill="none" stroke="#838383" stroke-linecap="round" stroke-linejoin="round" stroke-miterlimit="10" stroke-width="1.5"/>
        </g>
        <g id="Gruppe_20336-2-6" data-name="Gruppe_20336-2" transform="translate(-2656.8 -3477.545)">
          <path id="Pfad_20545-2-6" data-name="Pfad_20545-2" d="M-606.741,22939.484H-646.5l4.2-14.385h31.517Z" transform="translate(646.5 -22913.787)" fill="none" stroke="#838383" stroke-linecap="round" stroke-linejoin="round" stroke-miterlimit="10" stroke-width="1.5"/>
          <path id="Pfad_20546-2-6" data-name="Pfad_20546-2" d="M-612.436,22922.008a3.907,3.907,0,0,0,.808-2.342,3.791,3.791,0,0,0-3.8-3.8h0a4.417,4.417,0,0,0-2.344.887,4.564,4.564,0,0,0,.242-1.453,4.172,4.172,0,0,0-4.2-4.2,4.256,4.256,0,0,0-4.2,3.553,4.086,4.086,0,0,0-4.041-3.393,4.054,4.054,0,0,0-4.041,4.045h0a5.552,5.552,0,0,0,.4,1.936,2.39,2.39,0,0,0-1.94-.646,3.264,3.264,0,0,0-3.152,3.152,3.1,3.1,0,0,0,1.293,2.5" transform="translate(645.003 -22911.102)" fill="none" stroke="#838383" stroke-linecap="round" stroke-linejoin="round" stroke-miterlimit="10" stroke-width="1.5"/>
        </g>
        <g id="Gruppe_20337-2-3" data-name="Gruppe_20337-2" transform="translate(-2779.191 -3478.422)">
          <path id="Icon-32-2-3" data-name="Icon-32-2" d="M-615.307,22916.736a7.779,7.779,0,0,0-7.354-5.736h-.323a8.759,8.759,0,0,0-7.839,5.25,8.759,8.759,0,0,0-7.839-5.25,7.69,7.69,0,0,0-7.839,7.594h0v.324c0,6.145,6.627,10.99,15.677,20.041,4.283-4.281,8.081-7.676,10.829-10.666" transform="translate(646.5 -22910.998)" fill="none" stroke="#838383" stroke-linecap="round" stroke-linejoin="round" stroke-width="1.5"/>
          <path id="Pfad_13547-2-3" data-name="Pfad_13547-2" d="M-631.7,22923.754h3.879l2.505,6.141,4.283-11.4,1.131,5.256h9.051" transform="translate(643.66 -22912.436)" fill="none" stroke="#838383" stroke-linecap="round" stroke-linejoin="round" stroke-width="1.5"/>
        </g>
        <g id="Gruppe_22027-3" data-name="Gruppe_22027" transform="translate(-2734.396 -3481.23)">
          <path id="Pfad_25937-3" data-name="Pfad_25937" d="M-820.677,24064.23H-844s2.672-1.211,2.672-13.844c0-5.51,3.563-9.883,8.989-9.883h0c5.507,0,8.989,4.455,8.989,9.883C-823.349,24063.26-820.677,24064.23-820.677,24064.23Z" transform="translate(844 -24037.588)" fill="none" stroke="#838383" stroke-linecap="round" stroke-linejoin="round" stroke-width="1.5"/>
          <line id="Linie_5781-3" data-name="Linie_5781" y1="2.915" transform="translate(11.662 0)" fill="none" stroke="#838383" stroke-linecap="round" stroke-linejoin="round" stroke-width="1.5"/>
          <path id="Pfad_25938-3" data-name="Pfad_25938" d="M-832.4,24074a4.029,4.029,0,0,0,4.616,0" transform="translate(841.794 -24043.955)" fill="none" stroke="#838383" stroke-linecap="round" stroke-linejoin="round" stroke-width="1.5"/>
        </g>
        <g id="Gruppe_25645" data-name="Gruppe 25645" transform="translate(-3043 -3786.395)">
          <path id="Pfad_28487-3" data-name="Pfad 28487" d="M364.935,337.4c-2.782,1.652-6.173-1.565-8.868-2.434s-7.477-.087-8.695-3.13c-1.652-4.26,8.26-12.433,13.129-10.868C365.283,322.449,368.848,335.143,364.935,337.4Z" transform="translate(-0.597 -2.269)" fill="none" stroke="#838383" stroke-linecap="round" stroke-linejoin="round" stroke-miterlimit="10" stroke-width="1.5"/>
          <g id="Gruppe_25621-3" data-name="Gruppe 25621" transform="translate(342.613 310.698)">
            <ellipse id="Ellipse_2860-3" data-name="Ellipse 2860" cx="4.434" cy="3.217" rx="4.434" ry="3.217" transform="translate(0 8.455) rotate(-72.44)" fill="none" stroke="#838383" stroke-linecap="round" stroke-linejoin="round" stroke-miterlimit="10" stroke-width="1.5"/>
            <ellipse id="Ellipse_2861-3" data-name="Ellipse 2861" cx="4.434" cy="3.217" rx="4.434" ry="3.217" transform="translate(24.959 16.337) rotate(-72.44)" fill="none" stroke="#838383" stroke-linecap="round" stroke-linejoin="round" stroke-miterlimit="10" stroke-width="1.5"/>
          </g>
          <g id="Gruppe_25622-3" data-name="Gruppe 25622" transform="translate(351.295 303.395)">
            <ellipse id="Ellipse_2862-3" data-name="Ellipse 2862" cx="5.825" cy="3.999" rx="5.825" ry="3.999" transform="translate(0 11.108) rotate(-72.44)" fill="none" stroke="#838383" stroke-linecap="round" stroke-linejoin="round" stroke-miterlimit="10" stroke-width="1.5"/>
            <ellipse id="Ellipse_2863-3" data-name="Ellipse 2863" cx="5.825" cy="3.999" rx="5.825" ry="3.999" transform="translate(10.383 14.416) rotate(-72.44)" fill="none" stroke="#838383" stroke-linecap="round" stroke-linejoin="round" stroke-miterlimit="10" stroke-width="1.5"/>
          </g>
        </g>
      </g>
    </g>
  </g>
</svg>
