<svg id="Gruppe_10187" data-name="Gruppe 10187" xmlns="http://www.w3.org/2000/svg" xmlns:xlink="http://www.w3.org/1999/xlink" width="196.15" height="40.772" viewBox="0 0 196.15 40.772">
  <defs>
    <clipPath id="clip-path">
      <path id="Pfad_9878" data-name="Pfad 9878" d="M0,.552H196.15V-40.22H0Z" transform="translate(0 40.22)" fill="none"/>
    </clipPath>
  </defs>
  <g id="Gruppe_10186" data-name="Gruppe 10186" transform="translate(0)" clip-path="url(#clip-path)">
    <g id="Gruppe_10175" data-name="Gruppe 10175" transform="translate(48.092 14.195)">
      <path id="Pfad_9867" data-name="Pfad 9867" d="M.123.231C-4.8.231-8.988-2.4-8.988-8.313S-4.8-16.832.123-16.832a8.966,8.966,0,0,1,6.3,2.153,1.658,1.658,0,0,1,.472,1.135A1.455,1.455,0,0,1,5.4-12.052a4.662,4.662,0,0,1-1.941-.827,6.132,6.132,0,0,0-3.313-.782c-2.982,0-5.4,1.752-5.4,5.348,0,3.574,2.39,5.372,5.419,5.372A7.936,7.936,0,0,0,4.453-4.052a1.773,1.773,0,0,1,.924-.261,1.668,1.668,0,0,1,1.61,1.656A1.412,1.412,0,0,1,6.419-1.52,10.135,10.135,0,0,1,.123.231" transform="translate(8.988 16.832)" fill="#333a3c"/>
    </g>
    <g id="Gruppe_10176" data-name="Gruppe 10176" transform="translate(72.691 14.218)">
      <path id="Pfad_9868" data-name="Pfad 9868" d="M.123.231c-5.348,0-9.088-3.006-9.088-8.5,0-5.466,3.74-8.544,9.088-8.544,5.325,0,9.088,3.078,9.088,8.544S5.448.231.123.231m0-14.057c-3.077,0-5.348,1.917-5.348,5.561S-2.954-2.751.123-2.751,5.472-4.692,5.472-8.265c0-3.6-2.272-5.561-5.348-5.561" transform="translate(8.965 16.809)" fill="#333a3c"/>
    </g>
    <g id="Gruppe_10177" data-name="Gruppe 10177" transform="translate(99.536 14.266)">
      <path id="Pfad_9869" data-name="Pfad 9869" d="M.159.107c0-3.55-1.894-4.733-4.189-4.733S-8.241-3.443-8.241.107V7.4c0,1.16-.664,1.585-1.681,1.585S-11.6,8.556-11.6,7.4V.13c0-4.969,2.628-7.9,7.574-7.9C.893-7.774,3.52-4.839,3.52.13V7.4c0,1.16-.686,1.585-1.68,1.585S.159,8.556.159,7.4Z" transform="translate(11.603 7.774)" fill="#333a3c"/>
    </g>
    <g id="Gruppe_10178" data-name="Gruppe 10178" transform="translate(123.291 14.29)">
      <path id="Pfad_9870" data-name="Pfad 9870" d="M.046.142V4.876A1.543,1.543,0,0,1-1.635,6.367a1.531,1.531,0,0,1-1.68-1.491V-8.638c.048-1.563,5.041-1.727,6.721-1.727a18.711,18.711,0,0,1,5.42.543A1.415,1.415,0,0,1,9.82-8.448,1.528,1.528,0,0,1,8.164-6.839,23.229,23.229,0,0,0,4.188-7.2a23.5,23.5,0,0,0-4.142.308v3.881h4.71a1.538,1.538,0,0,1,1.7,1.586A1.544,1.544,0,0,1,4.755.142Z" transform="translate(3.315 10.365)" fill="#333a3c"/>
    </g>
    <g id="Gruppe_10179" data-name="Gruppe 10179" transform="translate(145.07 14.455)">
      <path id="Pfad_9871" data-name="Pfad 9871" d="M0,.022a1.573,1.573,0,0,1,1.681-1.61A1.586,1.586,0,0,1,3.361.022V13.371a1.654,1.654,0,0,1-1.68,1.609A1.641,1.641,0,0,1,0,13.371Z" transform="translate(0 1.588)" fill="#333a3c"/>
    </g>
    <g id="Gruppe_10180" data-name="Gruppe 10180" transform="translate(157.083 14.29)">
      <path id="Pfad_9872" data-name="Pfad 9872" d="M0,.024c0-1.515,4.52-1.8,6.391-1.8,6.081,0,8.922,2.7,8.922,8.378,0,6.036-3.2,8.474-9.017,8.474-1.917,0-6.3-.285-6.3-1.8Zm3.285,11.9a10.227,10.227,0,0,0,2.816.356c3.692,0,5.586-1.468,5.586-5.633,0-4.71-2.319-5.657-5.443-5.657a9.492,9.492,0,0,0-2.959.4Z" transform="translate(0 1.774)" fill="#333a3c"/>
    </g>
    <g id="Gruppe_10181" data-name="Gruppe 10181" transform="translate(181.026 14.455)">
      <path id="Pfad_9873" data-name="Pfad 9873" d="M.159.021A1.543,1.543,0,0,1,1.84-1.565,1.543,1.543,0,0,1,3.521.021V8c0,4.591-2.675,7.242-7.55,7.242-4.9,0-7.574-2.651-7.574-7.242V.021A1.543,1.543,0,0,1-9.922-1.565,1.531,1.531,0,0,1-8.241.021V8c0,3.2,1.964,4.261,4.212,4.261C-1.8,12.257.159,11.192.159,8Z" transform="translate(11.603 1.565)" fill="#333a3c"/>
    </g>
    <g id="Gruppe_10182" data-name="Gruppe 10182" transform="translate(13.555 -0.001)">
      <path id="Pfad_9874" data-name="Pfad 9874" d="M.026.222a1.9,1.9,0,0,1-1.9-1.9V-7.3a8.853,8.853,0,0,1,8.843-8.843,8.887,8.887,0,0,1,7.091,3.56,1.9,1.9,0,0,1-.386,2.66,1.9,1.9,0,0,1-2.66-.386,5,5,0,0,0-4.045-2.033A5.047,5.047,0,0,0,1.927-7.3v5.622a1.9,1.9,0,0,1-1.9,1.9" transform="translate(1.875 16.144)" fill="#ffbc00"/>
    </g>
    <g id="Gruppe_10183" data-name="Gruppe 10183" transform="translate(27.439 8.578)">
      <path id="Pfad_9875" data-name="Pfad 9875" d="M.026.3a1.9,1.9,0,0,1-1.9-1.9V-19.856a1.9,1.9,0,0,1,1.9-1.9,1.9,1.9,0,0,1,1.9,1.9V-1.6A1.9,1.9,0,0,1,.026.3" transform="translate(1.875 21.757)" fill="#ffbc00"/>
    </g>
    <g id="Gruppe_10184" data-name="Gruppe 10184" transform="translate(0 13.554)">
      <path id="Pfad_9876" data-name="Pfad 9876" d="M.51.24H-28.251A8.853,8.853,0,0,1-37.094-8.6a8.853,8.853,0,0,1,8.843-8.843h6.6a1.9,1.9,0,0,1,1.9,1.9,1.9,1.9,0,0,1-1.9,1.9h-6.6A5.047,5.047,0,0,0-33.292-8.6a5.047,5.047,0,0,0,5.041,5.041H.51a1.9,1.9,0,0,1,1.9,1.9A1.9,1.9,0,0,1,.51.24" transform="translate(37.094 17.446)" fill="#ffbc00"/>
    </g>
    <g id="Gruppe_10185" data-name="Gruppe 10185" transform="translate(13.584 13.555)">
      <path id="Pfad_9877" data-name="Pfad 9877" d="M.026.369a1.9,1.9,0,0,1-1.9-1.9V-18.006a8.853,8.853,0,0,1,8.843-8.843h6.306a1.9,1.9,0,0,1,1.9,1.9,1.9,1.9,0,0,1-1.9,1.9H6.968a5.047,5.047,0,0,0-5.041,5.041V-1.532a1.9,1.9,0,0,1-1.9,1.9" transform="translate(1.875 26.849)" fill="#ffbc00"/>
    </g>
  </g>
</svg>
