<svg xmlns="http://www.w3.org/2000/svg" viewBox="0 0 373 374.37">
  <defs>
    <style>
      .a, .e {
        fill: #fff;
      }

      .b, .f {
        fill: none;
      }

      .b, .d, .e {
        stroke: #7c7c7c;
      }

      .b, .d, .e, .f {
        stroke-linecap: round;
        stroke-linejoin: round;
        stroke-width: 5px;
      }

      .c, .d {
        fill: #ffbc00;
      }

      .f {
        stroke: #fff;
      }
    </style>
  </defs>
  <title>Lila_Hermann_Symbiose_2</title>
  <g>
    <g>
      <g>
        <path class="a" d="M484,291.5c6.5-3.81,11.5-9,22,3,12.5,25,31.5,24.32,31.5,24.32s-5.77-17.94-11-40c-8.5-35.83,37.17-22.67,37.17-22.67l59.33,57L561,358.5S498,322,484,291.5Z" transform="translate(-448.5 -2.32)"/>
        <path class="b" d="M563.67,256.15S518,243,526.5,278.82c5.23,22.06,11,40,11,40s-23-5.32-29.75-22.36c-2.9-7.32-14.25-4.2-19.75-.16" transform="translate(-448.5 -2.32)"/>
        <path class="b" d="M483.5,292c3-4,13.5-11,19-.5" transform="translate(-448.5 -2.32)"/>
      </g>
      <g>
        <path class="a" d="M785.5,291.5c-6.5-3.81-11.5-9-22,3-12.5,25-31.5,24.32-31.5,24.32s5.77-17.94,11-40c8.5-35.83-37.17-22.67-37.17-22.67l-59.33,57,62,45.33S771.5,322,785.5,291.5Z" transform="translate(-448.5 -2.32)"/>
        <path class="b" d="M705.83,256.15S751.5,243,743,278.82c-5.23,22.06-11,40-11,40s20.5-2.32,29.75-22.36c3.3-7.15,14.25-4.2,19.75-.16" transform="translate(-448.5 -2.32)"/>
        <path class="b" d="M786,292c-3-4-13.5-11-19-.5" transform="translate(-448.5 -2.32)"/>
      </g>
      <g>
        <path class="a" d="M576.32,193.09" transform="translate(-448.5 -2.32)"/>
        <path class="a" d="M792.34,172.36c-6.48-9.73-25.51,5.4-48-4.11-8.81-3.73-20.84-12.29-33.72-12.75-14.28-.52-28.79,12.33-33.13,16.5-40-11-84.44-1.33-85.76-1.58-6.48-3.89-61-35.45-97.7-5.84-12.93,10.42-18.26,16.63-12.54,38.26,3.16,11.93,15.44,40.76,34.59,45,11.8,2.59,12.54-7.35,16.43-29.4,2.6-14.73,28.29-21.57,45-24.48-5.56,21.73-10,55-10,55C554,266.32,555,291.24,575.46,307.67,569.09,336,562.8,356.21,565,357.5c58,34,139.5,3,139.5,3s-8.38-34.13-13.16-53.39c19.78-16.43,20.68-41,7.27-58.23,0,0-1.55-36.41-6.9-52.81,0,0,18.21-5.64,41.18.86,9.41,17.13-.87,45.22,12.76,50,14.7,5.19,23-16.24,37.61-29.19C800.12,202.85,798.73,181.94,792.34,172.36Z" transform="translate(-448.5 -2.32)"/>
      </g>
      <g>
        <path class="a" d="M701.43,89.88l3.79,1.52c6.47-33.4-13.43-59.64-13.43-59.64C679.88,33.21,661.2,45.88,650,69c-16-3.13-26.1-.49-35.44.78l1.34-.54C604.66,46,582.12,32.48,570.17,31c0,0-15.41,28.77-9.66,60.37l3.15-1.26c-17.75,16.89-10.52,37.19,2.49,46.07C588.43,151.43,604.85,148.27,607,158c0.53,2.43.73,4.65-2,9,0,0,31.57-5,56.32.6,3,0.69-3-6.95-2.28-9.6,2.48-9,18-6.59,40.25-21.82C712.29,127.28,719.52,106.81,701.43,89.88Z" transform="translate(-448.5 -2.32)"/>
        <path class="c" d="M558.37,128.33c18,17.44,70-1,67-59.09,0-.95-8.42.92-9.32-0.89-6-12-38.48-42.84-46-36.52-9.77,8.21-11.72,50.5-9.47,60.87C545.74,109.69,557.55,127.54,558.37,128.33Z" transform="translate(-448.5 -2.32)"/>
        <path class="d" d="M575.2,103.68c4.66-21,43.14-28.56,44.72,19.8C589,139.75,571.89,118.63,575.2,103.68Z" transform="translate(-448.5 -2.32)"/>
        <path class="b" d="M600.53,88.33c-8.93,20.08,0,40.17,0,40.17" transform="translate(-448.5 -2.32)"/>
        <path class="b" d="M632.61,140.21s-15.68-11.84-.06-11.43C649.39,128.6,632.61,140.21,632.61,140.21Z" transform="translate(-448.5 -2.32)"/>
        <path class="b" d="M615.87,144.4a7.94,7.94,0,0,0,7,7c7.94,1,10-10.88,10-10.88" transform="translate(-448.5 -2.32)"/>
        <path class="b" d="M649.75,144.4a7.94,7.94,0,0,1-7,7c-7.94,1-10-10.88-10-10.88" transform="translate(-448.5 -2.32)"/>
        <path class="b" d="M649.85,69.2c11.21-23.24,30-36,41.93-37.45,0,0,19.9,26.24,13.43,59.64" transform="translate(-448.5 -2.32)"/>
        <path class="b" d="M560.51,91.39C554.76,59.79,570.17,31,570.17,31c11.95,1.46,34.49,14.94,45.7,38.19" transform="translate(-448.5 -2.32)"/>
        <path class="b" d="M561.09,93.28" transform="translate(-448.5 -2.32)"/>
        <path class="d" d="M690.52,103.68c-4.66-21-43.77-29.46-44.72,19.8C676.69,139.75,693.83,118.63,690.52,103.68Z" transform="translate(-448.5 -2.32)"/>
        <path class="b" d="M665.19,88.33c8.93,20.08,0,40.17,0,40.17" transform="translate(-448.5 -2.32)"/>
        <path class="b" d="M704.63,93.28" transform="translate(-448.5 -2.32)"/>
        <path class="b" d="M698.08,87c22.26,17.43,15,39.76,1.14,49.2C676.93,151.43,661.45,149,659,158c-0.73,2.66.3,7.22,2.28,9.6" transform="translate(-448.5 -2.32)"/>
        <path class="b" d="M567.27,87c-22.26,17.43-15,39.76-1.14,49.2C588.43,151.43,604.85,148.27,607,158c0.53,2.43.73,4.65-2,9" transform="translate(-448.5 -2.32)"/>
        <path class="b" d="M649.56,69.66a74.41,74.41,0,0,0-33.52-.2" transform="translate(-448.5 -2.32)"/>
      </g>
      <g>
        <path class="c" d="M698.21,248.33L691.87,196s29.33-8.33,51,3.67c1.75,1-27.67-35.17-27.67-35.17-15.76-2.37-32,9-37.33,7.5-18.23-5.11-47.33-5-47.33-5-7.92,18.72-4.29,64.63,18.16,80.79,18,13,40.32,9.67,54.18,8.21,1.2-.13-5-6.67-5-6.67" transform="translate(-448.5 -2.32)"/>
        <path class="b" d="M577.71,192.5c-6.42,20.68-10.18,56.25-10.18,56.25-15,19.25-12.13,47.31,14.94,63.49" transform="translate(-448.5 -2.32)"/>
        <path class="b" d="M631.62,286.92c-0.21,15.26-25.09,28.27-42.34,6.72" transform="translate(-448.5 -2.32)"/>
        <path class="b" d="M632,286.92c0.1,15.26,24.89,28.49,42.29,7.11" transform="translate(-448.5 -2.32)"/>
        <path class="b" d="M632.47,286.37c-7.6-.1-33.6-27.64,0-30.4C668.91,257.94,640.07,286.47,632.47,286.37Z" transform="translate(-448.5 -2.32)"/>
        <path class="b" d="M567.71,347.5s1.39-11.55,7.81-40.07" transform="translate(-448.5 -2.32)"/>
        <path class="b" d="M700.21,346.5s-3.39-16.22-9.09-37.62" transform="translate(-448.5 -2.32)"/>
        <path class="b" d="M611.27,207.89c-9.86-7.67-27.23,3.69-30.06,19-2.69,14.5,11.09,21.11,21.55,15.88C620.92,233.7,621.48,215.83,611.27,207.89Z" transform="translate(-448.5 -2.32)"/>
        <path class="b" d="M610.89,237.07c2.84-6,2.83-15.64-4.28-19.79-5-2.92-12.3-1.07-13.91,8.56-1.73,10.36,4.34,17.65,8,17.65" transform="translate(-448.5 -2.32)"/>
        <path class="e" d="M654.85,207.89c9.86-7.67,27.23,3.69,30.06,19,2.69,14.5-11.09,21.11-21.55,15.88C645.21,233.7,644.64,215.83,654.85,207.89Z" transform="translate(-448.5 -2.32)"/>
        <path class="b" d="M656.32,237.43c-2.63-5.67-2.89-14.95,3.35-19.48,4.68-3.4,12-2.88,14.88,7.89,2.78,10.55-3.27,18.18-7,18.18" transform="translate(-448.5 -2.32)"/>
        <path class="b" d="M733.49,198a72.48,72.48,0,0,0-41.78-2c5.35,16.4,6.9,52.75,6.9,52.75,15,19.25,12.13,47.31-14.94,63.49" transform="translate(-448.5 -2.32)"/>
        <path class="b" d="M576.32,193.09" transform="translate(-448.5 -2.32)"/>
        <path class="b" d="M678.21,171.33c-42.67-11.33-84.92-.62-86.46-0.92-6.48-3.89-61-35.45-97.7-5.84-12.93,10.42-18.26,16.63-12.54,38.26,3.16,11.93,15.44,40.76,34.59,45,11.8,2.59,12.54-7.35,16.43-29.4s45.19-25.9,45.19-25.9-19.93-17.07-40.45-15.28" transform="translate(-448.5 -2.32)"/>
        <path class="d" d="M678.21,171.07s14.48-16.21,32.42-15.56c12.89,0.47,24.91,9,33.72,12.75,22.48,9.51,41.5-5.62,48,4.11s7.78,30.48-9.08,45.39c-14.63,12.95-22.91,34.37-37.61,29.18-15.86-5.6-.66-47.57-20.5-62.25" transform="translate(-448.5 -2.32)"/>
      </g>
      <g>
        <path class="a" d="M538,150.83c-0.5-1.5-13.38-16.33-37-11.83-10.5,2-28,13.5-23.5,24.5S479,177,489,173c8,1,15-3.5,22.5-7,3-8-1.95-11.08.5-12.5C521.5,148,538,150.83,538,150.83Z" transform="translate(-448.5 -2.32)"/>
        <path class="f" d="M484.21,173.5s13.23-13.41,25.33-18.17" transform="translate(-448.5 -2.32)"/>
        <path class="b" d="M489.17,171.91s-2.18,6-7.22,2.48c-9-6.26-6.5-26.88,10.79-33.36C517.32,131.8,539,151,539,151" transform="translate(-448.5 -2.32)"/>
        <path class="b" d="M486,164.23S486.41,174,495,174a7.25,7.25,0,0,0,7.32-5.45" transform="translate(-448.5 -2.32)"/>
        <path class="b" d="M498.42,159.78s1.64,12.1,9.94,7.53c9.56-5.26,1.54-15.07,1.4-14.88" transform="translate(-448.5 -2.32)"/>
      </g>
      <g>
        <path class="a" d="M769.32,160s-4,13.19-1,16.21c1.29,1.29,5.39,1.07,8.43,3.89,4.54,4.22,13,6.16,18.48,6.16,8.5,0,11-8.43,6.59-16.75C797.93,162.18,769.32,160,769.32,160Z" transform="translate(-448.5 -2.32)"/>
        <path class="a" d="M729,158.17c0.5-1.5,23.16-13.67,46.77-9.17,10.5,2,27.83,14.28,27.89,26.17,0.06,11-5.67,9.67-17.67,10.67-8,1-6.67-7.67-18-9.33-3-8-.55-7.51-3.33-7C750,172.17,729,158.17,729,158.17Z" transform="translate(-448.5 -2.32)"/>
        <path class="b" d="M789.86,183.47s3.79,5.69,8.31,1.54c10.81-9.94,1.95-29.51-17.18-33.72-24-5.3-41,.54-55.12,7.46" transform="translate(-448.5 -2.32)"/>
        <path class="e" d="M792.34,173.88s0.75,11.07-7.8,11.51a7.66,7.66,0,0,1-7.79-5.31" transform="translate(-448.5 -2.32)"/>
        <path class="e" d="M781.31,171.71S779,182.41,769,176.9c-7.39-4.05,1.3-13,1.3-13" transform="translate(-448.5 -2.32)"/>
      </g>
    </g>
    <circle class="b" cx="186.5" cy="186.5" r="184"/>
    <g>
      <path class="a" d="M689,368.23c8,7.83,19.52-3.69,34.64-1.34,4.49-2.26,12-8.25,16-12.21s4.4-12.44,1.44-16.75c-6.59-9.56-28-7.62-28-7.62s-20.12,10.28-23.64,16.54C681.36,361.22,685.18,364.49,689,368.23Z" transform="translate(-448.5 -2.32)"/>
      <g>
        <path class="b" d="M724.49,341.51c6.12,3.58,13.3,15.84,3.75,22.58-3.25,2.55-8,4.9-17.81,3" transform="translate(-448.5 -2.32)"/>
        <path class="b" d="M734.31,358.21c6.2-.65,9-5.7,8.57-13-0.48-14.66-16.69-14.21-23.81-14.42-9.57-.35-19.23,5.14-24.85,10.21-6.7,5.78-15.59,24.05-3.63,29.67,9.93,4.57,18.57-1.73,19.74-6.66,1.19-4.49.07-11.56-3.6-15" transform="translate(-448.5 -2.32)"/>
      </g>
    </g>
    <g>
      <g>
        <path class="a" d="M548.49,362.18c2,5.59,14.51,6.08,14.51,6.08a26.5,26.5,0,0,0,12.63,5.15c7.93,1.12,19.07-.67,22-1.87,8-3.28,4.68-17.31,4.68-17.31L585,331.82l-23.33-6s-27.05,14.06-26,15c3.67,3.33,13.74,8.59,13.33,9C547.33,351.5,546.51,356.63,548.49,362.18Z" transform="translate(-448.5 -2.32)"/>
        <g>
          <path class="b" d="M554.82,343.21c-5.91,4.53-11.9,13.62-6.8,20.61,6.23,8.47,15.48,3.54,18.81,0,3.21-3.09,5.5-9.86,4.16-14.34" transform="translate(-448.5 -2.32)"/>
          <path class="b" d="M585.23,372.94c5.67,2.19,11.76,1.9,15.44-4.21,8-13.61-3.51-23.86-10-30.39" transform="translate(-448.5 -2.32)"/>
          <path class="b" d="M589.39,351.51c3.57,6.07,2.48,20.44-10.48,22.13-4,.37-7.76,1.7-15.17-4.41" transform="translate(-448.5 -2.32)"/>
        </g>
      </g>
      <path class="e" d="M533,340.32s19-15.38,35-13.45c17.49,2.56,21.24,11,22.88,11.75" transform="translate(-448.5 -2.32)"/>
    </g>
  </g>
</svg>
