<?xml version="1.0" encoding="utf-8"?>
<!-- Generator: Adobe Illustrator 24.3.0, SVG Export Plug-In . SVG Version: 6.00 Build 0)  -->
<svg version="1.1" id="Ebene_1" xmlns="http://www.w3.org/2000/svg" xmlns:xlink="http://www.w3.org/1999/xlink" x="0px" y="0px"
	 viewBox="0 0 62 62" style="enable-background:new 0 0 62 62;" xml:space="preserve">
<style type="text/css">
	.st0{fill:none;stroke:#B4B4B4;stroke-width:1.5;stroke-linecap:round;stroke-linejoin:round;}
	.st1{fill:none;stroke:#B4B4B4;stroke-width:1.5;stroke-linejoin:round;}
	.st2{fill:none;stroke:#B4B4B4;stroke-width:2;stroke-linecap:round;stroke-linejoin:round;}
	.st3{fill:none;stroke:#00B7FF;stroke-width:2;}
</style>
<g id="Gruppe_20615_2_" transform="translate(-261 -1369)">
	<g id="Gruppe_20617_2_" transform="translate(281.842 1384.194)">
		<g id="Gruppe_14411_2_" transform="translate(3.75 2.925)">
			<path id="Pfad_13243_2_" class="st0" d="M13.4,0.4c0,5-2.2,16-6.5,16c-4.2,0-6.5-11-6.5-16H13.4z"/>
		</g>
		<g id="Gruppe_14413_2_" transform="translate(5.021 18.969)">
			<g id="Gruppe_14412_2_" transform="translate(2.933)">
				<path id="Pfad_13244_2_" class="st0" d="M1.7,0.3c0.4,1.9-0.3,7.8-1.3,10"/>
				<path id="Pfad_13245_2_" class="st0" d="M3.7,0.3C3.3,2.2,4,8.2,4.9,10.4"/>
			</g>
			<rect id="Rechteck_2555_2_" x="0.4" y="10.4" class="st0" width="10.4" height="2.9"/>
		</g>
		<line id="Linie_3204_2_" class="st0" x1="4.9" y1="0.4" x2="16.4" y2="0.4"/>
		<g id="Gruppe_14416_2_" transform="translate(0 5.144)">
			<g id="Gruppe_14415_2_">
				<path id="Pfad_13247_2_" class="st1" d="M4.4,1.7c-1.8-3.5-9.6,0,3.4,10.8C8,12.7,9.4,14,9.6,14.2"/>
			</g>
		</g>
		<g id="Gruppe_14416_1_" transform="translate(0 5.144)">
			<g id="Gruppe_14415_1_">
				<path id="Pfad_13247_1_" class="st1" d="M16.9,1.7c1.8-3.5,9.6,0-3.4,10.8c-0.2,0.2-1.6,1.5-1.9,1.7"/>
			</g>
		</g>
	</g>
</g>
<g id="Gruppe_20613_5_" transform="translate(262 1370)">
	<path id="Pfad_20623_3_" class="st2" d="M-231-1368.7c-16.4,0-29.7,13.3-29.7,29.7c0,16.4,13.3,29.7,29.7,29.7s29.7-13.3,29.7-29.7
		l0,0C-201.3-1355.4-214.6-1368.7-231-1368.7z"/>
</g>
<g id="Gruppe_20613_1_" transform="translate(262 1370)">
	<path id="Pfad_20623_2_" class="st3" d="M-255.6-1322.4c5.3,7.9,14.4,13.1,24.6,13.1c16.4,0,29.7-13.3,29.7-29.7l0,0
		c0-16.4-13.3-29.7-29.7-29.7"/>
</g>
</svg>
