<svg xmlns="http://www.w3.org/2000/svg" width="38" height="38" viewBox="0 0 38 38">
  <g id="Gruppe_25520" data-name="Gruppe 25520" transform="translate(4324 23937)">
    <g id="Gruppe_59" data-name="Gruppe 59" transform="translate(3739 -22599)">
      <rect id="Rechteck_58" data-name="Rechteck 58" width="38" height="38" transform="translate(-8063 -1338)" fill="none"/>
      <path id="Pfad_4028" d="M13470.3-8784.7a10.761,10.761,0,0,0-7.651,3.15,10.748,10.748,0,0,0-3.15,7.65,10.744,10.744,0,0,0,3.15,7.649,10.751,10.751,0,0,0,7.65,3.149,10.754,10.754,0,0,0,7.649-3.15,10.756,10.756,0,0,0,3.149-7.649h0a10.686,10.686,0,0,0-3.13-7.669A10.694,10.694,0,0,0,13470.3-8784.7Z" transform="translate(-21514.5 7454.7)" fill="#00b7ff"/>
    </g>
    <g id="Gruppe_25519" data-name="Gruppe 25519" transform="translate(37.578 0.557)">
      <path id="Pfad_28461" data-name="Pfad 28461" d="M0,0V14" transform="translate(-4335.678 -23918.855) rotate(90)" fill="none" stroke="#fff" stroke-width="2.3"/>
      <path id="Pfad_28462" data-name="Pfad 28462" d="M-4343-23931.584v14" transform="translate(0.317 5.727)" fill="none" stroke="#fff" stroke-width="2.3"/>
    </g>
  </g>
</svg>
