<?xml version="1.0" encoding="utf-8"?>
<!-- Generator: Adobe Illustrator 24.3.0, SVG Export Plug-In . SVG Version: 6.00 Build 0)  -->
<svg version="1.1" id="Ebene_1" xmlns="http://www.w3.org/2000/svg" xmlns:xlink="http://www.w3.org/1999/xlink" x="0px" y="0px"
	 viewBox="0 0 328.6 152" style="enable-background:new 0 0 328.6 152;" xml:space="preserve">
<style type="text/css">
	.st0{clip-path:url(#SVGID_2_);}
	.st1{fill:#F4F4F4;}
	.st2{opacity:0.52;}
	.st3{fill:none;stroke:#DFDFDF;stroke-width:2;stroke-linecap:round;stroke-linejoin:round;stroke-miterlimit:10;}
	.st4{fill:none;stroke:#DFDFDF;stroke-width:2;stroke-linecap:round;stroke-linejoin:round;}
	.st5{fill:none;stroke:#DFDFDF;stroke-width:2;stroke-linecap:round;stroke-miterlimit:10;}
</style>
<g>
	<defs>
		<rect id="SVGID_1_" x="0" width="328.6" height="152"/>
	</defs>
	<clipPath id="SVGID_2_">
		<use xlink:href="#SVGID_1_"  style="overflow:visible;"/>
	</clipPath>
	<g class="st0">
		<rect id="Rechteck_2905" x="-18.5" y="-4.1" class="st1" width="372.2" height="162.2"/>
		<g id="Gruppe_20347" transform="translate(4)" class="st2">
			<g id="Gruppe_20343" transform="translate(631.695 -22927)">
				<g id="Gruppe_20341" transform="translate(0)">
					<g id="Gruppe_20332" transform="translate(116.08 0)">
						<rect id="Rechteck_2909" x="-646.5" y="22911" class="st3" width="35.1" height="35.1"/>
						<path id="Pfad_20537" class="st3" d="M-629,22915.6c-4.8,0-10,1.9-11.4,6.3l4.1,5.3h14.6l4.1-5.3
							C-618.9,22917.5-624.2,22915.6-629,22915.6z"/>
						<line id="Linie_4726" class="st3" x1="-630" y1="22926.5" x2="-627.9" y2="22920.7"/>
					</g>
					<g id="Gruppe_20336" transform="translate(211.5 1.967)">
						<path id="Pfad_20545" class="st3" d="M-597.3,22942.9h-49.2l5.2-17.8h39L-597.3,22942.9z"/>
						<path id="Pfad_20546" class="st3" d="M-606.2,22924.6c0.6-0.8,1-1.8,1-2.9c0-2.6-2.1-4.7-4.7-4.7c0,0,0,0,0,0
							c-1,0.1-2,0.4-2.9,1.1c0.2-0.6,0.3-1.2,0.3-1.8c0-2.9-2.3-5.2-5.2-5.2c-2.6,0-4.8,1.9-5.2,4.4c-0.4-2.4-2.5-4.2-5-4.2
							c-2.7,0-5,2.2-5,5c0,0,0,0,0,0c0,0.8,0.2,1.6,0.5,2.4c-0.6-0.6-1.5-0.9-2.4-0.8c-2.1,0.1-3.9,1.8-3.9,3.9
							c0,1.2,0.6,2.4,1.6,3.1"/>
					</g>
					<g id="Gruppe_20337" transform="translate(273.115 0.984)">
						<path id="Icon-32" class="st4" d="M-607.9,22918.1c-1.1-4.1-4.8-7-9.1-7.1h-0.4c-4.2,0.1-8,2.6-9.7,6.5
							c-1.7-3.9-5.5-6.4-9.7-6.5c-5.3-0.1-9.6,4.1-9.7,9.4c0,0,0,0,0,0c0,0.1,0,0.2,0,0.4c0,7.6,8.2,13.6,19.4,24.8
							c5.3-5.3,10-9.5,13.4-13.2"/>
						<path id="Pfad_13547" class="st4" d="M-631.7,22925h4.8l3.1,7.6l5.3-14.1l1.4,6.5h11.2"/>
					</g>
					<g id="Gruppe_20338" transform="translate(168.238 0.984)">
						<circle id="Ellipse_2433" class="st4" cx="-620.4" cy="22933.7" r="3.4"/>
						<g id="Gruppe_14065" transform="translate(0 0)">
							<path id="Pfad_13228" class="st4" d="M-625.7,22913.3v7.8c0,5.7-4.7,10.4-10.4,10.4l0,0c-5.7,0-10.4-4.7-10.4-10.4v-7.8"/>
							<path id="Rechteck_2246" class="st4" d="M-644.5,22911h0.6c1.1,0,2,0.9,2,2v3.9c0,1.1-0.9,2-2,2h-0.6c-1.1,0-2-0.9-2-2v-3.9
								C-646.5,22911.9-645.6,22911-644.5,22911z"/>
							<path id="Rechteck_2247" class="st4" d="M-628.3,22911h0.6c1.1,0,2,0.9,2,2v3.9c0,1.1-0.9,2-2,2h-0.6c-1.1,0-2-0.9-2-2v-3.9
								C-630.3,22911.9-629.4,22911-628.3,22911z"/>
						</g>
						<path id="Pfad_13229" class="st4" d="M-620.4,22937.8c0,4.3-3.5,7.8-7.8,7.8l0,0c-4.3,0-7.8-3.5-7.8-7.8v-5.8"/>
					</g>
					<g id="Gruppe_20339" transform="translate(0 0)">
						<g id="Gruppe_19277" transform="translate(3.251 0)">
							<path id="Pfad_19477" class="st5" d="M-612.1,22915.9l1.1,5.8c0.3,1.5-0.7,2.9-2.1,3.2l-0.5,0.1c-1.5,0.3-2.9-0.7-3.2-2.1"/>
							<path id="Pfad_19478" class="st5" d="M-615.1,22946.6v-10.2c0.9-0.7,1.4-1.7,1.5-2.8c0,0,1.2-4.7,1.2-4.7"/>
							<path id="Pfad_19479" class="st5" d="M-640.7,22946.6l-0.1-4.7l5.6-7.6c4.8-1.8,7,2.3,14.1,2.8l0.1,9.4"/>
							<path id="Pfad_19480" class="st5" d="M-606.7,22922.2c2.9,0.6,3.8-2.4,4.9-4.5c0.3-0.5,0-0.9-0.8-1.2c-1.1-0.5-2.6-1-4.3-1.7
								c-0.5-1.9-2.1-3.3-4.1-3.6c-3.1-0.7-5,1-6.5,3.2c-0.5,0.7-1.9,5.2-3,6.4l-2,1.6l-18.8,0.9c-1.3,0.1-2.6,0.7-3.5,1.7
								c-0.7,0.9-1.3,1.9-1.5,3c-0.5,1.7,0.2,4.8,2,8.3l-2.3,3.9l0.3,6.3"/>
						</g>
						<path id="Pfad_19481" class="st5" d="M-638.2,22923.3c0,0-9.6-0.2-8.2-8.3"/>
					</g>
					<g id="Gruppe_20340" transform="translate(63.583 0)">
						<g id="Gruppe_10169" transform="translate(0.478 0)">
							<path id="Pfad_9861" class="st4" d="M-628.5,22924.3l-4.6,4.6l-13.4-13.3l4.6-4.6L-628.5,22924.3z"/>
							<line id="Linie_2640" class="st4" x1="-630.5" y1="22926.9" x2="-625.9" y2="22931.5"/>
						</g>
						<path id="Pfad_9862" class="st4" d="M-621.4,22943.2c-2.4,1.8-5.4,2.8-8.4,2.8l0,0c-7.7,0-13.9-6.2-14-13.9v-2.6
							c0-1,0.1-2.1,0.4-3.1"/>
						<line id="Linie_2641" class="st4" x1="-626.2" y1="22937.5" x2="-612.6" y2="22937.5"/>
						<line id="Linie_2642" class="st4" x1="-646.5" y1="22946.1" x2="-611.5" y2="22946.1"/>
						<ellipse id="Ellipse_2106" class="st4" cx="-642.5" cy="22923.3" rx="2.9" ry="2.8"/>
						<ellipse id="Ellipse_2107" class="st4" cx="-618.6" cy="22940.9" rx="3.2" ry="3.2"/>
					</g>
				</g>
				<g id="Gruppe_20342" transform="translate(328.563)">
					<g id="Gruppe_20332-2" transform="translate(116.08 0)">
						<rect id="Rechteck_2909-2" x="-646.5" y="22911" class="st3" width="35.1" height="35.1"/>
						<path id="Pfad_20537-2" class="st3" d="M-629,22915.6c-4.8,0-10,1.9-11.4,6.3l4.1,5.3h14.6l4.1-5.3
							C-618.9,22917.5-624.2,22915.6-629,22915.6z"/>
						<line id="Linie_4726-2" class="st3" x1="-630" y1="22926.5" x2="-627.9" y2="22920.7"/>
					</g>
					<g id="Gruppe_20336-2" transform="translate(211.5 1.967)">
						<path id="Pfad_20545-2" class="st3" d="M-597.3,22942.9h-49.2l5.2-17.8h39L-597.3,22942.9z"/>
						<path id="Pfad_20546-2" class="st3" d="M-606.2,22924.6c0.6-0.8,1-1.8,1-2.9c0-2.6-2.1-4.7-4.7-4.7c0,0,0,0,0,0
							c-1,0.1-2,0.4-2.9,1.1c0.2-0.6,0.3-1.2,0.3-1.8c0-2.9-2.3-5.2-5.2-5.2c-2.6,0-4.8,1.9-5.2,4.4c-0.4-2.4-2.5-4.2-5-4.2
							c-2.7,0-5,2.2-5,5c0,0,0,0,0,0c0,0.8,0.2,1.6,0.5,2.4c-0.6-0.6-1.5-0.9-2.4-0.8c-2.1,0.1-3.9,1.8-3.9,3.9
							c0,1.2,0.6,2.4,1.6,3.1"/>
					</g>
					<g id="Gruppe_20337-2" transform="translate(273.115 0.984)">
						<path id="Icon-32-2" class="st4" d="M-607.9,22918.1c-1.1-4.1-4.8-7-9.1-7.1h-0.4c-4.2,0.1-8,2.6-9.7,6.5
							c-1.7-3.9-5.5-6.4-9.7-6.5c-5.3-0.1-9.6,4.1-9.7,9.4c0,0,0,0,0,0c0,0.1,0,0.2,0,0.4c0,7.6,8.2,13.6,19.4,24.8
							c5.3-5.3,10-9.5,13.4-13.2"/>
						<path id="Pfad_13547-2" class="st4" d="M-631.7,22925h4.8l3.1,7.6l5.3-14.1l1.4,6.5h11.2"/>
					</g>
					<g id="Gruppe_20338-2" transform="translate(168.238 0.984)">
						<circle id="Ellipse_2433-2" class="st4" cx="-620.4" cy="22933.7" r="3.4"/>
						<g id="Gruppe_14065-2" transform="translate(0 0)">
							<path id="Pfad_13228-2" class="st4" d="M-625.7,22913.3v7.8c0,5.7-4.7,10.4-10.4,10.4l0,0c-5.7,0-10.4-4.7-10.4-10.4v-7.8"/>
							<path id="Rechteck_2246-2" class="st4" d="M-644.5,22911h0.6c1.1,0,2,0.9,2,2v3.9c0,1.1-0.9,2-2,2h-0.6c-1.1,0-2-0.9-2-2
								v-3.9C-646.5,22911.9-645.6,22911-644.5,22911z"/>
							<path id="Rechteck_2247-2" class="st4" d="M-628.3,22911h0.6c1.1,0,2,0.9,2,2v3.9c0,1.1-0.9,2-2,2h-0.6c-1.1,0-2-0.9-2-2
								v-3.9C-630.3,22911.9-629.4,22911-628.3,22911z"/>
						</g>
						<path id="Pfad_13229-2" class="st4" d="M-620.4,22937.8c0,4.3-3.5,7.8-7.8,7.8l0,0c-4.3,0-7.8-3.5-7.8-7.8v-5.8"/>
					</g>
					<g id="Gruppe_20339-2" transform="translate(0 0)">
						<g id="Gruppe_19277-2" transform="translate(3.251 0)">
							<path id="Pfad_19477-2" class="st5" d="M-612.1,22915.9l1.1,5.8c0.3,1.5-0.7,2.9-2.1,3.2l-0.5,0.1c-1.5,0.3-2.9-0.7-3.2-2.1"
								/>
							<path id="Pfad_19478-2" class="st5" d="M-615.1,22946.6v-10.2c0.9-0.7,1.4-1.7,1.5-2.8c0,0,1.2-4.7,1.2-4.7"/>
							<path id="Pfad_19479-2" class="st5" d="M-640.7,22946.6l-0.1-4.7l5.6-7.6c4.8-1.8,7,2.3,14.1,2.8l0.1,9.4"/>
							<path id="Pfad_19480-2" class="st5" d="M-606.7,22922.2c2.9,0.6,3.8-2.4,4.9-4.5c0.3-0.5,0-0.9-0.8-1.2
								c-1.1-0.5-2.6-1-4.3-1.7c-0.5-1.9-2.1-3.3-4.1-3.6c-3.1-0.7-5,1-6.5,3.2c-0.5,0.7-1.9,5.2-3,6.4l-2,1.6l-18.8,0.9
								c-1.3,0.1-2.6,0.7-3.5,1.7c-0.7,0.9-1.3,1.9-1.5,3c-0.5,1.7,0.2,4.8,2,8.3l-2.3,3.9l0.3,6.3"/>
						</g>
						<path id="Pfad_19481-2" class="st5" d="M-638.2,22923.3c0,0-9.6-0.2-8.2-8.3"/>
					</g>
					<g id="Gruppe_20340-2" transform="translate(63.583 0)">
						<g id="Gruppe_10169-2" transform="translate(0.478 0)">
							<path id="Pfad_9861-2" class="st4" d="M-628.5,22924.3l-4.6,4.6l-13.4-13.3l4.6-4.6L-628.5,22924.3z"/>
							<line id="Linie_2640-2" class="st4" x1="-630.5" y1="22926.9" x2="-625.9" y2="22931.5"/>
						</g>
						<path id="Pfad_9862-2" class="st4" d="M-621.4,22943.2c-2.4,1.8-5.4,2.8-8.4,2.8l0,0c-7.7,0-13.9-6.2-14-13.9v-2.6
							c0-1,0.1-2.1,0.4-3.1"/>
						<line id="Linie_2641-2" class="st4" x1="-626.2" y1="22937.5" x2="-612.6" y2="22937.5"/>
						<line id="Linie_2642-2" class="st4" x1="-646.5" y1="22946.1" x2="-611.5" y2="22946.1"/>
						<ellipse id="Ellipse_2106-2" class="st4" cx="-642.5" cy="22923.3" rx="2.9" ry="2.8"/>
						<ellipse id="Ellipse_2107-2" class="st4" cx="-618.6" cy="22940.9" rx="3.2" ry="3.2"/>
					</g>
				</g>
			</g>
			<g id="Gruppe_20345" transform="translate(631.695 -22830)">
				<g id="Gruppe_20341-2" transform="translate(0)">
					<g id="Gruppe_20332-3" transform="translate(116.08 0)">
						<rect id="Rechteck_2909-3" x="-646.5" y="22911" class="st3" width="35.1" height="35.1"/>
						<path id="Pfad_20537-3" class="st3" d="M-629,22915.6c-4.8,0-10,1.9-11.4,6.3l4.1,5.3h14.6l4.1-5.3
							C-618.9,22917.5-624.2,22915.6-629,22915.6z"/>
						<line id="Linie_4726-3" class="st3" x1="-630" y1="22926.5" x2="-627.9" y2="22920.7"/>
					</g>
					<g id="Gruppe_20336-3" transform="translate(211.5 1.967)">
						<path id="Pfad_20545-3" class="st3" d="M-597.3,22942.9h-49.2l5.2-17.8h39L-597.3,22942.9z"/>
						<path id="Pfad_20546-3" class="st3" d="M-606.2,22924.6c0.6-0.8,1-1.8,1-2.9c0-2.6-2.1-4.7-4.7-4.7c0,0,0,0,0,0
							c-1,0.1-2,0.4-2.9,1.1c0.2-0.6,0.3-1.2,0.3-1.8c0-2.9-2.3-5.2-5.2-5.2c-2.6,0-4.8,1.9-5.2,4.4c-0.4-2.4-2.5-4.2-5-4.2
							c-2.7,0-5,2.2-5,5c0,0,0,0,0,0c0,0.8,0.2,1.6,0.5,2.4c-0.6-0.6-1.5-0.9-2.4-0.8c-2.1,0.1-3.9,1.8-3.9,3.9
							c0,1.2,0.6,2.4,1.6,3.1"/>
					</g>
					<g id="Gruppe_20337-3" transform="translate(273.115 0.984)">
						<path id="Icon-32-3" class="st4" d="M-607.9,22918.1c-1.1-4.1-4.8-7-9.1-7.1h-0.4c-4.2,0.1-8,2.6-9.7,6.5
							c-1.7-3.9-5.5-6.4-9.7-6.5c-5.3-0.1-9.6,4.1-9.7,9.4c0,0,0,0,0,0c0,0.1,0,0.2,0,0.4c0,7.6,8.2,13.6,19.4,24.8
							c5.3-5.3,10-9.5,13.4-13.2"/>
						<path id="Pfad_13547-3" class="st4" d="M-631.7,22925h4.8l3.1,7.6l5.3-14.1l1.4,6.5h11.2"/>
					</g>
					<g id="Gruppe_20338-3" transform="translate(168.238 0.984)">
						<circle id="Ellipse_2433-3" class="st4" cx="-620.4" cy="22933.7" r="3.4"/>
						<g id="Gruppe_14065-3" transform="translate(0 0)">
							<path id="Pfad_13228-3" class="st4" d="M-625.7,22913.3v7.8c0,5.7-4.7,10.4-10.4,10.4l0,0c-5.7,0-10.4-4.7-10.4-10.4v-7.8"/>
							<path id="Rechteck_2246-3" class="st4" d="M-644.5,22911h0.6c1.1,0,2,0.9,2,2v3.9c0,1.1-0.9,2-2,2h-0.6c-1.1,0-2-0.9-2-2
								v-3.9C-646.5,22911.9-645.6,22911-644.5,22911z"/>
							<path id="Rechteck_2247-3" class="st4" d="M-628.3,22911h0.6c1.1,0,2,0.9,2,2v3.9c0,1.1-0.9,2-2,2h-0.6c-1.1,0-2-0.9-2-2
								v-3.9C-630.3,22911.9-629.4,22911-628.3,22911z"/>
						</g>
						<path id="Pfad_13229-3" class="st4" d="M-620.4,22937.8c0,4.3-3.5,7.8-7.8,7.8l0,0c-4.3,0-7.8-3.5-7.8-7.8v-5.8"/>
					</g>
					<g id="Gruppe_20339-3" transform="translate(0 0)">
						<g id="Gruppe_19277-3" transform="translate(3.251 0)">
							<path id="Pfad_19477-3" class="st5" d="M-612.1,22915.9l1.1,5.8c0.3,1.5-0.7,2.9-2.1,3.2l-0.5,0.1c-1.5,0.3-2.9-0.7-3.2-2.1"
								/>
							<path id="Pfad_19478-3" class="st5" d="M-615.1,22946.6v-10.2c0.9-0.7,1.4-1.7,1.5-2.8c0,0,1.2-4.7,1.2-4.7"/>
							<path id="Pfad_19479-3" class="st5" d="M-640.7,22946.6l-0.1-4.7l5.6-7.6c4.8-1.8,7,2.3,14.1,2.8l0.1,9.4"/>
							<path id="Pfad_19480-3" class="st5" d="M-606.7,22922.2c2.9,0.6,3.8-2.4,4.9-4.5c0.3-0.5,0-0.9-0.8-1.2
								c-1.1-0.5-2.6-1-4.3-1.7c-0.5-1.9-2.1-3.3-4.1-3.6c-3.1-0.7-5,1-6.5,3.2c-0.5,0.7-1.9,5.2-3,6.4l-2,1.6l-18.8,0.9
								c-1.3,0.1-2.6,0.7-3.5,1.7c-0.7,0.9-1.3,1.9-1.5,3c-0.5,1.7,0.2,4.8,2,8.3l-2.3,3.9l0.3,6.3"/>
						</g>
						<path id="Pfad_19481-3" class="st5" d="M-638.2,22923.3c0,0-9.6-0.2-8.2-8.3"/>
					</g>
					<g id="Gruppe_20340-3" transform="translate(63.583 0)">
						<g id="Gruppe_10169-3" transform="translate(0.478 0)">
							<path id="Pfad_9861-3" class="st4" d="M-628.5,22924.3l-4.6,4.6l-13.4-13.3l4.6-4.6L-628.5,22924.3z"/>
							<line id="Linie_2640-3" class="st4" x1="-630.5" y1="22926.9" x2="-625.9" y2="22931.5"/>
						</g>
						<path id="Pfad_9862-3" class="st4" d="M-621.4,22943.2c-2.4,1.8-5.4,2.8-8.4,2.8l0,0c-7.7,0-13.9-6.2-14-13.9v-2.6
							c0-1,0.1-2.1,0.4-3.1"/>
						<line id="Linie_2641-3" class="st4" x1="-626.2" y1="22937.5" x2="-612.6" y2="22937.5"/>
						<line id="Linie_2642-3" class="st4" x1="-646.5" y1="22946.1" x2="-611.5" y2="22946.1"/>
						<ellipse id="Ellipse_2106-3" class="st4" cx="-642.5" cy="22923.3" rx="2.9" ry="2.8"/>
						<ellipse id="Ellipse_2107-3" class="st4" cx="-618.6" cy="22940.9" rx="3.2" ry="3.2"/>
					</g>
				</g>
				<g id="Gruppe_20342-2" transform="translate(328.563)">
					<g id="Gruppe_20332-4" transform="translate(116.08 0)">
						<rect id="Rechteck_2909-4" x="-646.5" y="22911" class="st3" width="35.1" height="35.1"/>
						<path id="Pfad_20537-4" class="st3" d="M-629,22915.6c-4.8,0-10,1.9-11.4,6.3l4.1,5.3h14.6l4.1-5.3
							C-618.9,22917.5-624.2,22915.6-629,22915.6z"/>
						<line id="Linie_4726-4" class="st3" x1="-630" y1="22926.5" x2="-627.9" y2="22920.7"/>
					</g>
					<g id="Gruppe_20336-4" transform="translate(211.5 1.967)">
						<path id="Pfad_20545-4" class="st3" d="M-597.3,22942.9h-49.2l5.2-17.8h39L-597.3,22942.9z"/>
						<path id="Pfad_20546-4" class="st3" d="M-606.2,22924.6c0.6-0.8,1-1.8,1-2.9c0-2.6-2.1-4.7-4.7-4.7c0,0,0,0,0,0
							c-1,0.1-2,0.4-2.9,1.1c0.2-0.6,0.3-1.2,0.3-1.8c0-2.9-2.3-5.2-5.2-5.2c-2.6,0-4.8,1.9-5.2,4.4c-0.4-2.4-2.5-4.2-5-4.2
							c-2.7,0-5,2.2-5,5c0,0,0,0,0,0c0,0.8,0.2,1.6,0.5,2.4c-0.6-0.6-1.5-0.9-2.4-0.8c-2.1,0.1-3.9,1.8-3.9,3.9
							c0,1.2,0.6,2.4,1.6,3.1"/>
					</g>
					<g id="Gruppe_20337-4" transform="translate(273.115 0.984)">
						<path id="Icon-32-4" class="st4" d="M-607.9,22918.1c-1.1-4.1-4.8-7-9.1-7.1h-0.4c-4.2,0.1-8,2.6-9.7,6.5
							c-1.7-3.9-5.5-6.4-9.7-6.5c-5.3-0.1-9.6,4.1-9.7,9.4c0,0,0,0,0,0c0,0.1,0,0.2,0,0.4c0,7.6,8.2,13.6,19.4,24.8
							c5.3-5.3,10-9.5,13.4-13.2"/>
						<path id="Pfad_13547-4" class="st4" d="M-631.7,22925h4.8l3.1,7.6l5.3-14.1l1.4,6.5h11.2"/>
					</g>
					<g id="Gruppe_20338-4" transform="translate(168.238 0.984)">
						<circle id="Ellipse_2433-4" class="st4" cx="-620.4" cy="22933.7" r="3.4"/>
						<g id="Gruppe_14065-4" transform="translate(0 0)">
							<path id="Pfad_13228-4" class="st4" d="M-625.7,22913.3v7.8c0,5.7-4.7,10.4-10.4,10.4l0,0c-5.7,0-10.4-4.7-10.4-10.4v-7.8"/>
							<path id="Rechteck_2246-4" class="st4" d="M-644.5,22911h0.6c1.1,0,2,0.9,2,2v3.9c0,1.1-0.9,2-2,2h-0.6c-1.1,0-2-0.9-2-2
								v-3.9C-646.5,22911.9-645.6,22911-644.5,22911z"/>
							<path id="Rechteck_2247-4" class="st4" d="M-628.3,22911h0.6c1.1,0,2,0.9,2,2v3.9c0,1.1-0.9,2-2,2h-0.6c-1.1,0-2-0.9-2-2
								v-3.9C-630.3,22911.9-629.4,22911-628.3,22911z"/>
						</g>
						<path id="Pfad_13229-4" class="st4" d="M-620.4,22937.8c0,4.3-3.5,7.8-7.8,7.8l0,0c-4.3,0-7.8-3.5-7.8-7.8v-5.8"/>
					</g>
					<g id="Gruppe_20339-4" transform="translate(0 0)">
						<g id="Gruppe_19277-4" transform="translate(3.251 0)">
							<path id="Pfad_19477-4" class="st5" d="M-612.1,22915.9l1.1,5.8c0.3,1.5-0.7,2.9-2.1,3.2l-0.5,0.1c-1.5,0.3-2.9-0.7-3.2-2.1"
								/>
							<path id="Pfad_19478-4" class="st5" d="M-615.1,22946.6v-10.2c0.9-0.7,1.4-1.7,1.5-2.8c0,0,1.2-4.7,1.2-4.7"/>
							<path id="Pfad_19479-4" class="st5" d="M-640.7,22946.6l-0.1-4.7l5.6-7.6c4.8-1.8,7,2.3,14.1,2.8l0.1,9.4"/>
							<path id="Pfad_19480-4" class="st5" d="M-606.7,22922.2c2.9,0.6,3.8-2.4,4.9-4.5c0.3-0.5,0-0.9-0.8-1.2
								c-1.1-0.5-2.6-1-4.3-1.7c-0.5-1.9-2.1-3.3-4.1-3.6c-3.1-0.7-5,1-6.5,3.2c-0.5,0.7-1.9,5.2-3,6.4l-2,1.6l-18.8,0.9
								c-1.3,0.1-2.6,0.7-3.5,1.7c-0.7,0.9-1.3,1.9-1.5,3c-0.5,1.7,0.2,4.8,2,8.3l-2.3,3.9l0.3,6.3"/>
						</g>
						<path id="Pfad_19481-4" class="st5" d="M-638.2,22923.3c0,0-9.6-0.2-8.2-8.3"/>
					</g>
					<g id="Gruppe_20340-4" transform="translate(63.583 0)">
						<g id="Gruppe_10169-4" transform="translate(0.478 0)">
							<path id="Pfad_9861-4" class="st4" d="M-628.5,22924.3l-4.6,4.6l-13.4-13.3l4.6-4.6L-628.5,22924.3z"/>
							<line id="Linie_2640-4" class="st4" x1="-630.5" y1="22926.9" x2="-625.9" y2="22931.5"/>
						</g>
						<path id="Pfad_9862-4" class="st4" d="M-621.4,22943.2c-2.4,1.8-5.4,2.8-8.4,2.8l0,0c-7.7,0-13.9-6.2-14-13.9v-2.6
							c0-1,0.1-2.1,0.4-3.1"/>
						<line id="Linie_2641-4" class="st4" x1="-626.2" y1="22937.5" x2="-612.6" y2="22937.5"/>
						<line id="Linie_2642-4" class="st4" x1="-646.5" y1="22946.1" x2="-611.5" y2="22946.1"/>
						<ellipse id="Ellipse_2106-4" class="st4" cx="-642.5" cy="22923.3" rx="2.9" ry="2.8"/>
						<ellipse id="Ellipse_2107-4" class="st4" cx="-618.6" cy="22940.9" rx="3.2" ry="3.2"/>
					</g>
				</g>
			</g>
			<g id="Gruppe_20344" transform="translate(432 -22878.748)">
				<g id="Gruppe_20341-3">
					<g id="Gruppe_20332-5" transform="translate(116.08 0)">
						<rect id="Rechteck_2909-5" x="-646.5" y="22911" class="st3" width="35.1" height="35.1"/>
						<path id="Pfad_20537-5" class="st3" d="M-629,22915.6c-4.8,0-10,1.9-11.4,6.3l4.1,5.3h14.6l4.1-5.3
							C-618.9,22917.5-624.2,22915.6-629,22915.6z"/>
						<line id="Linie_4726-5" class="st3" x1="-630" y1="22926.5" x2="-627.9" y2="22920.7"/>
					</g>
					<g id="Gruppe_20336-5" transform="translate(211.5 1.967)">
						<path id="Pfad_20545-5" class="st3" d="M-597.3,22942.9h-49.2l5.2-17.8h39L-597.3,22942.9z"/>
						<path id="Pfad_20546-5" class="st3" d="M-606.2,22924.6c0.6-0.8,1-1.8,1-2.9c0-2.6-2.1-4.7-4.7-4.7c0,0,0,0,0,0
							c-1,0.1-2,0.4-2.9,1.1c0.2-0.6,0.3-1.2,0.3-1.8c0-2.9-2.3-5.2-5.2-5.2c-2.6,0-4.8,1.9-5.2,4.4c-0.4-2.4-2.5-4.2-5-4.2
							c-2.7,0-5,2.2-5,5c0,0,0,0,0,0c0,0.8,0.2,1.6,0.5,2.4c-0.6-0.6-1.5-0.9-2.4-0.8c-2.1,0.1-3.9,1.8-3.9,3.9
							c0,1.2,0.6,2.4,1.6,3.1"/>
					</g>
					<g id="Gruppe_20337-5" transform="translate(273.115 0.984)">
						<path id="Icon-32-5" class="st4" d="M-607.9,22918.1c-1.1-4.1-4.8-7-9.1-7.1h-0.4c-4.2,0.1-8,2.6-9.7,6.5
							c-1.7-3.9-5.5-6.4-9.7-6.5c-5.3-0.1-9.6,4.1-9.7,9.4c0,0,0,0,0,0c0,0.1,0,0.2,0,0.4c0,7.6,8.2,13.6,19.4,24.8
							c5.3-5.3,10-9.5,13.4-13.2"/>
						<path id="Pfad_13547-5" class="st4" d="M-631.7,22925h4.8l3.1,7.6l5.3-14.1l1.4,6.5h11.2"/>
					</g>
					<g id="Gruppe_20338-5" transform="translate(168.238 0.984)">
						<circle id="Ellipse_2433-5" class="st4" cx="-620.4" cy="22933.7" r="3.4"/>
						<g id="Gruppe_14065-5" transform="translate(0 0)">
							<path id="Pfad_13228-5" class="st4" d="M-625.7,22913.3v7.8c0,5.7-4.7,10.4-10.4,10.4l0,0c-5.7,0-10.4-4.7-10.4-10.4v-7.8"/>
							<path id="Rechteck_2246-5" class="st4" d="M-644.5,22911h0.6c1.1,0,2,0.9,2,2v3.9c0,1.1-0.9,2-2,2h-0.6c-1.1,0-2-0.9-2-2
								v-3.9C-646.5,22911.9-645.6,22911-644.5,22911z"/>
							<path id="Rechteck_2247-5" class="st4" d="M-628.3,22911h0.6c1.1,0,2,0.9,2,2v3.9c0,1.1-0.9,2-2,2h-0.6c-1.1,0-2-0.9-2-2
								v-3.9C-630.3,22911.9-629.4,22911-628.3,22911z"/>
						</g>
						<path id="Pfad_13229-5" class="st4" d="M-620.4,22937.8c0,4.3-3.5,7.8-7.8,7.8l0,0c-4.3,0-7.8-3.5-7.8-7.8v-5.8"/>
					</g>
					<g id="Gruppe_20339-5" transform="translate(0 0)">
						<g id="Gruppe_19277-5" transform="translate(3.251 0)">
							<path id="Pfad_19477-5" class="st5" d="M-612.1,22915.9l1.1,5.8c0.3,1.5-0.7,2.9-2.1,3.2l-0.5,0.1c-1.5,0.3-2.9-0.7-3.2-2.1"
								/>
							<path id="Pfad_19478-5" class="st5" d="M-615.1,22946.6v-10.2c0.9-0.7,1.4-1.7,1.5-2.8c0,0,1.2-4.7,1.2-4.7"/>
							<path id="Pfad_19479-5" class="st5" d="M-640.7,22946.6l-0.1-4.7l5.6-7.6c4.8-1.8,7,2.3,14.1,2.8l0.1,9.4"/>
							<path id="Pfad_19480-5" class="st5" d="M-606.7,22922.2c2.9,0.6,3.8-2.4,4.9-4.5c0.3-0.5,0-0.9-0.8-1.2
								c-1.1-0.5-2.6-1-4.3-1.7c-0.5-1.9-2.1-3.3-4.1-3.6c-3.1-0.7-5,1-6.5,3.2c-0.5,0.7-1.9,5.2-3,6.4l-2,1.6l-18.8,0.9
								c-1.3,0.1-2.6,0.7-3.5,1.7c-0.7,0.9-1.3,1.9-1.5,3c-0.5,1.7,0.2,4.8,2,8.3l-2.3,3.9l0.3,6.3"/>
						</g>
						<path id="Pfad_19481-5" class="st5" d="M-638.2,22923.3c0,0-9.6-0.2-8.2-8.3"/>
					</g>
					<g id="Gruppe_20340-5" transform="translate(63.583 0)">
						<g id="Gruppe_10169-5" transform="translate(0.478 0)">
							<path id="Pfad_9861-5" class="st4" d="M-628.5,22924.3l-4.6,4.6l-13.4-13.3l4.6-4.6L-628.5,22924.3z"/>
							<line id="Linie_2640-5" class="st4" x1="-630.5" y1="22926.9" x2="-625.9" y2="22931.5"/>
						</g>
						<path id="Pfad_9862-5" class="st4" d="M-621.4,22943.2c-2.4,1.8-5.4,2.8-8.4,2.8l0,0c-7.7,0-13.9-6.2-14-13.9v-2.6
							c0-1,0.1-2.1,0.4-3.1"/>
						<line id="Linie_2641-5" class="st4" x1="-626.2" y1="22937.5" x2="-612.6" y2="22937.5"/>
						<line id="Linie_2642-5" class="st4" x1="-646.5" y1="22946.1" x2="-611.5" y2="22946.1"/>
						<ellipse id="Ellipse_2106-5" class="st4" cx="-642.5" cy="22923.3" rx="2.9" ry="2.8"/>
						<ellipse id="Ellipse_2107-5" class="st4" cx="-618.6" cy="22940.9" rx="3.2" ry="3.2"/>
					</g>
				</g>
				<g id="Gruppe_20342-3" transform="translate(328.563)">
					<g id="Gruppe_20332-6" transform="translate(116.08 0)">
						<rect id="Rechteck_2909-6" x="-646.5" y="22911" class="st3" width="35.1" height="35.1"/>
						<path id="Pfad_20537-6" class="st3" d="M-629,22915.6c-4.8,0-10,1.9-11.4,6.3l4.1,5.3h14.6l4.1-5.3
							C-618.9,22917.5-624.2,22915.6-629,22915.6z"/>
						<line id="Linie_4726-6" class="st3" x1="-630" y1="22926.5" x2="-627.9" y2="22920.7"/>
					</g>
					<g id="Gruppe_20336-6" transform="translate(211.5 1.967)">
						<path id="Pfad_20545-6" class="st3" d="M-597.3,22942.9h-49.2l5.2-17.8h39L-597.3,22942.9z"/>
						<path id="Pfad_20546-6" class="st3" d="M-606.2,22924.6c0.6-0.8,1-1.8,1-2.9c0-2.6-2.1-4.7-4.7-4.7c0,0,0,0,0,0
							c-1,0.1-2,0.4-2.9,1.1c0.2-0.6,0.3-1.2,0.3-1.8c0-2.9-2.3-5.2-5.2-5.2c-2.6,0-4.8,1.9-5.2,4.4c-0.4-2.4-2.5-4.2-5-4.2
							c-2.7,0-5,2.2-5,5c0,0,0,0,0,0c0,0.8,0.2,1.6,0.5,2.4c-0.6-0.6-1.5-0.9-2.4-0.8c-2.1,0.1-3.9,1.8-3.9,3.9
							c0,1.2,0.6,2.4,1.6,3.1"/>
					</g>
					<g id="Gruppe_20337-6" transform="translate(273.115 0.984)">
						<path id="Icon-32-6" class="st4" d="M-607.9,22918.1c-1.1-4.1-4.8-7-9.1-7.1h-0.4c-4.2,0.1-8,2.6-9.7,6.5
							c-1.7-3.9-5.5-6.4-9.7-6.5c-5.3-0.1-9.6,4.1-9.7,9.4c0,0,0,0,0,0c0,0.1,0,0.2,0,0.4c0,7.6,8.2,13.6,19.4,24.8
							c5.3-5.3,10-9.5,13.4-13.2"/>
						<path id="Pfad_13547-6" class="st4" d="M-631.7,22925h4.8l3.1,7.6l5.3-14.1l1.4,6.5h11.2"/>
					</g>
					<g id="Gruppe_20338-6" transform="translate(168.238 0.984)">
						<circle id="Ellipse_2433-6" class="st4" cx="-620.4" cy="22933.7" r="3.4"/>
						<g id="Gruppe_14065-6" transform="translate(0 0)">
							<path id="Pfad_13228-6" class="st4" d="M-625.7,22913.3v7.8c0,5.7-4.7,10.4-10.4,10.4l0,0c-5.7,0-10.4-4.7-10.4-10.4v-7.8"/>
							<path id="Rechteck_2246-6" class="st4" d="M-644.5,22911h0.6c1.1,0,2,0.9,2,2v3.9c0,1.1-0.9,2-2,2h-0.6c-1.1,0-2-0.9-2-2
								v-3.9C-646.5,22911.9-645.6,22911-644.5,22911z"/>
							<path id="Rechteck_2247-6" class="st4" d="M-628.3,22911h0.6c1.1,0,2,0.9,2,2v3.9c0,1.1-0.9,2-2,2h-0.6c-1.1,0-2-0.9-2-2
								v-3.9C-630.3,22911.9-629.4,22911-628.3,22911z"/>
						</g>
						<path id="Pfad_13229-6" class="st4" d="M-620.4,22937.8c0,4.3-3.5,7.8-7.8,7.8l0,0c-4.3,0-7.8-3.5-7.8-7.8v-5.8"/>
					</g>
					<g id="Gruppe_20339-6" transform="translate(0 0)">
						<g id="Gruppe_19277-6" transform="translate(3.251 0)">
							<path id="Pfad_19477-6" class="st5" d="M-612.1,22915.9l1.1,5.8c0.3,1.5-0.7,2.9-2.1,3.2l-0.5,0.1c-1.5,0.3-2.9-0.7-3.2-2.1"
								/>
							<path id="Pfad_19478-6" class="st5" d="M-615.1,22946.6v-10.2c0.9-0.7,1.4-1.7,1.5-2.8c0,0,1.2-4.7,1.2-4.7"/>
							<path id="Pfad_19479-6" class="st5" d="M-640.7,22946.6l-0.1-4.7l5.6-7.6c4.8-1.8,7,2.3,14.1,2.8l0.1,9.4"/>
							<path id="Pfad_19480-6" class="st5" d="M-606.7,22922.2c2.9,0.6,3.8-2.4,4.9-4.5c0.3-0.5,0-0.9-0.8-1.2
								c-1.1-0.5-2.6-1-4.3-1.7c-0.5-1.9-2.1-3.3-4.1-3.6c-3.1-0.7-5,1-6.5,3.2c-0.5,0.7-1.9,5.2-3,6.4l-2,1.6l-18.8,0.9
								c-1.3,0.1-2.6,0.7-3.5,1.7c-0.7,0.9-1.3,1.9-1.5,3c-0.5,1.7,0.2,4.8,2,8.3l-2.3,3.9l0.3,6.3"/>
						</g>
						<path id="Pfad_19481-6" class="st5" d="M-638.2,22923.3c0,0-9.6-0.2-8.2-8.3"/>
					</g>
					<g id="Gruppe_20340-6" transform="translate(63.583 0)">
						<g id="Gruppe_10169-6" transform="translate(0.478 0)">
							<path id="Pfad_9861-6" class="st4" d="M-628.5,22924.3l-4.6,4.6l-13.4-13.3l4.6-4.6L-628.5,22924.3z"/>
							<line id="Linie_2640-6" class="st4" x1="-630.5" y1="22926.9" x2="-625.9" y2="22931.5"/>
						</g>
						<path id="Pfad_9862-6" class="st4" d="M-621.4,22943.2c-2.4,1.8-5.4,2.8-8.4,2.8l0,0c-7.7,0-13.9-6.2-14-13.9v-2.6
							c0-1,0.1-2.1,0.4-3.1"/>
						<line id="Linie_2641-6" class="st4" x1="-626.2" y1="22937.5" x2="-612.6" y2="22937.5"/>
						<line id="Linie_2642-6" class="st4" x1="-646.5" y1="22946.1" x2="-611.5" y2="22946.1"/>
						<ellipse id="Ellipse_2106-6" class="st4" cx="-642.5" cy="22923.3" rx="2.9" ry="2.8"/>
						<ellipse id="Ellipse_2107-6" class="st4" cx="-618.6" cy="22940.9" rx="3.2" ry="3.2"/>
					</g>
				</g>
			</g>
			<g id="Gruppe_20346" transform="translate(432 -22781.748)">
				<g id="Gruppe_20341-4">
					<g id="Gruppe_20332-7" transform="translate(116.08 0)">
						<rect id="Rechteck_2909-7" x="-646.5" y="22911" class="st3" width="35.1" height="35.1"/>
						<path id="Pfad_20537-7" class="st3" d="M-629,22915.6c-4.8,0-10,1.9-11.4,6.3l4.1,5.3h14.6l4.1-5.3
							C-618.9,22917.5-624.2,22915.6-629,22915.6z"/>
						<line id="Linie_4726-7" class="st3" x1="-630" y1="22926.5" x2="-627.9" y2="22920.7"/>
					</g>
					<g id="Gruppe_20336-7" transform="translate(211.5 1.967)">
						<path id="Pfad_20545-7" class="st3" d="M-597.3,22942.9h-49.2l5.2-17.8h39L-597.3,22942.9z"/>
						<path id="Pfad_20546-7" class="st3" d="M-606.2,22924.6c0.6-0.8,1-1.8,1-2.9c0-2.6-2.1-4.7-4.7-4.7c0,0,0,0,0,0
							c-1,0.1-2,0.4-2.9,1.1c0.2-0.6,0.3-1.2,0.3-1.8c0-2.9-2.3-5.2-5.2-5.2c-2.6,0-4.8,1.9-5.2,4.4c-0.4-2.4-2.5-4.2-5-4.2
							c-2.7,0-5,2.2-5,5c0,0,0,0,0,0c0,0.8,0.2,1.6,0.5,2.4c-0.6-0.6-1.5-0.9-2.4-0.8c-2.1,0.1-3.9,1.8-3.9,3.9
							c0,1.2,0.6,2.4,1.6,3.1"/>
					</g>
					<g id="Gruppe_20337-7" transform="translate(273.115 0.984)">
						<path id="Icon-32-7" class="st4" d="M-607.9,22918.1c-1.1-4.1-4.8-7-9.1-7.1h-0.4c-4.2,0.1-8,2.6-9.7,6.5
							c-1.7-3.9-5.5-6.4-9.7-6.5c-5.3-0.1-9.6,4.1-9.7,9.4c0,0,0,0,0,0c0,0.1,0,0.2,0,0.4c0,7.6,8.2,13.6,19.4,24.8
							c5.3-5.3,10-9.5,13.4-13.2"/>
						<path id="Pfad_13547-7" class="st4" d="M-631.7,22925h4.8l3.1,7.6l5.3-14.1l1.4,6.5h11.2"/>
					</g>
					<g id="Gruppe_20338-7" transform="translate(168.238 0.984)">
						<circle id="Ellipse_2433-7" class="st4" cx="-620.4" cy="22933.7" r="3.4"/>
						<g id="Gruppe_14065-7" transform="translate(0 0)">
							<path id="Pfad_13228-7" class="st4" d="M-625.7,22913.3v7.8c0,5.7-4.7,10.4-10.4,10.4l0,0c-5.7,0-10.4-4.7-10.4-10.4v-7.8"/>
							<path id="Rechteck_2246-7" class="st4" d="M-644.5,22911h0.6c1.1,0,2,0.9,2,2v3.9c0,1.1-0.9,2-2,2h-0.6c-1.1,0-2-0.9-2-2
								v-3.9C-646.5,22911.9-645.6,22911-644.5,22911z"/>
							<path id="Rechteck_2247-7" class="st4" d="M-628.3,22911h0.6c1.1,0,2,0.9,2,2v3.9c0,1.1-0.9,2-2,2h-0.6c-1.1,0-2-0.9-2-2
								v-3.9C-630.3,22911.9-629.4,22911-628.3,22911z"/>
						</g>
						<path id="Pfad_13229-7" class="st4" d="M-620.4,22937.8c0,4.3-3.5,7.8-7.8,7.8l0,0c-4.3,0-7.8-3.5-7.8-7.8v-5.8"/>
					</g>
					<g id="Gruppe_20339-7" transform="translate(0 0)">
						<g id="Gruppe_19277-7" transform="translate(3.251 0)">
							<path id="Pfad_19477-7" class="st5" d="M-612.1,22915.9l1.1,5.8c0.3,1.5-0.7,2.9-2.1,3.2l-0.5,0.1c-1.5,0.3-2.9-0.7-3.2-2.1"
								/>
							<path id="Pfad_19478-7" class="st5" d="M-615.1,22946.6v-10.2c0.9-0.7,1.4-1.7,1.5-2.8c0,0,1.2-4.7,1.2-4.7"/>
							<path id="Pfad_19479-7" class="st5" d="M-640.7,22946.6l-0.1-4.7l5.6-7.6c4.8-1.8,7,2.3,14.1,2.8l0.1,9.4"/>
							<path id="Pfad_19480-7" class="st5" d="M-606.7,22922.2c2.9,0.6,3.8-2.4,4.9-4.5c0.3-0.5,0-0.9-0.8-1.2
								c-1.1-0.5-2.6-1-4.3-1.7c-0.5-1.9-2.1-3.3-4.1-3.6c-3.1-0.7-5,1-6.5,3.2c-0.5,0.7-1.9,5.2-3,6.4l-2,1.6l-18.8,0.9
								c-1.3,0.1-2.6,0.7-3.5,1.7c-0.7,0.9-1.3,1.9-1.5,3c-0.5,1.7,0.2,4.8,2,8.3l-2.3,3.9l0.3,6.3"/>
						</g>
						<path id="Pfad_19481-7" class="st5" d="M-638.2,22923.3c0,0-9.6-0.2-8.2-8.3"/>
					</g>
					<g id="Gruppe_20340-7" transform="translate(63.583 0)">
						<g id="Gruppe_10169-7" transform="translate(0.478 0)">
							<path id="Pfad_9861-7" class="st4" d="M-628.5,22924.3l-4.6,4.6l-13.4-13.3l4.6-4.6L-628.5,22924.3z"/>
							<line id="Linie_2640-7" class="st4" x1="-630.5" y1="22926.9" x2="-625.9" y2="22931.5"/>
						</g>
						<path id="Pfad_9862-7" class="st4" d="M-621.4,22943.2c-2.4,1.8-5.4,2.8-8.4,2.8l0,0c-7.7,0-13.9-6.2-14-13.9v-2.6
							c0-1,0.1-2.1,0.4-3.1"/>
						<line id="Linie_2641-7" class="st4" x1="-626.2" y1="22937.5" x2="-612.6" y2="22937.5"/>
						<line id="Linie_2642-7" class="st4" x1="-646.5" y1="22946.1" x2="-611.5" y2="22946.1"/>
						<ellipse id="Ellipse_2106-7" class="st4" cx="-642.5" cy="22923.3" rx="2.9" ry="2.8"/>
						<ellipse id="Ellipse_2107-7" class="st4" cx="-618.6" cy="22940.9" rx="3.2" ry="3.2"/>
					</g>
				</g>
				<g id="Gruppe_20342-4" transform="translate(328.563)">
					<g id="Gruppe_20332-8" transform="translate(116.08 0)">
						<rect id="Rechteck_2909-8" x="-646.5" y="22911" class="st3" width="35.1" height="35.1"/>
						<path id="Pfad_20537-8" class="st3" d="M-629,22915.6c-4.8,0-10,1.9-11.4,6.3l4.1,5.3h14.6l4.1-5.3
							C-618.9,22917.5-624.2,22915.6-629,22915.6z"/>
						<line id="Linie_4726-8" class="st3" x1="-630" y1="22926.5" x2="-627.9" y2="22920.7"/>
					</g>
					<g id="Gruppe_20336-8" transform="translate(211.5 1.967)">
						<path id="Pfad_20545-8" class="st3" d="M-597.3,22942.9h-49.2l5.2-17.8h39L-597.3,22942.9z"/>
						<path id="Pfad_20546-8" class="st3" d="M-606.2,22924.6c0.6-0.8,1-1.8,1-2.9c0-2.6-2.1-4.7-4.7-4.7c0,0,0,0,0,0
							c-1,0.1-2,0.4-2.9,1.1c0.2-0.6,0.3-1.2,0.3-1.8c0-2.9-2.3-5.2-5.2-5.2c-2.6,0-4.8,1.9-5.2,4.4c-0.4-2.4-2.5-4.2-5-4.2
							c-2.7,0-5,2.2-5,5c0,0,0,0,0,0c0,0.8,0.2,1.6,0.5,2.4c-0.6-0.6-1.5-0.9-2.4-0.8c-2.1,0.1-3.9,1.8-3.9,3.9
							c0,1.2,0.6,2.4,1.6,3.1"/>
					</g>
					<g id="Gruppe_20337-8" transform="translate(273.115 0.984)">
						<path id="Icon-32-8" class="st4" d="M-607.9,22918.1c-1.1-4.1-4.8-7-9.1-7.1h-0.4c-4.2,0.1-8,2.6-9.7,6.5
							c-1.7-3.9-5.5-6.4-9.7-6.5c-5.3-0.1-9.6,4.1-9.7,9.4c0,0,0,0,0,0c0,0.1,0,0.2,0,0.4c0,7.6,8.2,13.6,19.4,24.8
							c5.3-5.3,10-9.5,13.4-13.2"/>
						<path id="Pfad_13547-8" class="st4" d="M-631.7,22925h4.8l3.1,7.6l5.3-14.1l1.4,6.5h11.2"/>
					</g>
					<g id="Gruppe_20338-8" transform="translate(168.238 0.984)">
						<circle id="Ellipse_2433-8" class="st4" cx="-620.4" cy="22933.7" r="3.4"/>
						<g id="Gruppe_14065-8" transform="translate(0 0)">
							<path id="Pfad_13228-8" class="st4" d="M-625.7,22913.3v7.8c0,5.7-4.7,10.4-10.4,10.4l0,0c-5.7,0-10.4-4.7-10.4-10.4v-7.8"/>
							<path id="Rechteck_2246-8" class="st4" d="M-644.5,22911h0.6c1.1,0,2,0.9,2,2v3.9c0,1.1-0.9,2-2,2h-0.6c-1.1,0-2-0.9-2-2
								v-3.9C-646.5,22911.9-645.6,22911-644.5,22911z"/>
							<path id="Rechteck_2247-8" class="st4" d="M-628.3,22911h0.6c1.1,0,2,0.9,2,2v3.9c0,1.1-0.9,2-2,2h-0.6c-1.1,0-2-0.9-2-2
								v-3.9C-630.3,22911.9-629.4,22911-628.3,22911z"/>
						</g>
						<path id="Pfad_13229-8" class="st4" d="M-620.4,22937.8c0,4.3-3.5,7.8-7.8,7.8l0,0c-4.3,0-7.8-3.5-7.8-7.8v-5.8"/>
					</g>
					<g id="Gruppe_20339-8" transform="translate(0 0)">
						<g id="Gruppe_19277-8" transform="translate(3.251 0)">
							<path id="Pfad_19477-8" class="st5" d="M-612.1,22915.9l1.1,5.8c0.3,1.5-0.7,2.9-2.1,3.2l-0.5,0.1c-1.5,0.3-2.9-0.7-3.2-2.1"
								/>
							<path id="Pfad_19478-8" class="st5" d="M-615.1,22946.6v-10.2c0.9-0.7,1.4-1.7,1.5-2.8c0,0,1.2-4.7,1.2-4.7"/>
							<path id="Pfad_19479-8" class="st5" d="M-640.7,22946.6l-0.1-4.7l5.6-7.6c4.8-1.8,7,2.3,14.1,2.8l0.1,9.4"/>
							<path id="Pfad_19480-8" class="st5" d="M-606.7,22922.2c2.9,0.6,3.8-2.4,4.9-4.5c0.3-0.5,0-0.9-0.8-1.2
								c-1.1-0.5-2.6-1-4.3-1.7c-0.5-1.9-2.1-3.3-4.1-3.6c-3.1-0.7-5,1-6.5,3.2c-0.5,0.7-1.9,5.2-3,6.4l-2,1.6l-18.8,0.9
								c-1.3,0.1-2.6,0.7-3.5,1.7c-0.7,0.9-1.3,1.9-1.5,3c-0.5,1.7,0.2,4.8,2,8.3l-2.3,3.9l0.3,6.3"/>
						</g>
						<path id="Pfad_19481-8" class="st5" d="M-638.2,22923.3c0,0-9.6-0.2-8.2-8.3"/>
					</g>
					<g id="Gruppe_20340-8" transform="translate(63.583 0)">
						<g id="Gruppe_10169-8" transform="translate(0.478 0)">
							<path id="Pfad_9861-8" class="st4" d="M-628.5,22924.3l-4.6,4.6l-13.4-13.3l4.6-4.6L-628.5,22924.3z"/>
							<line id="Linie_2640-8" class="st4" x1="-630.5" y1="22926.9" x2="-625.9" y2="22931.5"/>
						</g>
						<path id="Pfad_9862-8" class="st4" d="M-621.4,22943.2c-2.4,1.8-5.4,2.8-8.4,2.8l0,0c-7.7,0-13.9-6.2-14-13.9v-2.6
							c0-1,0.1-2.1,0.4-3.1"/>
						<line id="Linie_2641-8" class="st4" x1="-626.2" y1="22937.5" x2="-612.6" y2="22937.5"/>
						<line id="Linie_2642-8" class="st4" x1="-646.5" y1="22946.1" x2="-611.5" y2="22946.1"/>
						<ellipse id="Ellipse_2106-8" class="st4" cx="-642.5" cy="22923.3" rx="2.9" ry="2.8"/>
						<ellipse id="Ellipse_2107-8" class="st4" cx="-618.6" cy="22940.9" rx="3.2" ry="3.2"/>
					</g>
				</g>
			</g>
		</g>
	</g>
</g>
</svg>
