<?xml version="1.0" encoding="utf-8"?>
<!-- Generator: Adobe Illustrator 24.3.0, SVG Export Plug-In . SVG Version: 6.00 Build 0)  -->
<svg version="1.1" id="Ebene_1" xmlns="http://www.w3.org/2000/svg" xmlns:xlink="http://www.w3.org/1999/xlink" x="0px" y="0px"
	 viewBox="0 0 321 152" style="enable-background:new 0 0 321 152;" xml:space="preserve">
<style type="text/css">
	.st0{clip-path:url(#SVGID_2_);}
	.st1{fill:#F4F4F4;}
	.st2{opacity:0.52;}
	.st3{fill:none;stroke:#DFDFDF;stroke-width:2;stroke-linecap:round;stroke-linejoin:round;stroke-miterlimit:10;}
	.st4{fill:none;stroke:#DFDFDF;stroke-width:2;stroke-linecap:round;stroke-linejoin:round;}
</style>
<g>
	<defs>
		<rect id="SVGID_1_" x="0" y="0" width="321" height="152"/>
	</defs>
	<clipPath id="SVGID_2_">
		<use xlink:href="#SVGID_1_"  style="overflow:visible;"/>
	</clipPath>
	<g class="st0">
		<rect id="Rechteck_2905" x="-18.2" y="-4.1" class="st1" width="372.2" height="162.2"/>
		<g id="Gruppe_20347" transform="translate(4)" class="st2">
			<g id="Gruppe_20343" transform="translate(631.695 -22927)">
				<g id="Gruppe_20341" transform="translate(0)">
					<g id="Gruppe_20332" transform="translate(116.08 0)">
						<rect id="Rechteck_2909" x="-646.2" y="22911" class="st3" width="35.1" height="35.1"/>
						<path id="Pfad_20537" class="st3" d="M-628.7,22915.6c-4.8,0-10,1.9-11.4,6.3l4.1,5.3h14.6l4.1-5.3
							C-618.6,22917.5-623.9,22915.6-628.7,22915.6z"/>
						<line id="Linie_4726" class="st3" x1="-629.7" y1="22926.5" x2="-627.6" y2="22920.7"/>
					</g>
					<g id="Gruppe_20336" transform="translate(211.5 1.967)">
						<path id="Pfad_20545" class="st3" d="M-597,22942.9h-49.2l5.2-17.8h39L-597,22942.9z"/>
						<path id="Pfad_20546" class="st3" d="M-605.9,22924.6c0.6-0.8,1-1.8,1-2.9c0-2.6-2.1-4.7-4.7-4.7l0,0c-1,0.1-2,0.4-2.9,1.1
							c0.2-0.6,0.3-1.2,0.3-1.8c0-2.9-2.3-5.2-5.2-5.2c-2.6,0-4.8,1.9-5.2,4.4c-0.4-2.4-2.5-4.2-5-4.2c-2.7,0-5,2.2-5,5l0,0
							c0,0.8,0.2,1.6,0.5,2.4c-0.6-0.6-1.5-0.9-2.4-0.8c-2.1,0.1-3.9,1.8-3.9,3.9c0,1.2,0.6,2.4,1.6,3.1"/>
					</g>
					<g id="Gruppe_20337" transform="translate(273.115 0.984)">
						<path id="Icon-32" class="st4" d="M-607.6,22918.1c-1.1-4.1-4.8-7-9.1-7.1h-0.4c-4.2,0.1-8,2.6-9.7,6.5
							c-1.7-3.9-5.5-6.4-9.7-6.5c-5.3-0.1-9.6,4.1-9.7,9.4l0,0c0,0.1,0,0.2,0,0.4c0,7.6,8.2,13.6,19.4,24.8
							c5.3-5.3,10-9.5,13.4-13.2"/>
						<path id="Pfad_13547" class="st4" d="M-631.4,22925h4.8l3.1,7.6l5.3-14.1l1.4,6.5h11.2"/>
					</g>
					<g id="Gruppe_20338" transform="translate(168.238 0.984)">
						<circle id="Ellipse_2433" class="st4" cx="-620.1" cy="22933.7" r="3.4"/>
						<g id="Gruppe_14065" transform="translate(0 0)">
							<path id="Pfad_13228" class="st4" d="M-625.4,22913.3v7.8c0,5.7-4.7,10.4-10.4,10.4l0,0c-5.7,0-10.4-4.7-10.4-10.4v-7.8"/>
							<path id="Rechteck_2246" class="st4" d="M-644.2,22911h0.6c1.1,0,2,0.9,2,2v3.9c0,1.1-0.9,2-2,2h-0.6c-1.1,0-2-0.9-2-2v-3.9
								C-646.2,22911.9-645.3,22911-644.2,22911z"/>
							<path id="Rechteck_2247" class="st4" d="M-628,22911h0.6c1.1,0,2,0.9,2,2v3.9c0,1.1-0.9,2-2,2h-0.6c-1.1,0-2-0.9-2-2v-3.9
								C-630,22911.9-629.1,22911-628,22911z"/>
						</g>
						<path id="Pfad_13229" class="st4" d="M-620.1,22937.8c0,4.3-3.5,7.8-7.8,7.8l0,0c-4.3,0-7.8-3.5-7.8-7.8v-5.8"/>
					</g>
					<g id="Gruppe_20340" transform="translate(63.583 0)">
						<g id="Gruppe_10169" transform="translate(0.478 0)">
							<path id="Pfad_9861" class="st4" d="M-628.2,22924.3l-4.6,4.6l-13.4-13.3l4.6-4.6L-628.2,22924.3z"/>
							<line id="Linie_2640" class="st4" x1="-630.2" y1="22926.9" x2="-625.6" y2="22931.5"/>
						</g>
						<path id="Pfad_9862" class="st4" d="M-621.1,22943.2c-2.4,1.8-5.4,2.8-8.4,2.8l0,0c-7.7,0-13.9-6.2-14-13.9v-2.6
							c0-1,0.1-2.1,0.4-3.1"/>
						<line id="Linie_2641" class="st4" x1="-625.9" y1="22937.5" x2="-612.3" y2="22937.5"/>
						<line id="Linie_2642" class="st4" x1="-646.2" y1="22946.1" x2="-611.2" y2="22946.1"/>
						<ellipse id="Ellipse_2106" class="st4" cx="-642.2" cy="22923.3" rx="2.9" ry="2.8"/>
						<ellipse id="Ellipse_2107" class="st4" cx="-618.3" cy="22940.9" rx="3.2" ry="3.2"/>
					</g>
					<g>
						<g>
							<g>
								<path class="st3" d="M-608.9,22946.5v-9.4c2.1-2.4,2.1-3.2,2.9-8"/>
								<path class="st3" d="M-631.8,22946.5l-0.8-4.3l4.1-5.5c3.9-1.1,7.6,0.1,14.1,0.6v9.2"/>
								<path class="st3" d="M-600.5,22925.9"/>
							</g>
							<path class="st3" d="M-636.2,22926.7c2.4-6.1-5.9-8.3-0.5-13.8"/>
						</g>
						<path class="st3" d="M-605.8,22925.1c0.4,0.1,3,1.1,5.5-0.6c0.9-0.6,2.3-3.1,2-3.3l-1.5-1.3c0,0,0.1-2.7-1.1-3.7
							c-1.4-1.3-3.8-1.5-3.8-1.5l-0.6-3.7c0,0-2.3,0.7-3.5,2c-1,1.2-1.3,2.7-1.3,2.7l-4.6,7.9l-18.2,1.5c-2.1,0.1-3.2,1.6-3.2,1.6
							c-0.3,0.4-1,1.3-1.4,2.8c-0.4,1.6,0.2,4.4,1.8,7.6l-2.1,3.6l1,5.8"/>
					</g>
				</g>
				<g id="Gruppe_20341_1_" transform="translate(0)">
					<g id="Gruppe_20332_1_" transform="translate(116.08 0)">
						<rect id="Rechteck_2909_1_" x="-325.2" y="22911" class="st3" width="35.1" height="35.1"/>
						<path id="Pfad_20537_1_" class="st3" d="M-307.7,22915.6c-4.8,0-10,1.9-11.4,6.3l4.1,5.3h14.6l4.1-5.3
							C-297.6,22917.5-302.9,22915.6-307.7,22915.6z"/>
						<line id="Linie_4726_1_" class="st3" x1="-308.7" y1="22926.5" x2="-306.6" y2="22920.7"/>
					</g>
					<g id="Gruppe_20336_1_" transform="translate(211.5 1.967)">
						<path id="Pfad_20545_1_" class="st3" d="M-276,22942.9h-49.2l5.2-17.8h39L-276,22942.9z"/>
						<path id="Pfad_20546_1_" class="st3" d="M-284.9,22924.6c0.6-0.8,1-1.8,1-2.9c0-2.6-2.1-4.7-4.7-4.7l0,0c-1,0.1-2,0.4-2.9,1.1
							c0.2-0.6,0.3-1.2,0.3-1.8c0-2.9-2.3-5.2-5.2-5.2c-2.6,0-4.8,1.9-5.2,4.4c-0.4-2.4-2.5-4.2-5-4.2c-2.7,0-5,2.2-5,5l0,0
							c0,0.8,0.2,1.6,0.5,2.4c-0.6-0.6-1.5-0.9-2.4-0.8c-2.1,0.1-3.9,1.8-3.9,3.9c0,1.2,0.6,2.4,1.6,3.1"/>
					</g>
					<g id="Gruppe_20337_1_" transform="translate(273.115 0.984)">
						<path id="Icon-32_1_" class="st4" d="M-286.6,22918.1c-1.1-4.1-4.8-7-9.1-7.1h-0.4c-4.2,0.1-8,2.6-9.7,6.5
							c-1.7-3.9-5.5-6.4-9.7-6.5c-5.3-0.1-9.6,4.1-9.7,9.4l0,0c0,0.1,0,0.2,0,0.4c0,7.6,8.2,13.6,19.4,24.8
							c5.3-5.3,10-9.5,13.4-13.2"/>
						<path id="Pfad_13547_1_" class="st4" d="M-310.4,22925h4.8l3.1,7.6l5.3-14.1l1.4,6.5h11.2"/>
					</g>
					<g id="Gruppe_20338_1_" transform="translate(168.238 0.984)">
						<circle id="Ellipse_2433_1_" class="st4" cx="-299.1" cy="22933.7" r="3.4"/>
						<g id="Gruppe_14065_1_" transform="translate(0 0)">
							<path id="Pfad_13228_1_" class="st4" d="M-304.4,22913.3v7.8c0,5.7-4.7,10.4-10.4,10.4l0,0c-5.7,0-10.4-4.7-10.4-10.4v-7.8"
								/>
							<path id="Rechteck_2246_1_" class="st4" d="M-323.2,22911h0.6c1.1,0,2,0.9,2,2v3.9c0,1.1-0.9,2-2,2h-0.6c-1.1,0-2-0.9-2-2
								v-3.9C-325.2,22911.9-324.3,22911-323.2,22911z"/>
							<path id="Rechteck_2247_1_" class="st4" d="M-307,22911h0.6c1.1,0,2,0.9,2,2v3.9c0,1.1-0.9,2-2,2h-0.6c-1.1,0-2-0.9-2-2v-3.9
								C-309,22911.9-308.1,22911-307,22911z"/>
						</g>
						<path id="Pfad_13229_1_" class="st4" d="M-299.1,22937.8c0,4.3-3.5,7.8-7.8,7.8l0,0c-4.3,0-7.8-3.5-7.8-7.8v-5.8"/>
					</g>
					<g id="Gruppe_20340_1_" transform="translate(63.583 0)">
						<g id="Gruppe_10169_1_" transform="translate(0.478 0)">
							<path id="Pfad_9861_1_" class="st4" d="M-307.2,22924.3l-4.6,4.6l-13.4-13.3l4.6-4.6L-307.2,22924.3z"/>
							<line id="Linie_2640_1_" class="st4" x1="-309.2" y1="22926.9" x2="-304.6" y2="22931.5"/>
						</g>
						<path id="Pfad_9862_1_" class="st4" d="M-300.1,22943.2c-2.4,1.8-5.4,2.8-8.4,2.8l0,0c-7.7,0-13.9-6.2-14-13.9v-2.6
							c0-1,0.1-2.1,0.4-3.1"/>
						<line id="Linie_2641_1_" class="st4" x1="-304.9" y1="22937.5" x2="-291.3" y2="22937.5"/>
						<line id="Linie_2642_1_" class="st4" x1="-325.2" y1="22946.1" x2="-290.2" y2="22946.1"/>
						<ellipse id="Ellipse_2106_1_" class="st4" cx="-321.2" cy="22923.3" rx="2.9" ry="2.8"/>
						<ellipse id="Ellipse_2107_1_" class="st4" cx="-297.3" cy="22940.9" rx="3.2" ry="3.2"/>
					</g>
					<g>
						<g>
							<g>
								<path class="st3" d="M-287.9,22946.5v-9.4c2.1-2.4,2.1-3.2,2.9-8"/>
								<path class="st3" d="M-310.8,22946.5l-0.8-4.3l4.1-5.5c3.9-1.1,7.6,0.1,14.1,0.6v9.2"/>
								<path class="st3" d="M-279.5,22925.9"/>
							</g>
							<path class="st3" d="M-315.2,22926.7c2.4-6.1-5.9-8.3-0.5-13.8"/>
						</g>
						<path class="st3" d="M-284.8,22925.1c0.4,0.1,3,1.1,5.5-0.6c0.9-0.6,2.3-3.1,2-3.3l-1.5-1.3c0,0,0.1-2.7-1.1-3.7
							c-1.4-1.3-3.8-1.5-3.8-1.5l-0.6-3.7c0,0-2.3,0.7-3.5,2c-1,1.2-1.3,2.7-1.3,2.7l-4.6,7.9l-18.2,1.5c-2.1,0.1-3.2,1.6-3.2,1.6
							c-0.3,0.4-1,1.3-1.4,2.8c-0.4,1.6,0.2,4.4,1.8,7.6l-2.1,3.6l1,5.8"/>
					</g>
				</g>
			</g>
			<g id="Gruppe_20343_1_" transform="translate(631.695 -22927)">
				<g id="Gruppe_20341_3_" transform="translate(0)">
					<g id="Gruppe_20332_3_" transform="translate(116.08 0)">
						<rect id="Rechteck_2909_3_" x="-838.2" y="22959.3" class="st3" width="35.1" height="35.1"/>
						<path id="Pfad_20537_3_" class="st3" d="M-820.7,22963.9c-4.8,0-10,1.9-11.4,6.3l4.1,5.3h14.6l4.1-5.3
							C-810.6,22965.8-815.9,22963.9-820.7,22963.9z"/>
						<line id="Linie_4726_3_" class="st3" x1="-821.7" y1="22974.8" x2="-819.6" y2="22969"/>
					</g>
					<g id="Gruppe_20336_3_" transform="translate(211.5 1.967)">
						<path id="Pfad_20545_3_" class="st3" d="M-789,22991.2h-49.2l5.2-17.8h39L-789,22991.2z"/>
						<path id="Pfad_20546_3_" class="st3" d="M-797.9,22972.9c0.6-0.8,1-1.8,1-2.9c0-2.6-2.1-4.7-4.7-4.7l0,0c-1,0.1-2,0.4-2.9,1.1
							c0.2-0.6,0.3-1.2,0.3-1.8c0-2.9-2.3-5.2-5.2-5.2c-2.6,0-4.8,1.9-5.2,4.4c-0.4-2.4-2.5-4.2-5-4.2c-2.7,0-5,2.2-5,5l0,0
							c0,0.8,0.2,1.6,0.5,2.4c-0.6-0.6-1.5-0.9-2.4-0.8c-2.1,0.1-3.9,1.8-3.9,3.9c0,1.2,0.6,2.4,1.6,3.1"/>
					</g>
					<g id="Gruppe_20337_3_" transform="translate(273.115 0.984)">
						<path id="Icon-32_3_" class="st4" d="M-799.6,22966.4c-1.1-4.1-4.8-7-9.1-7.1h-0.4c-4.2,0.1-8,2.6-9.7,6.5
							c-1.7-3.9-5.5-6.4-9.7-6.5c-5.3-0.1-9.6,4.1-9.7,9.4l0,0c0,0.1,0,0.2,0,0.4c0,7.6,8.2,13.6,19.4,24.8
							c5.3-5.3,10-9.5,13.4-13.2"/>
						<path id="Pfad_13547_3_" class="st4" d="M-823.4,22973.3h4.8l3.1,7.6l5.3-14.1l1.4,6.5h11.2"/>
					</g>
					<g id="Gruppe_20338_3_" transform="translate(168.238 0.984)">
						<circle id="Ellipse_2433_3_" class="st4" cx="-812.1" cy="22982" r="3.4"/>
						<g id="Gruppe_14065_3_" transform="translate(0 0)">
							<path id="Pfad_13228_3_" class="st4" d="M-817.4,22961.6v7.8c0,5.7-4.7,10.4-10.4,10.4l0,0c-5.7,0-10.4-4.7-10.4-10.4v-7.8"
								/>
							<path id="Rechteck_2246_3_" class="st4" d="M-836.2,22959.3h0.6c1.1,0,2,0.9,2,2v3.9c0,1.1-0.9,2-2,2h-0.6c-1.1,0-2-0.9-2-2
								v-3.9C-838.2,22960.2-837.3,22959.3-836.2,22959.3z"/>
							<path id="Rechteck_2247_3_" class="st4" d="M-820,22959.3h0.6c1.1,0,2,0.9,2,2v3.9c0,1.1-0.9,2-2,2h-0.6c-1.1,0-2-0.9-2-2
								v-3.9C-822,22960.2-821.1,22959.3-820,22959.3z"/>
						</g>
						<path id="Pfad_13229_3_" class="st4" d="M-812.1,22986.1c0,4.3-3.5,7.8-7.8,7.8l0,0c-4.3,0-7.8-3.5-7.8-7.8v-5.8"/>
					</g>
					<g id="Gruppe_20340_3_" transform="translate(63.583 0)">
						<g id="Gruppe_10169_3_" transform="translate(0.478 0)">
							<path id="Pfad_9861_3_" class="st4" d="M-820.2,22972.6l-4.6,4.6l-13.4-13.3l4.6-4.6L-820.2,22972.6z"/>
							<line id="Linie_2640_3_" class="st4" x1="-822.2" y1="22975.2" x2="-817.6" y2="22979.8"/>
						</g>
						<path id="Pfad_9862_3_" class="st4" d="M-813.1,22991.5c-2.4,1.8-5.4,2.8-8.4,2.8l0,0c-7.7,0-13.9-6.2-14-13.9v-2.6
							c0-1,0.1-2.1,0.4-3.1"/>
						<line id="Linie_2641_3_" class="st4" x1="-817.9" y1="22985.8" x2="-804.3" y2="22985.8"/>
						<line id="Linie_2642_3_" class="st4" x1="-838.2" y1="22994.4" x2="-803.2" y2="22994.4"/>
						<ellipse id="Ellipse_2106_3_" class="st4" cx="-834.2" cy="22971.6" rx="2.9" ry="2.8"/>
						<ellipse id="Ellipse_2107_3_" class="st4" cx="-810.3" cy="22989.2" rx="3.2" ry="3.2"/>
					</g>
					<g>
						<g>
							<g>
								<path class="st3" d="M-800.9,22994.8v-9.4c2.1-2.4,2.1-3.2,2.9-8"/>
								<path class="st3" d="M-823.8,22994.8l-0.8-4.3l4.1-5.5c3.9-1.1,7.6,0.1,14.1,0.6v9.2"/>
								<path class="st3" d="M-792.5,22974.2"/>
							</g>
							<path class="st3" d="M-828.2,22975c2.4-6.1-5.9-8.3-0.5-13.8"/>
						</g>
						<path class="st3" d="M-797.8,22973.4c0.4,0.1,3,1.1,5.5-0.6c0.9-0.6,2.3-3.1,2-3.3l-1.5-1.3c0,0,0.1-2.7-1.1-3.7
							c-1.4-1.3-3.8-1.5-3.8-1.5l-0.6-3.7c0,0-2.3,0.7-3.5,2c-1,1.2-1.3,2.7-1.3,2.7l-4.6,7.9l-18.2,1.5c-2.1,0.1-3.2,1.6-3.2,1.6
							c-0.3,0.4-1,1.3-1.4,2.8c-0.4,1.6,0.2,4.4,1.8,7.6l-2.1,3.6l1,5.8"/>
					</g>
				</g>
				<g id="Gruppe_20341_2_" transform="translate(0)">
					<g id="Gruppe_20332_2_" transform="translate(116.08 0)">
						<rect id="Rechteck_2909_2_" x="-517.2" y="22959.3" class="st3" width="35.1" height="35.1"/>
						<path id="Pfad_20537_2_" class="st3" d="M-499.7,22963.9c-4.8,0-10,1.9-11.4,6.3l4.1,5.3h14.6l4.1-5.3
							C-489.6,22965.8-494.9,22963.9-499.7,22963.9z"/>
						<line id="Linie_4726_2_" class="st3" x1="-500.7" y1="22974.8" x2="-498.6" y2="22969"/>
					</g>
					<g id="Gruppe_20336_2_" transform="translate(211.5 1.967)">
						<path id="Pfad_20545_2_" class="st3" d="M-468,22991.2h-49.2l5.2-17.8h39L-468,22991.2z"/>
						<path id="Pfad_20546_2_" class="st3" d="M-476.9,22972.9c0.6-0.8,1-1.8,1-2.9c0-2.6-2.1-4.7-4.7-4.7l0,0c-1,0.1-2,0.4-2.9,1.1
							c0.2-0.6,0.3-1.2,0.3-1.8c0-2.9-2.3-5.2-5.2-5.2c-2.6,0-4.8,1.9-5.2,4.4c-0.4-2.4-2.5-4.2-5-4.2c-2.7,0-5,2.2-5,5l0,0
							c0,0.8,0.2,1.6,0.5,2.4c-0.6-0.6-1.5-0.9-2.4-0.8c-2.1,0.1-3.9,1.8-3.9,3.9c0,1.2,0.6,2.4,1.6,3.1"/>
					</g>
					<g id="Gruppe_20337_2_" transform="translate(273.115 0.984)">
						<path id="Icon-32_2_" class="st4" d="M-478.6,22966.4c-1.1-4.1-4.8-7-9.1-7.1h-0.4c-4.2,0.1-8,2.6-9.7,6.5
							c-1.7-3.9-5.5-6.4-9.7-6.5c-5.3-0.1-9.6,4.1-9.7,9.4l0,0c0,0.1,0,0.2,0,0.4c0,7.6,8.2,13.6,19.4,24.8
							c5.3-5.3,10-9.5,13.4-13.2"/>
						<path id="Pfad_13547_2_" class="st4" d="M-502.4,22973.3h4.8l3.1,7.6l5.3-14.1l1.4,6.5h11.2"/>
					</g>
					<g id="Gruppe_20338_2_" transform="translate(168.238 0.984)">
						<circle id="Ellipse_2433_2_" class="st4" cx="-491.1" cy="22982" r="3.4"/>
						<g id="Gruppe_14065_2_" transform="translate(0 0)">
							<path id="Pfad_13228_2_" class="st4" d="M-496.4,22961.6v7.8c0,5.7-4.7,10.4-10.4,10.4l0,0c-5.7,0-10.4-4.7-10.4-10.4v-7.8"
								/>
							<path id="Rechteck_2246_2_" class="st4" d="M-515.2,22959.3h0.6c1.1,0,2,0.9,2,2v3.9c0,1.1-0.9,2-2,2h-0.6c-1.1,0-2-0.9-2-2
								v-3.9C-517.2,22960.2-516.3,22959.3-515.2,22959.3z"/>
							<path id="Rechteck_2247_2_" class="st4" d="M-499,22959.3h0.6c1.1,0,2,0.9,2,2v3.9c0,1.1-0.9,2-2,2h-0.6c-1.1,0-2-0.9-2-2
								v-3.9C-501,22960.2-500.1,22959.3-499,22959.3z"/>
						</g>
						<path id="Pfad_13229_2_" class="st4" d="M-491.1,22986.1c0,4.3-3.5,7.8-7.8,7.8l0,0c-4.3,0-7.8-3.5-7.8-7.8v-5.8"/>
					</g>
					<g id="Gruppe_20340_2_" transform="translate(63.583 0)">
						<g id="Gruppe_10169_2_" transform="translate(0.478 0)">
							<path id="Pfad_9861_2_" class="st4" d="M-499.2,22972.6l-4.6,4.6l-13.4-13.3l4.6-4.6L-499.2,22972.6z"/>
							<line id="Linie_2640_2_" class="st4" x1="-501.2" y1="22975.2" x2="-496.6" y2="22979.8"/>
						</g>
						<path id="Pfad_9862_2_" class="st4" d="M-492.1,22991.5c-2.4,1.8-5.4,2.8-8.4,2.8l0,0c-7.7,0-13.9-6.2-14-13.9v-2.6
							c0-1,0.1-2.1,0.4-3.1"/>
						<line id="Linie_2641_2_" class="st4" x1="-496.9" y1="22985.8" x2="-483.3" y2="22985.8"/>
						<line id="Linie_2642_2_" class="st4" x1="-517.2" y1="22994.4" x2="-482.2" y2="22994.4"/>
						<ellipse id="Ellipse_2106_2_" class="st4" cx="-513.2" cy="22971.6" rx="2.9" ry="2.8"/>
						<ellipse id="Ellipse_2107_2_" class="st4" cx="-489.3" cy="22989.2" rx="3.2" ry="3.2"/>
					</g>
					<g>
						<g>
							<g>
								<path class="st3" d="M-479.9,22994.8v-9.4c2.1-2.4,2.1-3.2,2.9-8"/>
								<path class="st3" d="M-502.8,22994.8l-0.8-4.3l4.1-5.5c3.9-1.1,7.6,0.1,14.1,0.6v9.2"/>
								<path class="st3" d="M-471.5,22974.2"/>
							</g>
							<path class="st3" d="M-507.2,22975c2.4-6.1-5.9-8.3-0.5-13.8"/>
						</g>
						<path class="st3" d="M-476.8,22973.4c0.4,0.1,3,1.1,5.5-0.6c0.9-0.6,2.3-3.1,2-3.3l-1.5-1.3c0,0,0.1-2.7-1.1-3.7
							c-1.4-1.3-3.8-1.5-3.8-1.5l-0.6-3.7c0,0-2.3,0.7-3.5,2c-1,1.2-1.3,2.7-1.3,2.7l-4.6,7.9l-18.2,1.5c-2.1,0.1-3.2,1.6-3.2,1.6
							c-0.3,0.4-1,1.3-1.4,2.8c-0.4,1.6,0.2,4.4,1.8,7.6l-2.1,3.6l1,5.8"/>
					</g>
				</g>
			</g>
			<g id="Gruppe_20343_3_" transform="translate(631.695 -22927)">
				<g id="Gruppe_20341_7_" transform="translate(0)">
					<g id="Gruppe_20332_7_" transform="translate(116.08 0)">
						<rect id="Rechteck_2909_7_" x="-646.2" y="23007.7" class="st3" width="35.1" height="35.1"/>
						<path id="Pfad_20537_7_" class="st3" d="M-628.7,23012.3c-4.8,0-10,1.9-11.4,6.3l4.1,5.3h14.6l4.1-5.3
							C-618.6,23014.2-623.9,23012.3-628.7,23012.3z"/>
						<line id="Linie_4726_7_" class="st3" x1="-629.7" y1="23023.2" x2="-627.6" y2="23017.4"/>
					</g>
					<g id="Gruppe_20336_7_" transform="translate(211.5 1.967)">
						<path id="Pfad_20545_7_" class="st3" d="M-597,23039.6h-49.2l5.2-17.8h39L-597,23039.6z"/>
						<path id="Pfad_20546_7_" class="st3" d="M-605.9,23021.3c0.6-0.8,1-1.8,1-2.9c0-2.6-2.1-4.7-4.7-4.7l0,0c-1,0.1-2,0.4-2.9,1.1
							c0.2-0.6,0.3-1.2,0.3-1.8c0-2.9-2.3-5.2-5.2-5.2c-2.6,0-4.8,1.9-5.2,4.4c-0.4-2.4-2.5-4.2-5-4.2c-2.7,0-5,2.2-5,5l0,0
							c0,0.8,0.2,1.6,0.5,2.4c-0.6-0.6-1.5-0.9-2.4-0.8c-2.1,0.1-3.9,1.8-3.9,3.9c0,1.2,0.6,2.4,1.6,3.1"/>
					</g>
					<g id="Gruppe_20337_7_" transform="translate(273.115 0.984)">
						<path id="Icon-32_7_" class="st4" d="M-607.6,23014.8c-1.1-4.1-4.8-7-9.1-7.1h-0.4c-4.2,0.1-8,2.6-9.7,6.5
							c-1.7-3.9-5.5-6.4-9.7-6.5c-5.3-0.1-9.6,4.1-9.7,9.4l0,0c0,0.1,0,0.2,0,0.4c0,7.6,8.2,13.6,19.4,24.8
							c5.3-5.3,10-9.5,13.4-13.2"/>
						<path id="Pfad_13547_7_" class="st4" d="M-631.4,23021.7h4.8l3.1,7.6l5.3-14.1l1.4,6.5h11.2"/>
					</g>
					<g id="Gruppe_20338_7_" transform="translate(168.238 0.984)">
						<circle id="Ellipse_2433_7_" class="st4" cx="-620.1" cy="23030.4" r="3.4"/>
						<g id="Gruppe_14065_7_" transform="translate(0 0)">
							<path id="Pfad_13228_7_" class="st4" d="M-625.4,23010v7.8c0,5.7-4.7,10.4-10.4,10.4l0,0c-5.7,0-10.4-4.7-10.4-10.4v-7.8"/>
							<path id="Rechteck_2246_7_" class="st4" d="M-644.2,23007.7h0.6c1.1,0,2,0.9,2,2v3.9c0,1.1-0.9,2-2,2h-0.6c-1.1,0-2-0.9-2-2
								v-3.9C-646.2,23008.6-645.3,23007.7-644.2,23007.7z"/>
							<path id="Rechteck_2247_7_" class="st4" d="M-628,23007.7h0.6c1.1,0,2,0.9,2,2v3.9c0,1.1-0.9,2-2,2h-0.6c-1.1,0-2-0.9-2-2
								v-3.9C-630,23008.6-629.1,23007.7-628,23007.7z"/>
						</g>
						<path id="Pfad_13229_7_" class="st4" d="M-620.1,23034.5c0,4.3-3.5,7.8-7.8,7.8l0,0c-4.3,0-7.8-3.5-7.8-7.8v-5.8"/>
					</g>
					<g id="Gruppe_20340_7_" transform="translate(63.583 0)">
						<g id="Gruppe_10169_7_" transform="translate(0.478 0)">
							<path id="Pfad_9861_7_" class="st4" d="M-628.2,23021l-4.6,4.6l-13.4-13.3l4.6-4.6L-628.2,23021z"/>
							<line id="Linie_2640_7_" class="st4" x1="-630.2" y1="23023.6" x2="-625.6" y2="23028.2"/>
						</g>
						<path id="Pfad_9862_7_" class="st4" d="M-621.1,23039.9c-2.4,1.8-5.4,2.8-8.4,2.8l0,0c-7.7,0-13.9-6.2-14-13.9v-2.6
							c0-1,0.1-2.1,0.4-3.1"/>
						<line id="Linie_2641_7_" class="st4" x1="-625.9" y1="23034.2" x2="-612.3" y2="23034.2"/>
						<line id="Linie_2642_7_" class="st4" x1="-646.2" y1="23042.8" x2="-611.2" y2="23042.8"/>
						<ellipse id="Ellipse_2106_7_" class="st4" cx="-642.2" cy="23020" rx="2.9" ry="2.8"/>
						<ellipse id="Ellipse_2107_7_" class="st4" cx="-618.3" cy="23037.6" rx="3.2" ry="3.2"/>
					</g>
					<g>
						<g>
							<g>
								<path class="st3" d="M-608.9,23043.2v-9.4c2.1-2.4,2.1-3.2,2.9-8"/>
								<path class="st3" d="M-631.8,23043.2l-0.8-4.3l4.1-5.5c3.9-1.1,7.6,0.1,14.1,0.6v9.2"/>
								<path class="st3" d="M-600.5,23022.6"/>
							</g>
							<path class="st3" d="M-636.2,23023.4c2.4-6.1-5.9-8.3-0.5-13.8"/>
						</g>
						<path class="st3" d="M-605.8,23021.8c0.4,0.1,3,1.1,5.5-0.6c0.9-0.6,2.3-3.1,2-3.3l-1.5-1.3c0,0,0.1-2.7-1.1-3.7
							c-1.4-1.3-3.8-1.5-3.8-1.5l-0.6-3.7c0,0-2.3,0.7-3.5,2c-1,1.2-1.3,2.7-1.3,2.7l-4.6,7.9l-18.2,1.5c-2.1,0.1-3.2,1.6-3.2,1.6
							c-0.3,0.4-1,1.3-1.4,2.8c-0.4,1.6,0.2,4.4,1.8,7.6l-2.1,3.6l1,5.8"/>
					</g>
				</g>
				<g id="Gruppe_20341_6_" transform="translate(0)">
					<g id="Gruppe_20332_6_" transform="translate(116.08 0)">
						<rect id="Rechteck_2909_6_" x="-325.2" y="23007.7" class="st3" width="35.1" height="35.1"/>
						<path id="Pfad_20537_6_" class="st3" d="M-307.7,23012.3c-4.8,0-10,1.9-11.4,6.3l4.1,5.3h14.6l4.1-5.3
							C-297.6,23014.2-302.9,23012.3-307.7,23012.3z"/>
						<line id="Linie_4726_6_" class="st3" x1="-308.7" y1="23023.2" x2="-306.6" y2="23017.4"/>
					</g>
					<g id="Gruppe_20336_6_" transform="translate(211.5 1.967)">
						<path id="Pfad_20545_6_" class="st3" d="M-276,23039.6h-49.2l5.2-17.8h39L-276,23039.6z"/>
						<path id="Pfad_20546_6_" class="st3" d="M-284.9,23021.3c0.6-0.8,1-1.8,1-2.9c0-2.6-2.1-4.7-4.7-4.7l0,0c-1,0.1-2,0.4-2.9,1.1
							c0.2-0.6,0.3-1.2,0.3-1.8c0-2.9-2.3-5.2-5.2-5.2c-2.6,0-4.8,1.9-5.2,4.4c-0.4-2.4-2.5-4.2-5-4.2c-2.7,0-5,2.2-5,5l0,0
							c0,0.8,0.2,1.6,0.5,2.4c-0.6-0.6-1.5-0.9-2.4-0.8c-2.1,0.1-3.9,1.8-3.9,3.9c0,1.2,0.6,2.4,1.6,3.1"/>
					</g>
					<g id="Gruppe_20337_6_" transform="translate(273.115 0.984)">
						<path id="Icon-32_6_" class="st4" d="M-286.6,23014.8c-1.1-4.1-4.8-7-9.1-7.1h-0.4c-4.2,0.1-8,2.6-9.7,6.5
							c-1.7-3.9-5.5-6.4-9.7-6.5c-5.3-0.1-9.6,4.1-9.7,9.4l0,0c0,0.1,0,0.2,0,0.4c0,7.6,8.2,13.6,19.4,24.8
							c5.3-5.3,10-9.5,13.4-13.2"/>
						<path id="Pfad_13547_6_" class="st4" d="M-310.4,23021.7h4.8l3.1,7.6l5.3-14.1l1.4,6.5h11.2"/>
					</g>
					<g id="Gruppe_20338_6_" transform="translate(168.238 0.984)">
						<circle id="Ellipse_2433_6_" class="st4" cx="-299.1" cy="23030.4" r="3.4"/>
						<g id="Gruppe_14065_6_" transform="translate(0 0)">
							<path id="Pfad_13228_6_" class="st4" d="M-304.4,23010v7.8c0,5.7-4.7,10.4-10.4,10.4l0,0c-5.7,0-10.4-4.7-10.4-10.4v-7.8"/>
							<path id="Rechteck_2246_6_" class="st4" d="M-323.2,23007.7h0.6c1.1,0,2,0.9,2,2v3.9c0,1.1-0.9,2-2,2h-0.6c-1.1,0-2-0.9-2-2
								v-3.9C-325.2,23008.6-324.3,23007.7-323.2,23007.7z"/>
							<path id="Rechteck_2247_6_" class="st4" d="M-307,23007.7h0.6c1.1,0,2,0.9,2,2v3.9c0,1.1-0.9,2-2,2h-0.6c-1.1,0-2-0.9-2-2
								v-3.9C-309,23008.6-308.1,23007.7-307,23007.7z"/>
						</g>
						<path id="Pfad_13229_6_" class="st4" d="M-299.1,23034.5c0,4.3-3.5,7.8-7.8,7.8l0,0c-4.3,0-7.8-3.5-7.8-7.8v-5.8"/>
					</g>
					<g id="Gruppe_20340_6_" transform="translate(63.583 0)">
						<g id="Gruppe_10169_6_" transform="translate(0.478 0)">
							<path id="Pfad_9861_6_" class="st4" d="M-307.2,23021l-4.6,4.6l-13.4-13.3l4.6-4.6L-307.2,23021z"/>
							<line id="Linie_2640_6_" class="st4" x1="-309.2" y1="23023.6" x2="-304.6" y2="23028.2"/>
						</g>
						<path id="Pfad_9862_6_" class="st4" d="M-300.1,23039.9c-2.4,1.8-5.4,2.8-8.4,2.8l0,0c-7.7,0-13.9-6.2-14-13.9v-2.6
							c0-1,0.1-2.1,0.4-3.1"/>
						<line id="Linie_2641_6_" class="st4" x1="-304.9" y1="23034.2" x2="-291.3" y2="23034.2"/>
						<line id="Linie_2642_6_" class="st4" x1="-325.2" y1="23042.8" x2="-290.2" y2="23042.8"/>
						<ellipse id="Ellipse_2106_6_" class="st4" cx="-321.2" cy="23020" rx="2.9" ry="2.8"/>
						<ellipse id="Ellipse_2107_6_" class="st4" cx="-297.3" cy="23037.6" rx="3.2" ry="3.2"/>
					</g>
					<g>
						<g>
							<g>
								<path class="st3" d="M-287.9,23043.2v-9.4c2.1-2.4,2.1-3.2,2.9-8"/>
								<path class="st3" d="M-310.8,23043.2l-0.8-4.3l4.1-5.5c3.9-1.1,7.6,0.1,14.1,0.6v9.2"/>
								<path class="st3" d="M-279.5,23022.6"/>
							</g>
							<path class="st3" d="M-315.2,23023.4c2.4-6.1-5.9-8.3-0.5-13.8"/>
						</g>
						<path class="st3" d="M-284.8,23021.8c0.4,0.1,3,1.1,5.5-0.6c0.9-0.6,2.3-3.1,2-3.3l-1.5-1.3c0,0,0.1-2.7-1.1-3.7
							c-1.4-1.3-3.8-1.5-3.8-1.5l-0.6-3.7c0,0-2.3,0.7-3.5,2c-1,1.2-1.3,2.7-1.3,2.7l-4.6,7.9l-18.2,1.5c-2.1,0.1-3.2,1.6-3.2,1.6
							c-0.3,0.4-1,1.3-1.4,2.8c-0.4,1.6,0.2,4.4,1.8,7.6l-2.1,3.6l1,5.8"/>
					</g>
				</g>
			</g>
			<g id="Gruppe_20343_2_" transform="translate(631.695 -22927)">
				<g id="Gruppe_20341_5_" transform="translate(0)">
					<g id="Gruppe_20332_5_" transform="translate(116.08 0)">
						<rect id="Rechteck_2909_5_" x="-838.2" y="23056" class="st3" width="35.1" height="35.1"/>
						<path id="Pfad_20537_5_" class="st3" d="M-820.7,23060.6c-4.8,0-10,1.9-11.4,6.3l4.1,5.3h14.6l4.1-5.3
							C-810.6,23062.5-815.9,23060.6-820.7,23060.6z"/>
						<line id="Linie_4726_5_" class="st3" x1="-821.7" y1="23071.5" x2="-819.6" y2="23065.7"/>
					</g>
					<g id="Gruppe_20336_5_" transform="translate(211.5 1.967)">
						<path id="Pfad_20545_5_" class="st3" d="M-789,23087.9h-49.2l5.2-17.8h39L-789,23087.9z"/>
						<path id="Pfad_20546_5_" class="st3" d="M-797.9,23069.6c0.6-0.8,1-1.8,1-2.9c0-2.6-2.1-4.7-4.7-4.7l0,0c-1,0.1-2,0.4-2.9,1.1
							c0.2-0.6,0.3-1.2,0.3-1.8c0-2.9-2.3-5.2-5.2-5.2c-2.6,0-4.8,1.9-5.2,4.4c-0.4-2.4-2.5-4.2-5-4.2c-2.7,0-5,2.2-5,5l0,0
							c0,0.8,0.2,1.6,0.5,2.4c-0.6-0.6-1.5-0.9-2.4-0.8c-2.1,0.1-3.9,1.8-3.9,3.9c0,1.2,0.6,2.4,1.6,3.1"/>
					</g>
					<g id="Gruppe_20337_5_" transform="translate(273.115 0.984)">
						<path id="Icon-32_5_" class="st4" d="M-799.6,23063.1c-1.1-4.1-4.8-7-9.1-7.1h-0.4c-4.2,0.1-8,2.6-9.7,6.5
							c-1.7-3.9-5.5-6.4-9.7-6.5c-5.3-0.1-9.6,4.1-9.7,9.4l0,0c0,0.1,0,0.2,0,0.4c0,7.6,8.2,13.6,19.4,24.8
							c5.3-5.3,10-9.5,13.4-13.2"/>
						<path id="Pfad_13547_5_" class="st4" d="M-823.4,23070h4.8l3.1,7.6l5.3-14.1l1.4,6.5h11.2"/>
					</g>
					<g id="Gruppe_20338_5_" transform="translate(168.238 0.984)">
						<circle id="Ellipse_2433_5_" class="st4" cx="-812.1" cy="23078.7" r="3.4"/>
						<g id="Gruppe_14065_5_" transform="translate(0 0)">
							<path id="Pfad_13228_5_" class="st4" d="M-817.4,23058.3v7.8c0,5.7-4.7,10.4-10.4,10.4l0,0c-5.7,0-10.4-4.7-10.4-10.4v-7.8"
								/>
							<path id="Rechteck_2246_5_" class="st4" d="M-836.2,23056h0.6c1.1,0,2,0.9,2,2v3.9c0,1.1-0.9,2-2,2h-0.6c-1.1,0-2-0.9-2-2
								v-3.9C-838.2,23056.9-837.3,23056-836.2,23056z"/>
							<path id="Rechteck_2247_5_" class="st4" d="M-820,23056h0.6c1.1,0,2,0.9,2,2v3.9c0,1.1-0.9,2-2,2h-0.6c-1.1,0-2-0.9-2-2v-3.9
								C-822,23056.9-821.1,23056-820,23056z"/>
						</g>
						<path id="Pfad_13229_5_" class="st4" d="M-812.1,23082.8c0,4.3-3.5,7.8-7.8,7.8l0,0c-4.3,0-7.8-3.5-7.8-7.8v-5.8"/>
					</g>
					<g id="Gruppe_20340_5_" transform="translate(63.583 0)">
						<g id="Gruppe_10169_5_" transform="translate(0.478 0)">
							<path id="Pfad_9861_5_" class="st4" d="M-820.2,23069.3l-4.6,4.6l-13.4-13.3l4.6-4.6L-820.2,23069.3z"/>
							<line id="Linie_2640_5_" class="st4" x1="-822.2" y1="23071.9" x2="-817.6" y2="23076.5"/>
						</g>
						<path id="Pfad_9862_5_" class="st4" d="M-813.1,23088.2c-2.4,1.8-5.4,2.8-8.4,2.8l0,0c-7.7,0-13.9-6.2-14-13.9v-2.6
							c0-1,0.1-2.1,0.4-3.1"/>
						<line id="Linie_2641_5_" class="st4" x1="-817.9" y1="23082.5" x2="-804.3" y2="23082.5"/>
						<line id="Linie_2642_5_" class="st4" x1="-838.2" y1="23091.1" x2="-803.2" y2="23091.1"/>
						<ellipse id="Ellipse_2106_5_" class="st4" cx="-834.2" cy="23068.3" rx="2.9" ry="2.8"/>
						<ellipse id="Ellipse_2107_5_" class="st4" cx="-810.3" cy="23085.9" rx="3.2" ry="3.2"/>
					</g>
					<g>
						<g>
							<g>
								<path class="st3" d="M-800.9,23091.5v-9.4c2.1-2.4,2.1-3.2,2.9-8"/>
								<path class="st3" d="M-823.8,23091.5l-0.8-4.3l4.1-5.5c3.9-1.1,7.6,0.1,14.1,0.6v9.2"/>
								<path class="st3" d="M-792.5,23070.9"/>
							</g>
							<path class="st3" d="M-828.2,23071.7c2.4-6.1-5.9-8.3-0.5-13.8"/>
						</g>
						<path class="st3" d="M-797.8,23070.1c0.4,0.1,3,1.1,5.5-0.6c0.9-0.6,2.3-3.1,2-3.3l-1.5-1.3c0,0,0.1-2.7-1.1-3.7
							c-1.4-1.3-3.8-1.5-3.8-1.5l-0.6-3.7c0,0-2.3,0.7-3.5,2c-1,1.2-1.3,2.7-1.3,2.7l-4.6,7.9l-18.2,1.5c-2.1,0.1-3.2,1.6-3.2,1.6
							c-0.3,0.4-1,1.3-1.4,2.8c-0.4,1.6,0.2,4.4,1.8,7.6l-2.1,3.6l1,5.8"/>
					</g>
				</g>
				<g id="Gruppe_20341_4_" transform="translate(0)">
					<g id="Gruppe_20332_4_" transform="translate(116.08 0)">
						<rect id="Rechteck_2909_4_" x="-517.2" y="23056" class="st3" width="35.1" height="35.1"/>
						<path id="Pfad_20537_4_" class="st3" d="M-499.7,23060.6c-4.8,0-10,1.9-11.4,6.3l4.1,5.3h14.6l4.1-5.3
							C-489.6,23062.5-494.9,23060.6-499.7,23060.6z"/>
						<line id="Linie_4726_4_" class="st3" x1="-500.7" y1="23071.5" x2="-498.6" y2="23065.7"/>
					</g>
					<g id="Gruppe_20336_4_" transform="translate(211.5 1.967)">
						<path id="Pfad_20545_4_" class="st3" d="M-468,23087.9h-49.2l5.2-17.8h39L-468,23087.9z"/>
						<path id="Pfad_20546_4_" class="st3" d="M-476.9,23069.6c0.6-0.8,1-1.8,1-2.9c0-2.6-2.1-4.7-4.7-4.7l0,0c-1,0.1-2,0.4-2.9,1.1
							c0.2-0.6,0.3-1.2,0.3-1.8c0-2.9-2.3-5.2-5.2-5.2c-2.6,0-4.8,1.9-5.2,4.4c-0.4-2.4-2.5-4.2-5-4.2c-2.7,0-5,2.2-5,5l0,0
							c0,0.8,0.2,1.6,0.5,2.4c-0.6-0.6-1.5-0.9-2.4-0.8c-2.1,0.1-3.9,1.8-3.9,3.9c0,1.2,0.6,2.4,1.6,3.1"/>
					</g>
					<g id="Gruppe_20337_4_" transform="translate(273.115 0.984)">
						<path id="Icon-32_4_" class="st4" d="M-478.6,23063.1c-1.1-4.1-4.8-7-9.1-7.1h-0.4c-4.2,0.1-8,2.6-9.7,6.5
							c-1.7-3.9-5.5-6.4-9.7-6.5c-5.3-0.1-9.6,4.1-9.7,9.4l0,0c0,0.1,0,0.2,0,0.4c0,7.6,8.2,13.6,19.4,24.8
							c5.3-5.3,10-9.5,13.4-13.2"/>
						<path id="Pfad_13547_4_" class="st4" d="M-502.4,23070h4.8l3.1,7.6l5.3-14.1l1.4,6.5h11.2"/>
					</g>
					<g id="Gruppe_20338_4_" transform="translate(168.238 0.984)">
						<circle id="Ellipse_2433_4_" class="st4" cx="-491.1" cy="23078.7" r="3.4"/>
						<g id="Gruppe_14065_4_" transform="translate(0 0)">
							<path id="Pfad_13228_4_" class="st4" d="M-496.4,23058.3v7.8c0,5.7-4.7,10.4-10.4,10.4l0,0c-5.7,0-10.4-4.7-10.4-10.4v-7.8"
								/>
							<path id="Rechteck_2246_4_" class="st4" d="M-515.2,23056h0.6c1.1,0,2,0.9,2,2v3.9c0,1.1-0.9,2-2,2h-0.6c-1.1,0-2-0.9-2-2
								v-3.9C-517.2,23056.9-516.3,23056-515.2,23056z"/>
							<path id="Rechteck_2247_4_" class="st4" d="M-499,23056h0.6c1.1,0,2,0.9,2,2v3.9c0,1.1-0.9,2-2,2h-0.6c-1.1,0-2-0.9-2-2v-3.9
								C-501,23056.9-500.1,23056-499,23056z"/>
						</g>
						<path id="Pfad_13229_4_" class="st4" d="M-491.1,23082.8c0,4.3-3.5,7.8-7.8,7.8l0,0c-4.3,0-7.8-3.5-7.8-7.8v-5.8"/>
					</g>
					<g id="Gruppe_20340_4_" transform="translate(63.583 0)">
						<g id="Gruppe_10169_4_" transform="translate(0.478 0)">
							<path id="Pfad_9861_4_" class="st4" d="M-499.2,23069.3l-4.6,4.6l-13.4-13.3l4.6-4.6L-499.2,23069.3z"/>
							<line id="Linie_2640_4_" class="st4" x1="-501.2" y1="23071.9" x2="-496.6" y2="23076.5"/>
						</g>
						<path id="Pfad_9862_4_" class="st4" d="M-492.1,23088.2c-2.4,1.8-5.4,2.8-8.4,2.8l0,0c-7.7,0-13.9-6.2-14-13.9v-2.6
							c0-1,0.1-2.1,0.4-3.1"/>
						<line id="Linie_2641_4_" class="st4" x1="-496.9" y1="23082.5" x2="-483.3" y2="23082.5"/>
						<line id="Linie_2642_4_" class="st4" x1="-517.2" y1="23091.1" x2="-482.2" y2="23091.1"/>
						<ellipse id="Ellipse_2106_4_" class="st4" cx="-513.2" cy="23068.3" rx="2.9" ry="2.8"/>
						<ellipse id="Ellipse_2107_4_" class="st4" cx="-489.3" cy="23085.9" rx="3.2" ry="3.2"/>
					</g>
					<g>
						<g>
							<g>
								<path class="st3" d="M-479.9,23091.5v-9.4c2.1-2.4,2.1-3.2,2.9-8"/>
								<path class="st3" d="M-502.8,23091.5l-0.8-4.3l4.1-5.5c3.9-1.1,7.6,0.1,14.1,0.6v9.2"/>
								<path class="st3" d="M-471.5,23070.9"/>
							</g>
							<path class="st3" d="M-507.2,23071.7c2.4-6.1-5.9-8.3-0.5-13.8"/>
						</g>
						<path class="st3" d="M-476.8,23070.1c0.4,0.1,3,1.1,5.5-0.6c0.9-0.6,2.3-3.1,2-3.3l-1.5-1.3c0,0,0.1-2.7-1.1-3.7
							c-1.4-1.3-3.8-1.5-3.8-1.5l-0.6-3.7c0,0-2.3,0.7-3.5,2c-1,1.2-1.3,2.7-1.3,2.7l-4.6,7.9l-18.2,1.5c-2.1,0.1-3.2,1.6-3.2,1.6
							c-0.3,0.4-1,1.3-1.4,2.8c-0.4,1.6,0.2,4.4,1.8,7.6l-2.1,3.6l1,5.8"/>
					</g>
				</g>
			</g>
		</g>
	</g>
</g>
</svg>
