<?xml version="1.0" encoding="utf-8"?>
<!-- Generator: Adobe Illustrator 24.3.0, SVG Export Plug-In . SVG Version: 6.00 Build 0)  -->
<svg version="1.1" id="Ebene_1" xmlns="http://www.w3.org/2000/svg" xmlns:xlink="http://www.w3.org/1999/xlink" x="0px" y="0px"
	 viewBox="0 0 700 500" style="enable-background:new 0 0 700 500;" xml:space="preserve">
<style type="text/css">
	.st0{fill:none;}
	.st1{fill:none;stroke:#7C7C7C;stroke-width:4.5;stroke-linecap:round;stroke-linejoin:round;}
	.st2{fill:none;stroke:#7C7C7C;stroke-width:3;stroke-linecap:round;stroke-linejoin:round;}
	.st3{fill:#7C7C7C;}
</style>
<g>
	<rect id="Rechteck_2766_1_" y="0" class="st0" width="700" height="500"/>
	<g>
		<g>
			<path class="st1" d="M453.9,204.1L453.9,204.1c15.5,1.1,35.1,2.5,48.7,3.2c6.7,0.4,10.7-2.3,14.4-7.5
				c4.7-6.5,10.3-14.9,13.7-21.3c2.7-5,0.2-8.9-7.9-12.3c-11-4.5-25.5-10.2-41.9-16.6c-4.8-16.5-16.6-30.2-40-35.2
				c-30.6-6.5-54,5.8-64.4,31.7c-3.3,8.3-19,51.3-29.3,62.9l-19.7,15.6c0,0-184.7,9-184.8,9c-39.5,2.4-76.8-18.7-95.2-53.8
				c-2.6-4.9-8.7-6.8-13.6-4.2c-4.9,2.6-6.8,8.7-4.2,13.6c16.4,31.3,45.5,53.4,78.8,61.4c-3.5,4-10.9,14-15.2,29.8
				c-4.7,17.1-6.4,44.3,11,78.9L76,401.5c-1.6,2.2-2.3,5.1-1.8,7.8l12.4,78.9c0.9,4.8,5,8.2,9.9,8.2h12.6c3,0,5.8-1.3,7.7-3.6
				c1.9-2.3,2.7-5.3,2.2-8.2l-6.3-58.1c0,0,16.9-9.2,51.6-31.1c27.3-17.2,41.5-33.1,48.3-48.3"/>
			<path class="st1" d="M423.2,288.6c3.9-30.1,14.3-58.5,14.3-58.5"/>
			<path class="st1" d="M442.4,142.5l11.1,57.4c2.8,14.4-6.7,28.5-21.1,31.3l-4.7,0.9c-14.4,2.8-28.5-6.7-31.3-21.1l-8.8-41.5"/>
		</g>
		<path class="st1" d="M241.4,337.4c0,0,9.8-4.8,44.3-5.3c28.4-0.4,66.4,6.2,79.7,3.1c0,0,6.8-3.6,13.8-6.5c0,0,1.5-2.8,15.5-21.4
			c13-17.2,28.4-18.6,28.4-18.6s6.7-16,19.4-15.6c2.3,0.1-1.1,19.4-1.1,19.4c1.6,0.6,3.1,1.4,4.6,2.2c16.6,10,11.8,25.3,13.2,28.5
			c1.4,2.7,3,5.2,4.9,7.6c4.1,5.6-10.5,16.8-19.4,14.6c-5.7-1.4-11.4-3.2-16.8-5.4c0,0-3.8,21.3-8.9,40.8
			c-5.6,21.2-29.1,44.8-29.5,47.5c-0.4,2.7-2.3,49.9-2.3,49.9s10.1,2.8,12.3,5.5c1.9,2.3-1.2,10.5-3.8,11.6
			c-3.5,1.5-18.9,0.6-21.5-1.1s-7.5-39-8.9-46.9c-0.8-5.4-0.9-21.6-0.4-27c0,0-10.2-0.5-26.6-2.7c-16.4-2.2-44.7-11.1-44.7-11.1
			s-11.3,11.3-20.4,20.8c-10.9,11.4-33.8,32.5-33.8,32.5l3,19.4c3.7,1.3,7.4,2.8,11,4.5c3.1,1.8,0.8,12.4-1.8,12.4
			s-17.2,1.2-20.3-1.5c-3.1-2.7-12.4-34.8-12.4-39.7c0-4.9,16.4-43.6,16.4-43.6s-3.1-14.2-4.4-23c-1.3-8.9,1.3-27,1.3-27
			s-8.1-4-19.5-14.3c-7.6-6.9-16.6-16.5-25.6-29.6c-13.5-19.6-16.4-48.6-9.4-48.9c7.3-0.4,7,20.3,27.6,44.9
			C223.4,334.9,241.4,337.4,241.4,337.4z"/>
	</g>
	<g>
		<g>
			<path class="st2" d="M625.3,324.9c0,8.5-4.6,12.7-10.2,12.7c-5.6,0-10.2-4.2-10.2-12.7s4.6-20.9,10.2-20.9
				C620.8,304.1,625.3,316.4,625.3,324.9z"/>
			<path class="st2" d="M637.1,286.1c0,8.1-1.1,9.2-4.6,12c-3.4,2.6-12.6,9-12.6,9"/>
			<path class="st2" d="M593,286.1c0,8.1,1.1,9.2,4.6,12c3.4,2.6,12.6,9,12.6,9"/>
			<path class="st2" d="M622.6,311.9c0,0,12.3,0.2,13.4-3c0.4-1.2-3.2-3.7-3.2-3.7"/>
			<path class="st2" d="M607.4,311.9c0,0-12.3,0.2-13.4-3c-0.4-1.2,3.2-3.7,3.2-3.7"/>
			<path class="st2" d="M624.4,316.3c0,0,3.4,0.4,4.4,0.9c3.1,1.6,10,9.6,10,9.6"/>
			<line class="st2" x1="625.2" y1="322" x2="631.3" y2="343"/>
			<path class="st2" d="M606.2,316.3c0,0-3.4,0.4-4.4,0.9c-3.1,1.6-10,9.6-10,9.6"/>
			<line class="st2" x1="605" y1="322" x2="599" y2="343"/>
			<line class="st2" x1="617.5" y1="304.8" x2="615.4" y2="298.1"/>
			<line class="st2" x1="612.5" y1="304.8" x2="614.7" y2="298.1"/>
			<path class="st2" d="M622.3,311.6c0,4.6-3.2,8.3-7.2,8.3c-4,0-7.2-3.7-7.2-8.3"/>
		</g>
		<g>
			<circle class="st1" cx="615.3" cy="314.6" r="45.5"/>
		</g>
	</g>
	<g>
		<g>
			<path class="st2" d="M592.3,451.9l0.8-6.2l3.8-2.5l-4-7.6l-3,0.7l-0.6,3.6l-2.7-4.7c0,0-3.1-4.3,0.6-7.7c1.6-1.4,4.2-1.7,4.2-1.7
				c4.8-3.2,14.3-8.2,26.6-8.2c19.3,0,20.4,15.2,20.4,15.2s-5.3,10.1-19.3,10.1c-2.2,0-5.3-0.5-5.3-0.5"/>
			<polyline class="st2" points="608.9,462.1 604.1,454.3 604.7,448.2 599.9,438 			"/>
			<polyline class="st2" points="605.9,440.2 617.6,448.4 622.3,460.2 636.8,465 			"/>
			<polyline class="st2" points="645.2,455.7 626.1,454.1 619.2,443 			"/>
			<path class="st2" d="M618.8,417.7c3.8,0.6,7.4,2.9,9.2,8c1.7,5.1,1.1,8.8,1.1,8.8"/>
			<path class="st2" d="M608.4,418.6c4.2,0.7,8.4,3.3,10.3,9c2,5.8,1.3,9.9,1.3,9.9"/>
			<path class="st2" d="M599.6,421.4c3.3,0.5,6.5,2.5,8,7c1.5,4.5,1,7.7,1,7.7"/>
			<path class="st2" d="M591.4,425.8c5.2-0.9,6.3,5.8,6.3,5.8"/>
			<line class="st2" x1="590" y1="432.4" x2="590" y2="432.4"/>
		</g>
		<circle class="st1" cx="615.3" cy="441.3" r="45.5"/>
	</g>
	<g>
		<g>
			<path class="st2" d="M596.1,185.5c-7.1-3.1-7.7-13.4-2.7-18c6-5.5,20.6-0.1,9.4,24.6c-11.7,25.8,23.5,22.5,12.8,0.5
				c-12.1-24.9,23-21.8,13.5-4.7c-10.8,19.3,16.2,20.9,10.4,3.2"/>
			
				<ellipse transform="matrix(0.4652 -0.8852 0.8852 0.4652 155.2824 625.9309)" class="st3" cx="595.6" cy="184.5" rx="2.4" ry="3.8"/>
		</g>
		<g>
			<circle class="st1" cx="615.3" cy="187.8" r="45.5"/>
		</g>
	</g>
</g>
</svg>
