<svg xmlns="http://www.w3.org/2000/svg" width="40" height="40" viewBox="0 0 40 40">
  <g id="Gruppe_21141" data-name="Gruppe 21141" transform="translate(1656 2611)">
    <rect id="Rechteck_2847" data-name="Rechteck 2847" width="40" height="40" transform="translate(-1656 -2611)" fill="none"/>
    <g id="Gruppe_17139" data-name="Gruppe 17139" transform="translate(-736.015 -4262.13)">
      <path id="Pfad_17182" data-name="Pfad 17182" d="M-890.816,1679.131h-18.469l1.922-9.454h14.628Z" fill="none" stroke="#424242" stroke-linecap="round" stroke-linejoin="round" stroke-width="1.5"/>
      <path id="Pfad_17183" data-name="Pfad 17183" d="M-892.626,1669.541a2.166,2.166,0,0,0-.4-3.037,2.167,2.167,0,0,0-2.7.056,2.519,2.519,0,0,0-1.439-3.259,2.519,2.519,0,0,0-3.259,1.44,2.512,2.512,0,0,0-.127.442,2.346,2.346,0,0,0-2.748-1.858,2.347,2.347,0,0,0-1.858,2.749,2.327,2.327,0,0,0,.217.628,1.8,1.8,0,0,0-1.152-.422,1.821,1.821,0,0,0-1.823,1.82,1.823,1.823,0,0,0,.681,1.422" fill="none" stroke="#424242" stroke-linecap="round" stroke-linejoin="round" stroke-width="1.5"/>
    </g>
  </g>
</svg>
