<svg xmlns="http://www.w3.org/2000/svg" width="88.188" height="88.187" viewBox="0 0 88.188 88.187">
  <g id="Gruppe_21313" data-name="Gruppe 21313" transform="translate(-136 -215)">
    <g id="Gruppe_13906" data-name="Gruppe 13906" transform="translate(0 -105)">
      <g id="Gruppe_21313-2" data-name="Gruppe 21313" transform="translate(0 135)">
        <g id="Gruppe_13906-2" data-name="Gruppe 13906" transform="translate(0 -135)">
          <g id="Pfad_21543" data-name="Pfad 21543" transform="translate(197.28 247.729)" fill="none" stroke-linecap="round" stroke-linejoin="round">
            <path d="M-17.186,72.272A44.094,44.094,0,0,0-61.28,116.366a43.821,43.821,0,0,0,6.287,22.605l-6.287,21.486,21.489-6.287a43.814,43.814,0,0,0,22.605,6.287,44.093,44.093,0,0,0,44.094-44.091A44.094,44.094,0,0,0-17.186,72.272Z" stroke="none"/>
            <path d="M -17.18576049804688 74.27200317382812 C -22.86942672729492 74.27200317382812 -28.38197326660156 75.38465881347656 -33.57028198242188 77.5791015625 C -38.58261489868164 79.69911193847656 -43.08453369140625 82.7344970703125 -46.95101165771484 86.60098266601562 C -50.8174934387207 90.46746826171875 -53.8528938293457 94.96939086914062 -55.97289276123047 99.98171997070312 C -58.16733551025391 105.1700210571289 -59.27999877929688 110.6825866699219 -59.27999877929688 116.3662490844727 C -59.27999877929688 120.2220077514648 -58.74832153320312 124.0498275756836 -57.69973373413086 127.7433853149414 C -56.68988037109375 131.3005065917969 -55.20209503173828 134.7322082519531 -53.2777214050293 137.9431304931641 C -52.99105453491211 138.4214477539062 -52.91709136962891 138.9977111816406 -53.07369232177734 139.5328979492188 L -58.33427429199219 157.5120239257812 L -40.35238647460938 152.2513122558594 C -40.16819381713867 152.1974334716797 -39.97916030883789 152.1708679199219 -39.79090118408203 152.1708679199219 C -39.43218231201172 152.1708679199219 -39.07634735107422 152.2673797607422 -38.76268005371094 152.4553680419922 C -35.55141448974609 154.3799591064453 -32.12005233764648 155.8677368164062 -28.56393432617188 156.8774108886719 C -24.87074661254883 157.9259948730469 -21.04257392883301 158.4576721191406 -17.18576049804688 158.4576721191406 C -11.50213432312012 158.4576721191406 -5.989574432373047 157.3450012207031 -0.8012275695800781 155.1506042480469 C 4.211078643798828 153.0306396484375 8.7130126953125 149.9953460693359 12.57952117919922 146.1290130615234 C 16.44598770141602 142.2627258300781 19.48138427734375 137.7610626220703 21.60138702392578 132.7490844726562 C 23.79581451416016 127.5612106323242 24.90847778320312 122.0492248535156 24.90847778320312 116.3662490844727 C 24.90847778320312 110.6825866699219 23.79581451416016 105.1700210571289 21.60137176513672 99.98171997070312 C 19.48137283325195 94.96939086914062 16.44597244262695 90.46746826171875 12.57949447631836 86.60098266601562 C 8.7130126953125 82.7344970703125 4.211078643798828 79.69911193847656 -0.801239013671875 77.5791015625 C -5.989547729492188 75.38465881347656 -11.50209426879883 74.27200317382812 -17.18576049804688 74.27200317382812 M -17.18576049804688 72.27200317382812 C 7.167160034179688 72.27200317382812 26.90847778320312 92.0133056640625 26.90847778320312 116.3662490844727 C 26.90847778320312 140.7163696289062 7.167160034179688 160.4576721191406 -17.18576049804688 160.4576721191406 C -25.46094703674316 160.4576721191406 -33.17401504516602 158.136474609375 -39.79081344604492 154.1708679199219 L -61.27999877929688 160.4576721191406 L -54.99321365356445 138.9712677001953 C -58.95880126953125 132.3544769287109 -61.27999877929688 124.6386108398438 -61.27999877929688 116.3662490844727 C -61.27999877929688 92.0133056640625 -41.53869247436523 72.27200317382812 -17.18576049804688 72.27200317382812 Z" stroke="none" fill="#8e8e8e"/>
          </g>
        </g>
      </g>
    </g>
    <g id="Gruppe_21025" data-name="Gruppe 21025" transform="translate(-100 -408.999)">
      <g id="Gruppe_20559" data-name="Gruppe 20559" transform="translate(132.001 5.74)">
        <g id="Gruppe_20545" data-name="Gruppe 20545" transform="translate(167 618.259)">
          <circle id="Ellipse_2172" data-name="Ellipse 2172" cx="12.5" cy="12.5" r="12.5" transform="translate(0)" fill="#00b7ff"/>
        </g>
      </g>
      <g id="Check_Icon-2" data-name="Check Icon-2" transform="translate(304.162 629.516)">
        <rect id="Bounds-39" width="14" height="14" transform="translate(0.338 0.484)" fill="none"/>
        <path id="Icon-39" d="M6.8,12,4.286,9.48l-.839.839L6.8,13.673l7.187-7.187-.839-.839Z" transform="translate(-1.301 -2.183)" fill="#fff" style="isolation: isolate"/>
      </g>
    </g>
    <g id="Gruppe_21319" data-name="Gruppe 21319" transform="translate(-1 -1)">
      <path id="Pfad_21544" data-name="Pfad 21544" d="M162.358,246.1h26.489" transform="translate(-3)" fill="none" stroke="#8e8e8e" stroke-linecap="round" stroke-width="2"/>
      <path id="Pfad_21545" data-name="Pfad 21545" d="M162.358,246.1h43.934" transform="translate(-3 14)" fill="none" stroke="#8e8e8e" stroke-linecap="round" stroke-width="2"/>
      <path id="Pfad_21546" data-name="Pfad 21546" d="M162.358,246.1h43.934" transform="translate(-3 28)" fill="none" stroke="#8e8e8e" stroke-linecap="round" stroke-width="2"/>
    </g>
  </g>
</svg>
