<svg xmlns="http://www.w3.org/2000/svg" width="64" height="64" viewBox="0 0 64 64">
  <g id="Gruppe_25729" data-name="Gruppe 25729" transform="translate(-32 -140)">
    <g id="Gruppe_25529" data-name="Gruppe 25529" transform="translate(7831.3 17262.4)">
      <g id="Gruppe_25518" data-name="Gruppe 25518" transform="translate(-7795 -17115)">
        <path id="Pfad_28483" data-name="Pfad 28483" d="M50.279,578.361v41.122s-2.86-2.362-5.49-2.362H22.625V575.933H44.789C47.72,575.933,50.279,578.361,50.279,578.361Z" transform="translate(-22.625 -575.933)" fill="#fff" stroke="#626262" stroke-linejoin="round" stroke-width="1.5"/>
        <path id="Pfad_28484" data-name="Pfad 28484" d="M38.625,578.361v41.122s2.86-2.362,5.492-2.362H66.279V575.933H44.117C41.184,575.933,38.625,578.361,38.625,578.361Z" transform="translate(-10.999 -575.933)" fill="#fff" stroke="#626262" stroke-linejoin="round" stroke-width="1.5"/>
        <line id="Linie_7376" data-name="Linie 7376" x2="16.277" transform="translate(5.885 10.776)" fill="none" stroke="#626262" stroke-linecap="round" stroke-linejoin="round" stroke-width="1.5"/>
        <line id="Linie_7377" data-name="Linie 7377" x2="16.277" transform="translate(5.885 17.167)" fill="none" stroke="#626262" stroke-linecap="round" stroke-linejoin="round" stroke-width="1.5"/>
        <line id="Linie_7378" data-name="Linie 7378" x2="16.277" transform="translate(5.885 23.557)" fill="none" stroke="#626262" stroke-linecap="round" stroke-linejoin="round" stroke-width="1.5"/>
        <line id="Linie_7379" data-name="Linie 7379" x2="16.277" transform="translate(5.885 29.948)" fill="none" stroke="#626262" stroke-linecap="round" stroke-linejoin="round" stroke-width="1.5"/>
        <path id="Pfad_28485" data-name="Pfad 28485" d="M22.625,602.677H44.787c2.276,0,3.733,2.494,5.726,2.494,1.893,0,3.394-2.494,5.612-2.494H77.853" transform="translate(-22.625 -556.063)" fill="none" stroke="#626262" stroke-linecap="round" stroke-linejoin="round" stroke-width="1.5"/>
      </g>
      <g id="Gruppe_25520" data-name="Gruppe 25520" transform="translate(-7759.384 -17107.857)">
        <path id="Pfad_28486" data-name="Pfad 28486" d="M40.21,569.042a6.8,6.8,0,0,1,.7-3.44,11.566,11.566,0,0,1,2.712-2.652,8.89,8.89,0,0,0,1.9-2.1,4.593,4.593,0,0,0,.713-2.518,3.394,3.394,0,0,0-.816-2.414,3.017,3.017,0,0,0-2.323-.874,3.126,3.126,0,0,0-2.105.739,2.73,2.73,0,0,0-.882,2.165H35.344l-.034-.1a5.783,5.783,0,0,1,2.122-4.932A8.878,8.878,0,0,1,43.1,551.2a8.572,8.572,0,0,1,5.9,1.9,6.585,6.585,0,0,1,2.14,5.179,6.809,6.809,0,0,1-1.252,3.944,11.136,11.136,0,0,1-3.131,3.036,3.991,3.991,0,0,0-1.34,1.587,6.011,6.011,0,0,0-.321,2.191Zm4.918,8.522H40.193v-4.193h4.935Z" transform="translate(-35.309 -551.201)" fill="#ffbc00"/>
      </g>
      <g id="Gruppe_25519" data-name="Gruppe 25519" transform="translate(-7761.127 -17107.857)">
        <path id="Pfad_28486-2" data-name="Pfad 28486" d="M40.21,569.042a6.8,6.8,0,0,1,.7-3.44,11.566,11.566,0,0,1,2.712-2.652,8.89,8.89,0,0,0,1.9-2.1,4.593,4.593,0,0,0,.713-2.518,3.394,3.394,0,0,0-.816-2.414,3.017,3.017,0,0,0-2.323-.874,3.126,3.126,0,0,0-2.105.739,2.73,2.73,0,0,0-.882,2.165H35.344l-.034-.1a5.783,5.783,0,0,1,2.122-4.932A8.878,8.878,0,0,1,43.1,551.2a8.572,8.572,0,0,1,5.9,1.9,6.585,6.585,0,0,1,2.14,5.179,6.809,6.809,0,0,1-1.252,3.944,11.136,11.136,0,0,1-3.131,3.036,3.991,3.991,0,0,0-1.34,1.587,6.011,6.011,0,0,0-.321,2.191Zm4.918,8.522H40.193v-4.193h4.935Z" transform="translate(-35.309 -551.201)" fill="none" stroke="#626262" stroke-linejoin="round" stroke-width="1.5"/>
      </g>
    </g>
    <rect id="Rechteck_4062" data-name="Rechteck 4062" width="64" height="64" transform="translate(32 140)" fill="none"/>
  </g>
</svg>
