<?xml version="1.0" encoding="utf-8"?>
<!-- Generator: Adobe Illustrator 24.3.0, SVG Export Plug-In . SVG Version: 6.00 Build 0)  -->
<svg version="1.1" id="Ebene_1" xmlns="http://www.w3.org/2000/svg" xmlns:xlink="http://www.w3.org/1999/xlink" x="0px" y="0px"
	 viewBox="0 0 31.5 31.5" style="enable-background:new 0 0 31.5 31.5;" xml:space="preserve">
<style type="text/css">
	.st0{fill:none;stroke:#FFBC00;stroke-width:1.5;stroke-linecap:round;stroke-linejoin:round;}
	.st1{fill:#FFBC00;}
</style>
<g id="Gruppe_14351" transform="translate(-119.582 -19.104)">
	<path id="Pfad_13139" class="st0" d="M150.3,32.3c0-6.9-6.7-12.4-15-12.4s-15,5.6-15,12.4s6.7,12.4,15,12.4c0.6,0,1.2,0,1.9-0.1
		l3.1,5.2l6-9.1C148.8,38.7,150.3,35.6,150.3,32.3z"/>
	<g id="Gruppe_14341" transform="translate(130.675 25.602)">
		<path id="Pfad_13140" class="st1" d="M2.7,9.9c0-0.7,0.1-1.4,0.5-1.9c0.5-0.6,1-1.1,1.7-1.5c0.4-0.2,0.7-0.6,1-1
			c0.2-0.4,0.4-0.9,0.4-1.3c0-0.5-0.1-0.9-0.4-1.2C5.4,2.6,5,2.4,4.6,2.4c-0.4,0-0.8,0.1-1,0.4C3.2,3.1,3.1,3.5,3.1,3.9H0l0-0.1
			C-0.1,2.8,0.4,1.7,1.2,1c1-0.7,2.1-1,3.3-1C5.8-0.1,7.1,0.3,8,1.1c0.9,0.8,1.3,1.9,1.3,3c0,0.8-0.2,1.5-0.7,2.1
			C8.2,6.9,7.6,7.4,6.9,7.8C6.5,8,6.2,8.3,6.1,8.6C5.9,9,5.8,9.4,5.8,9.9L2.7,9.9z M5.8,13.7H2.7v-2.5h3.1V13.7z"/>
	</g>
</g>
</svg>
