<svg xmlns="http://www.w3.org/2000/svg" width="64" height="64" viewBox="0 0 64 64">
  <g id="Gruppe_25423" data-name="Gruppe 25423" transform="translate(74 -715)">
    <rect id="Rechteck_3999" data-name="Rechteck 3999" width="64" height="64" transform="translate(-74 715)" fill="none"/>
    <g id="Gruppe_25410" data-name="Gruppe 25410" transform="translate(-71.813 716.512)">
      <g id="Ellipse_2855" data-name="Ellipse 2855" fill="none" stroke-miterlimit="10">
        <path d="M0,30.321A30.321,30.321,0,1,1,30.321,60.642,30.321,30.321,0,0,1,0,30.321Z" stroke="none"/>
        <path d="M 30.321044921875 1.5 C 26.4295654296875 1.5 22.65528869628906 2.261810302734375 19.10305786132812 3.764289855957031 C 15.67124557495117 5.215824127197266 12.58884429931641 7.294132232666016 9.941490173339844 9.941490173339844 C 7.294132232666016 12.58884429931641 5.215824127197266 15.67124557495117 3.764289855957031 19.10305786132812 C 2.261810302734375 22.65528869628906 1.5 26.4295654296875 1.5 30.321044921875 C 1.5 34.2125244140625 2.261810302734375 37.98680114746094 3.764289855957031 41.53903198242188 C 5.215824127197266 44.97084426879883 7.294132232666016 48.05324554443359 9.941490173339844 50.70059967041016 C 12.58884429931641 53.34795761108398 15.67124557495117 55.42626571655273 19.10305786132812 56.87779998779297 C 22.65528869628906 58.38027954101562 26.4295654296875 59.14208984375 30.321044921875 59.14208984375 C 34.2125244140625 59.14208984375 37.98680114746094 58.38027954101562 41.53903198242188 56.87779998779297 C 44.97084426879883 55.42626571655273 48.05324554443359 53.34795761108398 50.70059967041016 50.70059967041016 C 53.34795761108398 48.05324554443359 55.42626571655273 44.97084426879883 56.87779998779297 41.53903198242188 C 58.38027954101562 37.98680114746094 59.14208984375 34.2125244140625 59.14208984375 30.321044921875 C 59.14208984375 26.4295654296875 58.38027954101562 22.65528869628906 56.87779998779297 19.10305786132812 C 55.42626571655273 15.67124557495117 53.34795761108398 12.58884429931641 50.70059967041016 9.941490173339844 C 48.05324554443359 7.294132232666016 44.97084426879883 5.215824127197266 41.53903198242188 3.764289855957031 C 37.98680114746094 2.261810302734375 34.2125244140625 1.5 30.321044921875 1.5 M 30.321044921875 0 C 47.06689071655273 0 60.64208984375 13.57518768310547 60.64208984375 30.321044921875 C 60.64208984375 47.06689071655273 47.06689071655273 60.64208984375 30.321044921875 60.64208984375 C 13.57518768310547 60.64208984375 0 47.06689071655273 0 30.321044921875 C 0 13.57518768310547 13.57518768310547 0 30.321044921875 0 Z" stroke="none" fill="#ffbc00"/>
      </g>
      <path id="Pfad_28677" data-name="Pfad 28677" d="M27.607,0A27.612,27.612,0,1,1,0,27.612" transform="translate(57.165 3.222) rotate(90)" fill="none" stroke="#ffbc00" stroke-linecap="square" stroke-miterlimit="10" stroke-width="6"/>
      <g id="Ellipse_2856" data-name="Ellipse 2856" transform="translate(4.738 5.685)" fill="#f3f1f1" stroke-miterlimit="10">
        <path d="M 25.10961532592773 49.46923446655273 C 21.82075500488281 49.46923446655273 18.63067626953125 48.82527542114258 15.62798500061035 47.55524444580078 C 12.72734546661377 46.32837677001953 10.12215518951416 44.57185363769531 7.884765148162842 42.33446502685547 C 5.647385120391846 40.09708404541016 3.890865325927734 37.49188613891602 2.663995265960693 34.59124374389648 C 1.393965363502502 31.58855438232422 0.750005304813385 28.39847564697266 0.750005304813385 25.10961532592773 C 0.750005304813385 21.82075500488281 1.393965363502502 18.63067626953125 2.663995265960693 15.62798500061035 C 3.890865325927734 12.72734546661377 5.647385120391846 10.12215518951416 7.884765148162842 7.884765148162842 C 10.12215518951416 5.647385120391846 12.72734546661377 3.890865325927734 15.62798500061035 2.663995265960693 C 18.63067626953125 1.393965363502502 21.82075500488281 0.750005304813385 25.10961532592773 0.750005304813385 C 28.39847564697266 0.750005304813385 31.58855438232422 1.393965363502502 34.59124374389648 2.663995265960693 C 37.49188613891602 3.890865325927734 40.09708404541016 5.647385120391846 42.33446502685547 7.884765148162842 C 44.57185363769531 10.12215518951416 46.32837677001953 12.72734546661377 47.55524444580078 15.62798500061035 C 48.82527542114258 18.63067626953125 49.46923446655273 21.82075500488281 49.46923446655273 25.10961532592773 C 49.46923446655273 28.39847564697266 48.82527542114258 31.58855438232422 47.55524444580078 34.59124374389648 C 46.32837677001953 37.49188613891602 44.57185363769531 40.09708404541016 42.33446502685547 42.33446502685547 C 40.09708404541016 44.57185363769531 37.49188613891602 46.32837677001953 34.59124374389648 47.55524444580078 C 31.58855438232422 48.82527542114258 28.39847564697266 49.46923446655273 25.10961532592773 49.46923446655273 Z" stroke="none"/>
        <path d="M 25.10961532592773 1.499996185302734 C 21.92167472839355 1.499996185302734 18.82989501953125 2.1240234375 15.92014694213867 3.354743957519531 C 13.10890579223633 4.543796539306641 10.58384704589844 6.246345520019531 8.415096282958984 8.415096282958984 C 6.246345520019531 10.58384704589844 4.543796539306641 13.10890579223633 3.354743957519531 15.92014694213867 C 2.1240234375 18.82989501953125 1.499996185302734 21.92167472839355 1.499996185302734 25.10961532592773 C 1.499996185302734 28.29755592346191 2.1240234375 31.38933563232422 3.354743957519531 34.29908752441406 C 4.543796539306641 37.11031341552734 6.246345520019531 39.63538360595703 8.415096282958984 41.80413436889648 C 10.58384704589844 43.97288513183594 13.10890579223633 45.6754264831543 15.92014694213867 46.86448669433594 C 18.82989501953125 48.09519577026367 21.92167472839355 48.7192268371582 25.10961532592773 48.7192268371582 C 28.29755592346191 48.7192268371582 31.38933563232422 48.09519577026367 34.29908752441406 46.86448669433594 C 37.11031341552734 45.6754264831543 39.63538360595703 43.97288513183594 41.80413436889648 41.80413436889648 C 43.97288513183594 39.63538360595703 45.6754264831543 37.11031341552734 46.86448669433594 34.29908752441406 C 48.09519577026367 31.38933563232422 48.7192268371582 28.29755592346191 48.7192268371582 25.10961532592773 C 48.7192268371582 21.92167472839355 48.09519577026367 18.82989501953125 46.86448669433594 15.92014694213867 C 45.6754264831543 13.10890579223633 43.97288513183594 10.58384704589844 41.80413436889648 8.415096282958984 C 39.63538360595703 6.246345520019531 37.11031341552734 4.543796539306641 34.29908752441406 3.354743957519531 C 31.38933563232422 2.1240234375 28.29755592346191 1.499996185302734 25.10961532592773 1.499996185302734 M 25.10961532592773 -3.814697265625e-06 C 38.97727584838867 -3.814697265625e-06 50.2192268371582 11.2419548034668 50.2192268371582 25.10961532592773 C 50.2192268371582 38.97727584838867 38.97727584838867 50.2192268371582 25.10961532592773 50.2192268371582 C 11.2419548034668 50.2192268371582 -3.814697265625e-06 38.97727584838867 -3.814697265625e-06 25.10961532592773 C -3.814697265625e-06 11.2419548034668 11.2419548034668 -3.814697265625e-06 25.10961532592773 -3.814697265625e-06 Z" stroke="none" fill="#626262"/>
      </g>
      <text id="Medikament_nachbestellen" data-name="Medikament nachbestellen" transform="translate(30.477 35.793)" fill="#626262" font-size="13" font-family="Roboto-Medium, Roboto" font-weight="500"><tspan x="-12.162" y="0">70%</tspan></text>
    </g>
  </g>
</svg>
