<svg xmlns="http://www.w3.org/2000/svg" width="38" height="38" viewBox="0 0 38 38">
  <g id="Gruppe_25410" data-name="Gruppe 25410" transform="translate(0.439)">
    <rect id="Rechteck_3931" data-name="Rechteck 3931" width="38" height="38" transform="translate(-0.439)" fill="none"/>
    <g id="Gruppe_25286" data-name="Gruppe 25286" transform="translate(1.382 0.779)">
      <g id="Gruppe_13914" data-name="Gruppe 13914" transform="translate(0)">
        <path id="Pfad_12944" data-name="Pfad 12944" d="M-454-455.037a19.411,19.411,0,0,1,0-27.422,19.412,19.412,0,0,1,27.421,0l-1.29,1.29a17.585,17.585,0,0,0-24.841,0,17.587,17.587,0,0,0,0,24.842Z" transform="translate(459.673 488.129)" fill="#ffbc00"/>
      </g>
      <g id="Gruppe_13915" data-name="Gruppe 13915" transform="translate(4.553 4.552)">
        <path id="Pfad_12945" data-name="Pfad 12945" d="M-439.854-483.139a14.829,14.829,0,0,0-14.829,14.829,14.829,14.829,0,0,0,14.829,14.828,14.829,14.829,0,0,0,14.829-14.828A14.829,14.829,0,0,0-439.854-483.139Zm-.564,13.237h-2.505a2.722,2.722,0,0,0-.484-1.607,1.8,1.8,0,0,0-1.465-.525,1.6,1.6,0,0,0-1.378.705,3.11,3.11,0,0,0-.5,1.846v2.33a2.955,2.955,0,0,0,.547,1.858,1.8,1.8,0,0,0,1.508.708,1.577,1.577,0,0,0,1.317-.495,2.786,2.786,0,0,0,.443-1.576h2.505l.015.045a4.162,4.162,0,0,1-1.153,2.978,4.362,4.362,0,0,1-3.126,1.027,4.568,4.568,0,0,1-3.343-1.264,4.4,4.4,0,0,1-1.288-3.283v-2.314a4.492,4.492,0,0,1,1.238-3.278,4.292,4.292,0,0,1,3.217-1.268,4.486,4.486,0,0,1,3.213,1.058,4.438,4.438,0,0,1,1.256,3.008Zm10.037,2.749a4.4,4.4,0,0,1-1.287,3.283,4.568,4.568,0,0,1-3.342,1.264,4.365,4.365,0,0,1-3.127-1.027,4.166,4.166,0,0,1-1.153-2.978l.015-.045h2.505a2.788,2.788,0,0,0,.443,1.576,1.578,1.578,0,0,0,1.317.495,1.8,1.8,0,0,0,1.507-.708,2.956,2.956,0,0,0,.548-1.858v-2.33a3.109,3.109,0,0,0-.5-1.846,1.6,1.6,0,0,0-1.378-.705,1.8,1.8,0,0,0-1.465.525,2.723,2.723,0,0,0-.484,1.607h-2.505l-.015-.046a4.439,4.439,0,0,1,1.256-3.008,4.487,4.487,0,0,1,3.213-1.058,4.291,4.291,0,0,1,3.217,1.268,4.492,4.492,0,0,1,1.238,3.278Z" transform="translate(454.683 483.139)" fill="#ffbc00"/>
      </g>
    </g>
  </g>
</svg>
