<svg xmlns="http://www.w3.org/2000/svg" width="64" height="64" viewBox="0 0 64 64">
  <g id="Gruppe_26016" data-name="Gruppe 26016" transform="translate(-36 -161.379)">
    <rect id="Rechteck_4000" data-name="Rechteck 4000" width="64" height="64" transform="translate(36 161.379)" fill="none"/>
    <g id="Gruppe_25449" data-name="Gruppe 25449" transform="translate(42.653 172.876)">
      <path id="Pfad_28641" data-name="Pfad 28641" d="M1790.645-516.7s1.748-.851,7.862-.943c5.037-.076,11.787,1.1,14.144.551,0,0,1.21-.634,2.455-1.155,0,0,.262-.494,2.751-3.8a7.824,7.824,0,0,1,5.037-3.3s1.181-2.831,3.44-2.767c.4.011-.194,3.446-.194,3.446a6.745,6.745,0,0,1,.815.395c2.942,1.774,2.1,4.49,2.338,5.05a8.154,8.154,0,0,0,.866,1.349c.719.989-1.862,2.985-3.435,2.6a23.323,23.323,0,0,1-2.989-.955s-.674,3.774-1.578,7.236c-.985,3.761-5.157,7.949-5.235,8.426s-.4,8.858-.4,8.858a6.631,6.631,0,0,1,2.191.983c.334.409-.215,1.868-.67,2.057a8.479,8.479,0,0,1-3.822-.2c-.472-.313-1.336-6.928-1.572-8.33a33.626,33.626,0,0,1-.077-4.8s-1.808-.079-4.716-.472a64.987,64.987,0,0,1-7.932-1.966s-2,2.008-3.616,3.693c-1.931,2.021-6,5.758-6,5.758l.525,3.44a18.1,18.1,0,0,1,1.948.806c.551.317.147,2.206-.325,2.206s-3.057.206-3.606-.266-2.206-6.175-2.206-7.041,2.914-7.736,2.914-7.736-.549-2.516-.785-4.088a23.148,23.148,0,0,1,.236-4.793,17.192,17.192,0,0,1-3.463-2.536,29.819,29.819,0,0,1-4.539-5.248c-2.393-3.484-2.916-8.617-1.661-8.683,1.293-.068,1.242,3.6,4.9,7.966C1787.442-517.154,1790.645-516.7,1790.645-516.7Z" transform="translate(-1778.682 528.933)" fill="none" stroke="#7c7c7c" stroke-linecap="round" stroke-linejoin="round" stroke-width="1.5"/>
      <path id="Ellipse_2796" data-name="Ellipse 2796" d="M0,7.047a7.047,7.047,0,1,1,7.047,7.042A7.044,7.044,0,0,1,0,7.047Z" transform="translate(14.162 17.629)" fill="#ffbc00" style="mix-blend-mode: multiply;isolation: isolate"/>
    </g>
  </g>
</svg>
