<svg xmlns="http://www.w3.org/2000/svg" width="75" height="75" viewBox="0 0 75 75">
  <g id="Gruppe_25448" data-name="Gruppe 25448" transform="translate(-36 -161)">
    <rect id="Rechteck_4000" data-name="Rechteck 4000" width="75" height="75" transform="translate(36 161)" fill="none"/>
    <g id="Gruppe_25449" data-name="Gruppe 25449" transform="translate(2 5)">
      <path id="Ellipse_2796" data-name="Ellipse 2796" d="M0,8.209a8.209,8.209,0,1,1,8.209,8.2A8.207,8.207,0,0,1,0,8.209Z" transform="translate(55.249 188.375)" fill="#ffbc00"/>
      <path id="Pfad_13268" data-name="Pfad 13268" d="M52.25,11.226h0c1.9.136,4.315.3,5.982.4A1.856,1.856,0,0,0,60,10.7a25.709,25.709,0,0,0,1.677-2.621c.327-.619.022-1.1-.976-1.5-1.356-.554-3.138-1.256-5.145-2.038A6.007,6.007,0,0,0,50.645.216c-3.757-.8-6.372.69-7.912,3.9-.475.989-2.329,6.3-3.6,7.728l-2.414,1.913-22.694,1.1a12.386,12.386,0,0,1-11.692-6.6A1.235,1.235,0,0,0,.139,9.4a14.865,14.865,0,0,0,9.684,7.54A9.6,9.6,0,0,0,7.951,20.59c-.581,2.1-.79,5.445,1.346,9.693L5.833,35.46a1.235,1.235,0,0,0-.22.956L7.137,46.1a1.236,1.236,0,0,0,1.215,1.011H9.905a1.235,1.235,0,0,0,1.216-1.457l-.965-6.72s1.685-1.723,5.1-4.637c3.848-3.28,5.286-5.391,5.885-6.626,5.092-.957,14.027,2.671,18.7,3.423L41.9,46.068a1.236,1.236,0,0,0,1.22,1.044H44.4a1.235,1.235,0,0,0,1.236-1.235V30.705c.494-.337,3.527-3.342,3.715-6.987.285-5.515.883-9.3.883-9.3" transform="translate(40.748 169.833)" fill="none" stroke="#7c7c7c" stroke-linecap="round" stroke-miterlimit="10" stroke-width="1.5"/>
      <g id="Gruppe_14180" data-name="Gruppe 14180" transform="translate(84.567 173.491)">
        <path id="Pfad_13238" data-name="Pfad 13238" d="M7.009,0,8.37,7.049a3.287,3.287,0,0,1-2.6,3.839L5.2,11a3.288,3.288,0,0,1-3.84-2.6L0,1.356" fill="none" stroke="#7c7c7c" stroke-linecap="round" stroke-miterlimit="10" stroke-width="1.5"/>
      </g>
    </g>
  </g>
</svg>
