<svg xmlns="http://www.w3.org/2000/svg" width="64" height="64" viewBox="0 0 64 64">
  <g id="Gruppe_25424" data-name="Gruppe 25424" transform="translate(74 -715)">
    <rect id="Rechteck_3999" data-name="Rechteck 3999" width="64" height="64" transform="translate(-74 715)" fill="none"/>
    <g id="Gruppe_25425" data-name="Gruppe 25425" transform="translate(0 -0.305)">
      <path id="Ellipse_2857" data-name="Ellipse 2857" d="M0,31A31,31,0,1,1,31,62,31,31,0,0,1,0,31Z" transform="translate(-72.934 716.244)" fill="#f3f1f1"/>
      <g id="Gruppe_25425-2" data-name="Gruppe 25425" transform="translate(-57.274 754.049) rotate(-17)">
        <g id="Rechteck_3943" data-name="Rechteck 3943" transform="translate(0 0)" fill="#fff" stroke="#7c7c7c" stroke-width="1.5">
          <rect width="39.451" height="16.127" rx="8.064" stroke="none"/>
          <rect x="0.75" y="0.75" width="37.951" height="14.627" rx="7.314" fill="none"/>
        </g>
        <g id="Rechteck_3947" data-name="Rechteck 3947" transform="translate(0 0)" fill="#fff" stroke="#7c7c7c" stroke-width="1.5">
          <rect width="39.451" height="16.127" rx="8.064" stroke="none"/>
          <rect x="0.75" y="0.75" width="37.951" height="14.627" rx="7.314" fill="none"/>
        </g>
        <g id="Differenzmenge_21" data-name="Differenzmenge 21" transform="translate(20.029 0)" fill="#fff">
          <path d="M 11.35889911651611 15.37709999084473 L 0.749999463558197 15.37709999084473 L 0.749999463558197 0.75 L 11.35889911651611 0.75 C 15.39135932922363 0.75 18.67199897766113 4.031050205230713 18.67199897766113 8.064000129699707 C 18.67199897766113 12.09646034240723 15.39135932922363 15.37709999084473 11.35889911651611 15.37709999084473 Z" stroke="none"/>
          <path d="M 11.35889911651611 14.62709999084473 C 14.97780990600586 14.62709999084473 17.92199897766113 11.68290996551514 17.92199897766113 8.064000129699707 C 17.92199897766113 4.444600105285645 14.97780990600586 1.5 11.35889911651611 1.5 L 1.499999523162842 1.5 L 1.499999523162842 14.62709999084473 L 11.35889911651611 14.62709999084473 M 11.35889911651611 16.12709999084473 L -5.111694463266758e-07 16.12709999084473 L -5.111694463266758e-07 -4.577637824354497e-09 L 11.35889911651611 -4.577637824354497e-09 C 15.80490970611572 -4.577637824354497e-09 19.42199897766113 3.617500066757202 19.42199897766113 8.064000129699707 C 19.42199897766113 12.510009765625 15.80490970611572 16.12709999084473 11.35889911651611 16.12709999084473 Z" stroke="none" fill="#626262"/>
        </g>
        <g id="Pfad_28450" data-name="Pfad 28450" transform="translate(0 0)" fill="none">
          <path d="M8.064,0H31.388a8.064,8.064,0,1,1,0,16.127H8.064A8.064,8.064,0,1,1,8.064,0Z" stroke="none"/>
          <path d="M 8.063543319702148 1.500001907348633 L 8.06352424621582 1.500001907348633 C 6.310504913330078 1.500001907348633 4.66229248046875 2.182762145996094 3.422534942626953 3.422501564025879 C 2.182762145996094 4.662261962890625 1.499992370605469 6.310451507568359 1.500003814697266 8.063491821289062 C 1.500015258789062 11.68262195587158 4.444412231445312 14.62700176239014 8.063573837280273 14.62701225280762 L 31.38791275024414 14.62706184387207 C 35.00705337524414 14.62706184387207 37.95143508911133 11.68269157409668 37.95143508911133 8.063571929931641 C 37.95142364501953 4.444441795349121 35.00701522827148 1.500061988830566 31.38785362243652 1.500051498413086 L 8.06352424621582 1.500001907348633 L 8.063543319702148 1.500001907348633 M 8.063526153564453 1.9073486328125e-06 C 8.063796997070312 1.9073486328125e-06 8.063272476196289 1.9073486328125e-06 8.063543319702148 1.9073486328125e-06 L 31.38785362243652 5.14984130859375e-05 C 35.84123229980469 6.103515625e-05 39.45142364501953 3.610221862792969 39.45143508911133 8.063571929931641 C 39.45143508911133 12.51665019989014 35.84091949462891 16.12706184387207 31.38791275024414 16.12706184387207 C 31.38763999938965 16.12706184387207 31.38816452026367 16.12706184387207 31.38789367675781 16.12706184387207 L 8.063573837280273 16.12701225280762 C 3.610195159912109 16.12700271606445 1.52587890625e-05 12.51684188842773 3.814697265625e-06 8.063491821289062 C -1.52587890625e-05 3.610404014587402 3.610519409179688 1.9073486328125e-06 8.063526153564453 1.9073486328125e-06 Z" stroke="none" fill="#626262"/>
        </g>
      </g>
      <g id="Gruppe_25426" data-name="Gruppe 25426" transform="matrix(0.545, -0.839, 0.839, 0.545, -69.859, 756.837)">
        <g id="Rechteck_3943-2" data-name="Rechteck 3943" transform="translate(0 0)" fill="#fff" stroke="#626262" stroke-width="1.5">
          <rect width="46.239" height="18.902" rx="9.451" stroke="none"/>
          <rect x="0.75" y="0.75" width="44.739" height="17.402" rx="8.701" fill="none"/>
        </g>
        <g id="Rechteck_3947-2" data-name="Rechteck 3947" transform="translate(0 0)" fill="#fff" stroke="#626262" stroke-width="1.5">
          <rect width="46.239" height="18.902" rx="9.451" stroke="none"/>
          <rect x="0.75" y="0.75" width="44.739" height="17.402" rx="8.701" fill="none"/>
        </g>
        <path id="Differenzmenge_21-2" data-name="Differenzmenge 21" d="M13.313,18.9H0V0H13.313a9.451,9.451,0,0,1,0,18.9Z" transform="translate(23.475 0)" fill="#ffbc00"/>
        <g id="Rechteck_3946" data-name="Rechteck 3946" transform="translate(0 0)" fill="none" stroke="#626262" stroke-width="1.5">
          <rect width="46.239" height="18.902" rx="9.451" stroke="none"/>
          <rect x="0.75" y="0.75" width="44.739" height="17.402" rx="8.701" fill="none"/>
        </g>
      </g>
    </g>
  </g>
</svg>
