<?xml version="1.0" encoding="utf-8"?>
<!-- Generator: Adobe Illustrator 24.3.0, SVG Export Plug-In . SVG Version: 6.00 Build 0)  -->
<svg version="1.1" id="Ebene_1" xmlns="http://www.w3.org/2000/svg" xmlns:xlink="http://www.w3.org/1999/xlink" x="0px" y="0px"
	 viewBox="0 0 25 25" style="enable-background:new 0 0 25 25;" xml:space="preserve">
<style type="text/css">
	.st0{fill:none;}
	.st1{fill:#FFBC00;}
</style>
<g id="Gruppe_21075" transform="translate(-1199 8947.5)">
	<g id="Ellipse_2755" transform="translate(1199 -8947.5)">
		<g>
			<circle class="st0" cx="12.5" cy="12.5" r="12.5"/>
		</g>
		<g>
			<path class="st1" d="M12.5,25C5.6,25,0,19.4,0,12.5C0,5.6,5.6,0,12.5,0S25,5.6,25,12.5C25,19.4,19.4,25,12.5,25z M12.5,1.5
				c-6.1,0-11,4.9-11,11c0,6.1,4.9,11,11,11s11-4.9,11-11C23.5,6.4,18.6,1.5,12.5,1.5z"/>
		</g>
	</g>
	<g id="Gruppe_21074" transform="translate(1275.491 -9333.282)">
		<g id="Pfad_21495">
			<path class="st1" d="M-64.6,397.2c-0.1,0-0.2,0-0.3-0.1c-0.2-0.2-0.2-0.5,0-0.7c0.3-0.3,0.3-0.4-0.1-0.8c-0.4-0.5-1-1.2-0.1-2.5
				c0.2-0.2,0.5-0.3,0.7-0.1s0.3,0.5,0.1,0.7c-0.5,0.7-0.3,0.9,0.1,1.4c0.3,0.4,0.9,1.1,0,2.1C-64.3,397.2-64.5,397.2-64.6,397.2z"
				/>
		</g>
		<g id="Pfad_21496">
			<path class="st1" d="M-62.9,395.2c-0.1,0-0.2,0-0.3-0.1c-0.2-0.2-0.2-0.5,0-0.7c0.3-0.3,0.3-0.4-0.1-0.8c-0.4-0.5-1-1.2-0.1-2.5
				c0.2-0.2,0.5-0.3,0.7-0.1c0.2,0.2,0.3,0.5,0.1,0.7c-0.5,0.7-0.3,0.9,0.1,1.4c0.3,0.4,0.9,1.1,0,2.1
				C-62.7,395.1-62.8,395.2-62.9,395.2z"/>
		</g>
		<g>
			<path class="st0" d="M-68.2,398v5c0,0.7,0.6,1.3,1.3,1.3h6.2c0.7,0,1.3-0.6,1.3-1.3v-5H-68.2z"/>
		</g>
		<path class="st1" d="M-57.6,399.9c0-1-0.8-1.9-1.9-2v0h-8.7v0c-0.5,0-1,0.2-1.3,0.6c-0.4,0.4-0.6,0.9-0.6,1.4c0,1.1,0.8,1.9,1.9,2
			v1c0,0.7,0.6,1.3,1.3,1.3h6.2c0.7,0,1.3-0.6,1.3-1.3v-1C-58.5,401.9-57.6,401-57.6,399.9z M-69.1,399.9c0-0.5,0.4-0.9,0.9-0.9v1.9
			C-68.7,400.9-69.1,400.5-69.1,399.9z M-60.5,402.9c0,0.1-0.1,0.3-0.3,0.3h-6.2c-0.1,0-0.3-0.1-0.3-0.3v-4h6.7V402.9z M-59.5,400.9
			V399c0.5,0,0.9,0.4,0.9,0.9C-58.6,400.4-59,400.8-59.5,400.9z"/>
	</g>
</g>
</svg>
