<svg xmlns="http://www.w3.org/2000/svg" width="41.49" height="9.385" viewBox="0 0 41.49 9.385">
  <g id="Gruppe_21263" data-name="Gruppe 21263" transform="translate(76 -471)">
    <g id="Gruppe_21262" data-name="Gruppe 21262" transform="translate(-76 471)">
      <path id="Pfad_21517" data-name="Pfad 21517" d="M81.2,534.31h7.5s1.47.038,1.282,1.81l-5.542,5.58h4.185a1.607,1.607,0,0,1,1.847,1.885h-7.2s-1.546.075-1.584-1.885l5.58-5.542H83.086S80.975,536.157,81.2,534.31Z" transform="translate(-81.184 -534.238)" fill="#2d8cff"/>
      <path id="Pfad_21518" data-name="Pfad 21518" d="M221.522,541.232a2.828,2.828,0,1,1,2.828-2.828A2.828,2.828,0,0,1,221.522,541.232ZM226.2,538.4a4.675,4.675,0,1,0-4.675,4.675A4.675,4.675,0,0,0,226.2,538.4Z" transform="translate(-208.036 -533.695)" fill="#2d8cff"/>
      <path id="Pfad_21519" data-name="Pfad 21519" d="M372.466,541.232a2.828,2.828,0,1,1,2.828-2.828A2.828,2.828,0,0,1,372.466,541.232Zm4.675-2.828a4.675,4.675,0,1,0-4.675,4.675A4.675,4.675,0,0,0,377.142,538.4Z" transform="translate(-349.176 -533.695)" fill="#2d8cff"/>
      <path id="Pfad_21520" data-name="Pfad 21520" d="M518.564,533.242v9.313a1.508,1.508,0,0,0,1.847-1.546v-4a1.97,1.97,0,0,1,1.923-1.923,1.918,1.918,0,0,1,1.847,1.848v4.11a1.651,1.651,0,0,0,1.923,1.508v-5.58s.038-2,1.923-1.885a1.811,1.811,0,0,1,1.7,1.584v3.883s-.151,2.225,1.923,2v-5.731a3.786,3.786,0,0,0-3.431-3.582,4.07,4.07,0,0,0-3.111,1.282s-2.21-2.5-4.845-.6A2.8,2.8,0,0,0,518.564,533.242Z" transform="translate(-490.157 -533.208)" fill="#2d8cff"/>
    </g>
  </g>
</svg>
