<svg xmlns="http://www.w3.org/2000/svg" width="32" height="32" viewBox="0 0 32 32">
  <g id="Gruppe_21133" data-name="Gruppe 21133" transform="translate(-1423 8221)">
    <rect id="Rechteck_2845" data-name="Rechteck 2845" width="32" height="32" transform="translate(1423 -8221)" fill="none"/>
    <g id="Gruppe_21127" data-name="Gruppe 21127" transform="translate(2220.986 -8619.722)">
      <g id="Gruppe_21121" data-name="Gruppe 21121" transform="translate(-790.986 406.722)">
        <path id="Pfad_21513" data-name="Pfad 21513" d="M-784.495,411.507l-1.807-2.468a1.443,1.443,0,0,1,1.061-2.317h4.674a1.444,1.444,0,0,1,1.062,2.317l-1.808,2.468A1.943,1.943,0,0,1-784.495,411.507Z" transform="translate(791.496 -406.722)" fill="none" stroke="#00b7ff" stroke-linecap="round" stroke-linejoin="round" stroke-width="1.5"/>
        <line id="Linie_3302" data-name="Linie 3302" y1="4.135" transform="translate(8.593 5.765)" fill="none" stroke="#00b7ff" stroke-linecap="round" stroke-linejoin="round" stroke-width="1.5"/>
        <g id="Gruppe_21119" data-name="Gruppe 21119" transform="translate(0 8.966)">
          <path id="Pfad_21514" data-name="Pfad 21514" d="M-782.392,414.757a4.681,4.681,0,0,1-4.433,4.894,4.481,4.481,0,0,1-4.161-3.2" transform="translate(790.986 -414.757)" fill="none" stroke="#00b7ff" stroke-linecap="round" stroke-linejoin="round" stroke-width="1.5"/>
        </g>
        <g id="Gruppe_21120" data-name="Gruppe 21120" transform="translate(8.593 8.966)">
          <path id="Pfad_21515" data-name="Pfad 21515" d="M-783.285,414.757a4.681,4.681,0,0,0,4.433,4.894,4.481,4.481,0,0,0,4.161-3.2" transform="translate(783.285 -414.757)" fill="none" stroke="#00b7ff" stroke-linecap="round" stroke-linejoin="round" stroke-width="1.5"/>
        </g>
      </g>
      <path id="Pfad_21516" data-name="Pfad 21516" d="M-779.631,419.2a3.648,3.648,0,0,1-3.3,2.083,3.65,3.65,0,0,1-3.324-2.141" transform="translate(0.549 1.439)" fill="none" stroke="#00b7ff" stroke-linecap="round" stroke-linejoin="round" stroke-width="1.5"/>
    </g>
  </g>
</svg>
