<?xml version="1.0" encoding="utf-8"?>
<!-- Generator: Adobe Illustrator 24.3.0, SVG Export Plug-In . SVG Version: 6.00 Build 0)  -->
<svg version="1.1" id="Ebene_1" xmlns="http://www.w3.org/2000/svg" xmlns:xlink="http://www.w3.org/1999/xlink" x="0px" y="0px"
	 viewBox="0 0 32 32" style="enable-background:new 0 0 32 32;" xml:space="preserve">
<style type="text/css">
	.st0{fill:none;}
	.st1{fill:none;stroke:#8E8E8E;stroke-width:1.5;stroke-linecap:round;stroke-linejoin:round;}
	.st2{fill:#D81E42;}
</style>
<g id="Gruppe_21132" transform="translate(-1423 8261)">
	<rect id="Rechteck_2842" x="1423" y="-8261" class="st0" width="32" height="32"/>
	<g id="Gruppe_21122" transform="translate(2220.986 -8659.722)">
		<g id="Gruppe_21121" transform="translate(-790.986 406.722)">
			<path id="Pfad_21513" class="st1" d="M7,4.8L5.2,2.3c-0.5-0.6-0.4-1.5,0.3-2C5.7,0.1,6,0,6.3,0h4.7c0.8,0,1.4,0.7,1.4,1.5
				c0,0.3-0.1,0.6-0.3,0.8l-1.8,2.5C9.6,5.7,8.4,5.9,7.5,5.3C7.3,5.1,7.1,5,7,4.8z"/>
			<line id="Linie_3302" class="st1" x1="8.6" y1="9.9" x2="8.6" y2="5.8"/>
			<g id="Gruppe_21119" transform="translate(0 8.966)">
				<path id="Pfad_21514" class="st1" d="M8.6,0c0.1,2.6-1.9,4.8-4.4,4.9C2.2,4.8,0.6,3.5,0,1.7"/>
			</g>
			<g id="Gruppe_21120" transform="translate(8.593 8.966)">
				<path id="Pfad_21515" class="st1" d="M0,0c-0.1,2.6,1.9,4.8,4.4,4.9C6.4,4.8,8,3.5,8.6,1.7"/>
			</g>
		</g>
		<path id="Pfad_21516" class="st1" d="M-779.1,420.6c-0.6,1.3-1.9,2.1-3.3,2.1c-1.4,0-2.7-0.8-3.3-2.1"/>
	</g>
	<circle class="st2" cx="1446.2" cy="-8254.6" r="2.7"/>
</g>
</svg>
