<svg xmlns="http://www.w3.org/2000/svg" xmlns:xlink="http://www.w3.org/1999/xlink" width="312" height="292" viewBox="0 0 312 292">
  <defs>
    <filter id="Tool_bar_bg" x="0" y="0" width="312" height="292" filterUnits="userSpaceOnUse">
      <feOffset input="SourceAlpha"/>
      <feGaussianBlur stdDeviation="2" result="blur"/>
      <feFlood flood-opacity="0.122"/>
      <feComposite operator="in" in2="blur"/>
      <feComposite in="SourceGraphic"/>
    </filter>
  </defs>
  <g id="Gruppe_13922" data-name="Gruppe 13922" transform="translate(-24 -129)">
    <g id="Gruppe_13920" data-name="Gruppe 13920" transform="translate(30 62)">
      <g transform="matrix(1, 0, 0, 1, -6, 67)" filter="url(#Tool_bar_bg)">
        <path id="Tool_bar_bg-2" data-name="Tool bar bg" d="M300,0H0V280H300Z" transform="translate(6 6)" fill="none"/>
      </g>
    </g>
    <g id="Gruppe_13918" data-name="Gruppe 13918" transform="translate(-0.5 104)">
      <text id="Lorem_ipsum_dol_light" data-name="Lorem ipsum dol light" transform="translate(31.5 191)" fill="#424242" font-size="14" font-family="Roboto-Regular, Roboto"><tspan x="0" y="15" xml:space="preserve">Appuyez sur     en haut pour ouvrir le menu. </tspan><tspan x="0" y="35" xml:space="preserve">Choisissez „     ajouter à l’écran d’accueil“. </tspan><tspan x="0" y="55">Vous pouvez maintenant ouvrir </tspan><tspan x="0" y="75">confortablement l’application Confidu comme </tspan><tspan x="0" y="95">toutes vos autres applications depuis l’écran </tspan><tspan x="0" y="115">d’accueil.</tspan></text>
      <text id="Permissions_dark" data-name="Permissions dark" transform="translate(31.5 150)" fill="#424242" font-size="17" font-family="Roboto-Medium, Roboto" font-weight="500"><tspan x="0" y="0">Ajoutez l’application Confidu à votre </tspan><tspan x="0" y="23">écran d’accueil</tspan></text>
      <g id="ic_more_vert_white_24px" transform="translate(109 192)">
        <path id="Pfad_1085" data-name="Pfad 1085" d="M0,0H18V18H0Z" fill="none"/>
        <path id="Pfad_1086" data-name="Pfad 1086" d="M11.5,7A1.5,1.5,0,1,0,10,5.5,1.5,1.5,0,0,0,11.5,7Zm0,1.5A1.5,1.5,0,1,0,13,10,1.5,1.5,0,0,0,11.5,8.5Zm0,4.5A1.5,1.5,0,1,0,13,14.5,1.5,1.5,0,0,0,11.5,13Z" transform="translate(-2.5 -1)" fill="#424242"/>
      </g>
      <g id="Gruppe_13919" data-name="Gruppe 13919" transform="translate(3461.966 1362.644)">
        <path id="Pfad_12948" data-name="Pfad 12948" d="M-3342.829-1146.322v-2.319a.424.424,0,0,1,.424-.424h6.967a.424.424,0,0,1,.424.424v11.9a.424.424,0,0,1-.424.424h-6.967a.424.424,0,0,1-.424-.424v-2.263" transform="translate(-7.022)" fill="none" stroke="#424242" stroke-miterlimit="10" stroke-width="1"/>
        <line id="Linie_3062" data-name="Linie 3062" y1="4.437" x2="4.437" transform="translate(-3351.992 -1144.191)" fill="none" stroke="#424242" stroke-miterlimit="10" stroke-width="1"/>
        <path id="Pfad_12949" data-name="Pfad 12949" d="M-3348.125-1129.2h3.827v3.826" transform="translate(-2.963 -15.227)" fill="none" stroke="#424242" stroke-miterlimit="10" stroke-width="1"/>
        <line id="Linie_3063" data-name="Linie 3063" x2="7.337" transform="translate(-3349.766 -1147.866)" fill="none" stroke="#424242" stroke-miterlimit="10" stroke-width="1.5"/>
        <line id="Linie_3064" data-name="Linie 3064" x2="7.337" transform="translate(-3349.613 -1137.568)" fill="none" stroke="#424242" stroke-miterlimit="10" stroke-width="1.5"/>
      </g>
    </g>
    <g id="Gruppe_13907" data-name="Gruppe 13907" transform="matrix(0.946, 0.326, -0.326, 0.946, 26.922, -53.36)">
      <path id="Pfad_1087" data-name="Pfad 1087" d="M-5195.509-6669.316c11.865-31.081,8.536-51.649,6.11-71.884" transform="matrix(0.998, 0.07, -0.07, 0.998, 5048.867, 7174.664)" fill="none" stroke="#7c7c7c" stroke-linecap="round" stroke-width="2"/>
      <path id="Pfad_1088" data-name="Pfad 1088" d="M-5190.326-6716.231l5.952-8.7,6.779,7.711" transform="matrix(0.998, 0.07, -0.07, 0.998, 5045.102, 7156.838)" fill="none" stroke="#7c7c7c" stroke-linecap="round" stroke-linejoin="round" stroke-width="2"/>
    </g>
  </g>
</svg>
