<?xml version="1.0" encoding="utf-8"?>
<!-- Generator: Adobe Illustrator 24.3.0, SVG Export Plug-In . SVG Version: 6.00 Build 0)  -->
<svg version="1.1" id="Ebene_1" xmlns="http://www.w3.org/2000/svg" xmlns:xlink="http://www.w3.org/1999/xlink" x="0px" y="0px"
	 viewBox="0 0 700 500" style="enable-background:new 0 0 700 500;" xml:space="preserve">
<style type="text/css">
	.st0{fill:none;}
	.st1{fill:none;stroke:#7C7C7C;stroke-width:4.5;stroke-linecap:round;stroke-linejoin:round;}
</style>
<g>
	<rect id="Rechteck_2766_21_" class="st0" width="700" height="500"/>
	<g>
		<circle class="st1" cx="466.3" cy="392" r="26.2"/>
		<g>
			<path class="st1" d="M368.1,177.7c0-6.6,5.4-12.1,12.1-12.1h20.9c6.6,0,12.1,5.4,12.1,12.1l0.2,30.2v47
				c0,56.6-46.3,102.9-102.9,102.9h0c-56.6,0-102.9-46.3-102.9-102.9v-47l0.1-30.2c0-6.6,5.4-12.1,12.1-12.1h20.9
				c6.6,0,12.1,5.4,12.1,12.1"/>
		</g>
		<path class="st1" d="M466.3,419.9c0,42.4-34.7,77.1-77.1,77.1h0c-42.4,0-77.1-34.7-77.1-77.1v-59.7"/>
	</g>
</g>
</svg>
